G04 EAGLE Gerber RS-274X export*
G75*
%MOMM*%
%FSLAX34Y34*%
%LPD*%
%INSoldermask Bottom*%
%IPPOS*%
%AMOC8*
5,1,8,0,0,1.08239X$1,22.5*%
G01*
%ADD10C,4.203200*%
%ADD11C,2.133600*%
%ADD12C,1.411200*%
%ADD13R,10.803200X10.803200*%
%ADD14R,1.411200X1.411200*%
%ADD15C,1.503200*%


D10*
X230485Y260697D03*
X101173Y28209D03*
X709919Y100947D03*
X579891Y57197D03*
D11*
X177430Y55440D03*
X202830Y55440D03*
X277390Y55450D03*
X302790Y55450D03*
X295660Y239540D03*
X321060Y239540D03*
X27360Y35220D03*
X52760Y35220D03*
X579920Y181480D03*
X579920Y206880D03*
X417680Y18000D03*
X443080Y18000D03*
X468480Y18000D03*
X493880Y18000D03*
X519280Y18000D03*
X177890Y181170D03*
X203290Y181170D03*
X277850Y181180D03*
X303250Y181180D03*
X657430Y55440D03*
X682830Y55440D03*
X757390Y55450D03*
X782790Y55450D03*
X657890Y181170D03*
X683290Y181170D03*
X757850Y181180D03*
X783250Y181180D03*
D12*
X19020Y179130D03*
X19020Y192130D03*
X19020Y205130D03*
X19020Y218130D03*
X19020Y231130D03*
X19020Y244130D03*
X19020Y257130D03*
X32020Y257130D03*
X45020Y257130D03*
X58020Y257130D03*
X71020Y257130D03*
X84020Y257130D03*
X97020Y257130D03*
X110020Y257130D03*
X110020Y244130D03*
X110020Y231130D03*
X110020Y218130D03*
X110020Y205130D03*
X110020Y192130D03*
X110020Y179130D03*
D13*
X64740Y211850D03*
D14*
X82875Y88567D03*
D12*
X82875Y68567D03*
D15*
X53454Y110780D03*
X767454Y103000D03*
X673454Y103000D03*
X178454Y95000D03*
X514454Y206000D03*
X514454Y160000D03*
X363454Y254000D03*
X92454Y110780D03*
X133454Y54000D03*
X254454Y23000D03*
X246454Y57000D03*
X252454Y224000D03*
M02*
