G04 EAGLE Gerber RS-274X export*
G75*
%MOMM*%
%FSLAX34Y34*%
%LPD*%
%INTop Copper*%
%IPPOS*%
%AMOC8*
5,1,8,0,0,1.08239X$1,22.5*%
G01*
%ADD10R,10.899075X10.881306*%
%ADD11C,1.930400*%
%ADD12R,1.050000X1.080000*%
%ADD13R,1.080000X1.050000*%
%ADD14R,2.000000X1.200000*%
%ADD15R,1.400000X1.000000*%
%ADD16R,10.600000X10.600000*%
%ADD17C,0.097000*%
%ADD18C,1.208000*%
%ADD19R,1.208000X1.208000*%
%ADD20R,0.800000X1.200000*%
%ADD21C,0.508000*%
%ADD22C,0.956400*%
%ADD23C,1.016000*%
%ADD24C,0.812800*%

G36*
X831035Y-12536D02*
X831035Y-12536D01*
X831069Y-12538D01*
X831258Y-12516D01*
X831449Y-12499D01*
X831482Y-12490D01*
X831516Y-12486D01*
X831699Y-12431D01*
X831883Y-12381D01*
X831914Y-12366D01*
X831947Y-12356D01*
X832118Y-12269D01*
X832290Y-12187D01*
X832318Y-12167D01*
X832349Y-12152D01*
X832501Y-12036D01*
X832656Y-11925D01*
X832680Y-11900D01*
X832707Y-11880D01*
X832836Y-11740D01*
X832970Y-11603D01*
X832989Y-11574D01*
X833013Y-11548D01*
X833115Y-11387D01*
X833222Y-11230D01*
X833236Y-11198D01*
X833254Y-11169D01*
X833327Y-10992D01*
X833404Y-10818D01*
X833412Y-10784D01*
X833425Y-10752D01*
X833465Y-10565D01*
X833511Y-10380D01*
X833513Y-10346D01*
X833520Y-10312D01*
X833539Y-10000D01*
X833539Y300000D01*
X833536Y300035D01*
X833538Y300069D01*
X833516Y300258D01*
X833499Y300449D01*
X833490Y300482D01*
X833486Y300516D01*
X833431Y300699D01*
X833381Y300883D01*
X833366Y300914D01*
X833356Y300947D01*
X833269Y301118D01*
X833187Y301290D01*
X833167Y301318D01*
X833152Y301349D01*
X833036Y301501D01*
X832925Y301656D01*
X832900Y301680D01*
X832880Y301707D01*
X832740Y301836D01*
X832603Y301970D01*
X832574Y301989D01*
X832548Y302013D01*
X832387Y302115D01*
X832230Y302222D01*
X832198Y302236D01*
X832169Y302254D01*
X831992Y302327D01*
X831818Y302404D01*
X831784Y302412D01*
X831752Y302425D01*
X831565Y302465D01*
X831380Y302511D01*
X831346Y302513D01*
X831312Y302520D01*
X831000Y302539D01*
X-10000Y302539D01*
X-10035Y302536D01*
X-10069Y302538D01*
X-10258Y302516D01*
X-10449Y302499D01*
X-10482Y302490D01*
X-10516Y302486D01*
X-10699Y302431D01*
X-10883Y302381D01*
X-10914Y302366D01*
X-10947Y302356D01*
X-11118Y302269D01*
X-11290Y302187D01*
X-11318Y302167D01*
X-11349Y302152D01*
X-11501Y302036D01*
X-11656Y301925D01*
X-11680Y301900D01*
X-11707Y301880D01*
X-11836Y301740D01*
X-11970Y301603D01*
X-11989Y301574D01*
X-12013Y301548D01*
X-12115Y301387D01*
X-12222Y301230D01*
X-12236Y301198D01*
X-12254Y301169D01*
X-12327Y300992D01*
X-12404Y300818D01*
X-12412Y300784D01*
X-12425Y300752D01*
X-12465Y300565D01*
X-12511Y300380D01*
X-12513Y300346D01*
X-12520Y300312D01*
X-12539Y300000D01*
X-12539Y-10000D01*
X-12536Y-10034D01*
X-12538Y-10069D01*
X-12516Y-10258D01*
X-12499Y-10449D01*
X-12490Y-10482D01*
X-12486Y-10516D01*
X-12431Y-10699D01*
X-12381Y-10883D01*
X-12366Y-10914D01*
X-12356Y-10947D01*
X-12269Y-11118D01*
X-12187Y-11290D01*
X-12167Y-11318D01*
X-12152Y-11349D01*
X-12036Y-11501D01*
X-11925Y-11656D01*
X-11900Y-11680D01*
X-11880Y-11707D01*
X-11740Y-11836D01*
X-11603Y-11970D01*
X-11574Y-11989D01*
X-11548Y-12013D01*
X-11387Y-12115D01*
X-11230Y-12222D01*
X-11198Y-12236D01*
X-11169Y-12254D01*
X-10992Y-12327D01*
X-10818Y-12404D01*
X-10784Y-12412D01*
X-10752Y-12425D01*
X-10565Y-12465D01*
X-10380Y-12511D01*
X-10346Y-12513D01*
X-10312Y-12520D01*
X-10000Y-12539D01*
X831000Y-12539D01*
X831035Y-12536D01*
G37*
%LPC*%
G36*
X415457Y6823D02*
X415457Y6823D01*
X411349Y8525D01*
X408205Y11669D01*
X406503Y15777D01*
X406503Y20223D01*
X408205Y24331D01*
X410447Y26573D01*
X410552Y26699D01*
X410664Y26820D01*
X410696Y26872D01*
X410736Y26918D01*
X410817Y27061D01*
X410906Y27200D01*
X410929Y27256D01*
X410959Y27309D01*
X411014Y27464D01*
X411076Y27616D01*
X411089Y27676D01*
X411110Y27734D01*
X411137Y27896D01*
X411171Y28057D01*
X411176Y28134D01*
X411183Y28178D01*
X411182Y28239D01*
X411190Y28369D01*
X411190Y37417D01*
X411176Y37581D01*
X411169Y37745D01*
X411156Y37805D01*
X411151Y37866D01*
X411107Y38025D01*
X411072Y38185D01*
X411048Y38241D01*
X411032Y38300D01*
X410961Y38448D01*
X410898Y38600D01*
X410865Y38652D01*
X410839Y38707D01*
X410743Y38840D01*
X410654Y38979D01*
X410603Y39036D01*
X410576Y39073D01*
X410533Y39115D01*
X410447Y39213D01*
X393928Y55732D01*
X393802Y55837D01*
X393681Y55949D01*
X393629Y55981D01*
X393583Y56020D01*
X393440Y56102D01*
X393301Y56190D01*
X393245Y56214D01*
X393192Y56244D01*
X393037Y56299D01*
X392885Y56361D01*
X392825Y56374D01*
X392767Y56395D01*
X392605Y56421D01*
X392444Y56456D01*
X392367Y56461D01*
X392323Y56468D01*
X392262Y56467D01*
X392132Y56475D01*
X382848Y56475D01*
X382580Y56744D01*
X382454Y56850D01*
X382333Y56961D01*
X382281Y56994D01*
X382234Y57033D01*
X382092Y57114D01*
X381953Y57203D01*
X381896Y57226D01*
X381843Y57256D01*
X381689Y57311D01*
X381536Y57374D01*
X381477Y57387D01*
X381419Y57407D01*
X381257Y57434D01*
X381096Y57468D01*
X381019Y57473D01*
X380975Y57480D01*
X380914Y57480D01*
X380784Y57488D01*
X331799Y57488D01*
X329372Y58493D01*
X316131Y71734D01*
X316091Y71829D01*
X316032Y71920D01*
X315982Y72016D01*
X315910Y72109D01*
X315847Y72207D01*
X315745Y72323D01*
X315706Y72372D01*
X315679Y72396D01*
X315655Y72424D01*
X314693Y74746D01*
X314693Y77254D01*
X315653Y79572D01*
X317428Y81347D01*
X319746Y82307D01*
X322254Y82307D01*
X322381Y82254D01*
X322492Y82219D01*
X322601Y82175D01*
X322707Y82152D01*
X322811Y82120D01*
X322926Y82105D01*
X322990Y82091D01*
X325490Y81055D01*
X326248Y80298D01*
X326384Y80184D01*
X326516Y80065D01*
X326556Y80040D01*
X326593Y80009D01*
X326747Y79921D01*
X326898Y79827D01*
X326942Y79810D01*
X326984Y79786D01*
X327151Y79726D01*
X327316Y79661D01*
X327363Y79651D01*
X327408Y79635D01*
X327583Y79606D01*
X327758Y79571D01*
X327805Y79569D01*
X327852Y79562D01*
X328030Y79564D01*
X328208Y79560D01*
X328255Y79567D01*
X328303Y79568D01*
X328478Y79602D01*
X328653Y79629D01*
X328698Y79644D01*
X328745Y79653D01*
X328911Y79717D01*
X329078Y79775D01*
X329120Y79798D01*
X329165Y79816D01*
X329316Y79908D01*
X329472Y79994D01*
X329509Y80025D01*
X329550Y80049D01*
X329682Y80167D01*
X329820Y80280D01*
X329851Y80316D01*
X329887Y80348D01*
X329997Y80487D01*
X330112Y80622D01*
X330137Y80663D01*
X330166Y80701D01*
X330250Y80857D01*
X330340Y81011D01*
X330356Y81055D01*
X330379Y81098D01*
X330434Y81266D01*
X330495Y81433D01*
X330503Y81480D01*
X330518Y81526D01*
X330542Y81701D01*
X330573Y81877D01*
X330573Y81925D01*
X330580Y81972D01*
X330572Y82149D01*
X330572Y82327D01*
X330563Y82374D01*
X330561Y82422D01*
X330523Y82595D01*
X330491Y82770D01*
X330472Y82826D01*
X330464Y82861D01*
X330439Y82920D01*
X330389Y83065D01*
X329693Y84746D01*
X329693Y87254D01*
X330653Y89572D01*
X332428Y91347D01*
X334746Y92307D01*
X337254Y92307D01*
X339572Y91347D01*
X340111Y90808D01*
X340237Y90703D01*
X340358Y90591D01*
X340409Y90559D01*
X340456Y90520D01*
X340599Y90438D01*
X340737Y90350D01*
X340794Y90326D01*
X340847Y90296D01*
X341002Y90241D01*
X341154Y90179D01*
X341214Y90166D01*
X341271Y90145D01*
X341433Y90119D01*
X341594Y90084D01*
X341671Y90079D01*
X341715Y90072D01*
X341776Y90073D01*
X341906Y90065D01*
X352122Y90065D01*
X352156Y90068D01*
X352191Y90066D01*
X352380Y90088D01*
X352570Y90105D01*
X352603Y90114D01*
X352638Y90118D01*
X352821Y90173D01*
X353004Y90223D01*
X353036Y90238D01*
X353069Y90248D01*
X353239Y90335D01*
X353411Y90417D01*
X353439Y90437D01*
X353470Y90452D01*
X353622Y90568D01*
X353777Y90679D01*
X353801Y90704D01*
X353829Y90724D01*
X353958Y90864D01*
X354091Y91001D01*
X354111Y91030D01*
X354134Y91056D01*
X354237Y91217D01*
X354343Y91374D01*
X354357Y91406D01*
X354376Y91435D01*
X354448Y91612D01*
X354526Y91786D01*
X354534Y91820D01*
X354547Y91852D01*
X354587Y92039D01*
X354632Y92224D01*
X354634Y92258D01*
X354642Y92292D01*
X354649Y92407D01*
X355734Y93492D01*
X355756Y93519D01*
X355782Y93542D01*
X355900Y93691D01*
X356023Y93837D01*
X356040Y93868D01*
X356061Y93895D01*
X356151Y94062D01*
X356246Y94228D01*
X356258Y94261D01*
X356274Y94292D01*
X356333Y94472D01*
X356397Y94653D01*
X356402Y94687D01*
X356413Y94720D01*
X356439Y94909D01*
X356470Y95097D01*
X356470Y95131D01*
X356475Y95166D01*
X356467Y95357D01*
X356464Y95547D01*
X356458Y95581D01*
X356456Y95616D01*
X356415Y95802D01*
X356379Y95989D01*
X356366Y96021D01*
X356359Y96055D01*
X356285Y96232D01*
X356216Y96409D01*
X356198Y96439D01*
X356185Y96471D01*
X356081Y96631D01*
X355982Y96794D01*
X355959Y96820D01*
X355941Y96849D01*
X355734Y97083D01*
X354661Y98156D01*
X354661Y109919D01*
X355554Y110812D01*
X367617Y110812D01*
X368510Y109919D01*
X368510Y109604D01*
X368513Y109569D01*
X368511Y109535D01*
X368533Y109346D01*
X368550Y109155D01*
X368559Y109122D01*
X368563Y109088D01*
X368619Y108905D01*
X368669Y108721D01*
X368684Y108690D01*
X368694Y108657D01*
X368780Y108486D01*
X368862Y108314D01*
X368882Y108286D01*
X368898Y108255D01*
X369013Y108103D01*
X369124Y107948D01*
X369149Y107924D01*
X369170Y107897D01*
X369310Y107768D01*
X369447Y107634D01*
X369476Y107615D01*
X369501Y107591D01*
X369662Y107489D01*
X369820Y107382D01*
X369852Y107368D01*
X369881Y107350D01*
X370057Y107277D01*
X370232Y107200D01*
X370265Y107192D01*
X370297Y107179D01*
X370484Y107139D01*
X370669Y107093D01*
X370704Y107091D01*
X370738Y107084D01*
X371050Y107065D01*
X379416Y107065D01*
X379451Y107068D01*
X379485Y107066D01*
X379674Y107088D01*
X379865Y107105D01*
X379898Y107114D01*
X379932Y107118D01*
X380115Y107173D01*
X380299Y107223D01*
X380330Y107238D01*
X380363Y107248D01*
X380534Y107335D01*
X380706Y107417D01*
X380734Y107437D01*
X380765Y107452D01*
X380917Y107568D01*
X381072Y107679D01*
X381096Y107704D01*
X381123Y107724D01*
X381252Y107864D01*
X381386Y108001D01*
X381405Y108030D01*
X381429Y108056D01*
X381531Y108217D01*
X381638Y108374D01*
X381652Y108406D01*
X381670Y108435D01*
X381743Y108612D01*
X381820Y108786D01*
X381828Y108820D01*
X381841Y108852D01*
X381881Y109039D01*
X381927Y109224D01*
X381929Y109258D01*
X381936Y109292D01*
X381955Y109604D01*
X381955Y110632D01*
X383528Y112204D01*
X383550Y112231D01*
X383576Y112254D01*
X383695Y112403D01*
X383817Y112550D01*
X383834Y112580D01*
X383856Y112607D01*
X383946Y112775D01*
X384040Y112941D01*
X384052Y112973D01*
X384068Y113004D01*
X384127Y113185D01*
X384191Y113365D01*
X384197Y113399D01*
X384208Y113432D01*
X384234Y113621D01*
X384265Y113809D01*
X384264Y113844D01*
X384269Y113878D01*
X384261Y114069D01*
X384259Y114260D01*
X384252Y114294D01*
X384251Y114328D01*
X384209Y114514D01*
X384173Y114702D01*
X384161Y114734D01*
X384153Y114768D01*
X384080Y114943D01*
X384011Y115122D01*
X383993Y115151D01*
X383979Y115183D01*
X383876Y115343D01*
X383777Y115506D01*
X383754Y115532D01*
X383735Y115561D01*
X383528Y115796D01*
X381955Y117368D01*
X381955Y117396D01*
X381952Y117431D01*
X381954Y117465D01*
X381932Y117654D01*
X381915Y117845D01*
X381906Y117878D01*
X381902Y117912D01*
X381847Y118095D01*
X381797Y118279D01*
X381782Y118310D01*
X381772Y118343D01*
X381685Y118514D01*
X381603Y118686D01*
X381583Y118714D01*
X381568Y118745D01*
X381452Y118897D01*
X381341Y119052D01*
X381316Y119076D01*
X381296Y119103D01*
X381156Y119232D01*
X381019Y119366D01*
X380990Y119385D01*
X380964Y119409D01*
X380803Y119511D01*
X380646Y119618D01*
X380614Y119632D01*
X380585Y119650D01*
X380408Y119723D01*
X380234Y119800D01*
X380200Y119808D01*
X380168Y119821D01*
X379981Y119861D01*
X379796Y119907D01*
X379762Y119909D01*
X379728Y119916D01*
X379416Y119935D01*
X370841Y119935D01*
X370678Y119921D01*
X370513Y119914D01*
X370454Y119901D01*
X370393Y119895D01*
X370234Y119852D01*
X370074Y119816D01*
X370017Y119793D01*
X369958Y119777D01*
X369810Y119706D01*
X369658Y119643D01*
X369607Y119610D01*
X369552Y119583D01*
X369418Y119488D01*
X369280Y119398D01*
X369222Y119347D01*
X369186Y119321D01*
X369143Y119278D01*
X369046Y119192D01*
X367617Y117763D01*
X355554Y117763D01*
X354661Y118656D01*
X354661Y130419D01*
X355734Y131492D01*
X355756Y131519D01*
X355782Y131542D01*
X355900Y131691D01*
X356023Y131837D01*
X356040Y131868D01*
X356061Y131895D01*
X356151Y132062D01*
X356246Y132228D01*
X356258Y132261D01*
X356274Y132292D01*
X356333Y132472D01*
X356397Y132653D01*
X356402Y132687D01*
X356413Y132720D01*
X356439Y132909D01*
X356470Y133097D01*
X356470Y133131D01*
X356475Y133166D01*
X356467Y133357D01*
X356464Y133547D01*
X356458Y133581D01*
X356456Y133616D01*
X356415Y133802D01*
X356379Y133989D01*
X356366Y134021D01*
X356359Y134055D01*
X356285Y134232D01*
X356216Y134409D01*
X356198Y134439D01*
X356185Y134471D01*
X356081Y134631D01*
X355982Y134794D01*
X355959Y134820D01*
X355941Y134849D01*
X355734Y135083D01*
X354661Y136156D01*
X354661Y136396D01*
X354658Y136431D01*
X354660Y136465D01*
X354638Y136654D01*
X354621Y136845D01*
X354612Y136878D01*
X354608Y136912D01*
X354552Y137095D01*
X354502Y137279D01*
X354488Y137310D01*
X354477Y137343D01*
X354391Y137514D01*
X354309Y137686D01*
X354289Y137714D01*
X354273Y137745D01*
X354158Y137897D01*
X354047Y138052D01*
X354022Y138076D01*
X354001Y138103D01*
X353861Y138232D01*
X353724Y138366D01*
X353695Y138385D01*
X353670Y138409D01*
X353509Y138511D01*
X353351Y138618D01*
X353319Y138632D01*
X353290Y138650D01*
X353114Y138723D01*
X352939Y138800D01*
X352906Y138808D01*
X352874Y138821D01*
X352687Y138861D01*
X352502Y138907D01*
X352467Y138909D01*
X352433Y138916D01*
X352122Y138935D01*
X341735Y138935D01*
X341572Y138921D01*
X341407Y138914D01*
X341348Y138901D01*
X341287Y138895D01*
X341128Y138852D01*
X340968Y138816D01*
X340911Y138793D01*
X340853Y138777D01*
X340704Y138706D01*
X340552Y138643D01*
X340501Y138610D01*
X340446Y138583D01*
X340312Y138488D01*
X340174Y138398D01*
X340116Y138347D01*
X340080Y138321D01*
X340037Y138278D01*
X339940Y138192D01*
X338808Y137060D01*
X338703Y136934D01*
X338591Y136813D01*
X338559Y136762D01*
X338520Y136715D01*
X338438Y136572D01*
X338350Y136433D01*
X338326Y136377D01*
X338296Y136324D01*
X338241Y136169D01*
X338179Y136017D01*
X338166Y135957D01*
X338145Y135899D01*
X338119Y135737D01*
X338084Y135576D01*
X338079Y135500D01*
X338072Y135455D01*
X338073Y135394D01*
X338065Y135265D01*
X338065Y125191D01*
X337446Y123698D01*
X328302Y114554D01*
X327730Y114317D01*
X327627Y114263D01*
X327519Y114218D01*
X327428Y114159D01*
X327331Y114109D01*
X327239Y114037D01*
X327141Y113974D01*
X327025Y113871D01*
X326975Y113833D01*
X326951Y113806D01*
X326907Y113767D01*
X325999Y112859D01*
X320659Y112859D01*
X320496Y112845D01*
X320331Y112838D01*
X320272Y112825D01*
X320211Y112819D01*
X320052Y112776D01*
X319892Y112740D01*
X319835Y112717D01*
X319777Y112701D01*
X319628Y112630D01*
X319476Y112567D01*
X319425Y112534D01*
X319370Y112507D01*
X319236Y112412D01*
X319098Y112322D01*
X319040Y112271D01*
X319004Y112245D01*
X318961Y112202D01*
X318864Y112116D01*
X314302Y107554D01*
X312809Y106935D01*
X310640Y106935D01*
X310511Y106924D01*
X310381Y106922D01*
X310287Y106904D01*
X310192Y106895D01*
X310066Y106861D01*
X309939Y106836D01*
X309850Y106802D01*
X309758Y106777D01*
X309640Y106721D01*
X309519Y106674D01*
X309437Y106624D01*
X309351Y106583D01*
X309245Y106508D01*
X309134Y106440D01*
X309062Y106377D01*
X308985Y106321D01*
X308894Y106228D01*
X308797Y106142D01*
X308737Y106067D01*
X308671Y105999D01*
X308598Y105891D01*
X308517Y105789D01*
X308472Y105705D01*
X308419Y105626D01*
X308366Y105506D01*
X308305Y105392D01*
X308275Y105301D01*
X308236Y105214D01*
X308206Y105087D01*
X308165Y104964D01*
X308152Y104869D01*
X308130Y104776D01*
X308122Y104646D01*
X308104Y104517D01*
X308108Y104422D01*
X308102Y104327D01*
X308117Y104198D01*
X308123Y104068D01*
X308143Y103974D01*
X308154Y103880D01*
X308192Y103755D01*
X308220Y103628D01*
X308257Y103540D01*
X308285Y103449D01*
X308344Y103333D01*
X308394Y103213D01*
X308446Y103133D01*
X308489Y103047D01*
X308567Y102944D01*
X308594Y102903D01*
X309590Y100497D01*
X309590Y97988D01*
X308630Y95670D01*
X308143Y95184D01*
X308038Y95057D01*
X307926Y94936D01*
X307893Y94885D01*
X307854Y94838D01*
X307773Y94696D01*
X307684Y94557D01*
X307661Y94500D01*
X307631Y94447D01*
X307576Y94292D01*
X307513Y94140D01*
X307501Y94081D01*
X307480Y94023D01*
X307453Y93861D01*
X307419Y93700D01*
X307414Y93623D01*
X307407Y93579D01*
X307407Y93518D01*
X307399Y93388D01*
X307399Y67335D01*
X307418Y67124D01*
X307435Y66912D01*
X307438Y66900D01*
X307439Y66886D01*
X307495Y66682D01*
X307549Y66477D01*
X307554Y66465D01*
X307558Y66452D01*
X307649Y66261D01*
X307738Y66068D01*
X307746Y66057D01*
X307751Y66045D01*
X307875Y65873D01*
X307996Y65699D01*
X308006Y65690D01*
X308013Y65679D01*
X308166Y65531D01*
X308316Y65382D01*
X308327Y65375D01*
X308336Y65365D01*
X308513Y65246D01*
X308686Y65126D01*
X308700Y65119D01*
X308709Y65113D01*
X308745Y65097D01*
X308967Y64989D01*
X309121Y64925D01*
X312265Y61781D01*
X313967Y57673D01*
X313967Y53227D01*
X312265Y49119D01*
X309121Y45975D01*
X305013Y44273D01*
X300567Y44273D01*
X296459Y45975D01*
X293315Y49119D01*
X292436Y51241D01*
X292376Y51356D01*
X292324Y51475D01*
X292272Y51555D01*
X292227Y51640D01*
X292148Y51743D01*
X292076Y51851D01*
X292010Y51920D01*
X291952Y51996D01*
X291855Y52083D01*
X291765Y52177D01*
X291688Y52233D01*
X291617Y52297D01*
X291507Y52366D01*
X291402Y52443D01*
X291316Y52485D01*
X291235Y52535D01*
X291114Y52583D01*
X290998Y52640D01*
X290906Y52667D01*
X290817Y52702D01*
X290689Y52728D01*
X290564Y52763D01*
X290469Y52773D01*
X290376Y52792D01*
X290246Y52795D01*
X290116Y52808D01*
X290021Y52801D01*
X289926Y52803D01*
X289797Y52783D01*
X289667Y52773D01*
X289575Y52749D01*
X289481Y52734D01*
X289357Y52692D01*
X289232Y52659D01*
X289145Y52619D01*
X289055Y52588D01*
X288941Y52524D01*
X288823Y52470D01*
X288745Y52415D01*
X288662Y52368D01*
X288561Y52286D01*
X288454Y52211D01*
X288387Y52143D01*
X288313Y52083D01*
X288229Y51984D01*
X288137Y51892D01*
X288083Y51813D01*
X288021Y51741D01*
X287955Y51628D01*
X287881Y51521D01*
X287824Y51405D01*
X287793Y51352D01*
X287778Y51310D01*
X287744Y51241D01*
X286865Y49119D01*
X283721Y45975D01*
X279613Y44273D01*
X275167Y44273D01*
X271059Y45975D01*
X267915Y49119D01*
X266213Y53227D01*
X266213Y57673D01*
X266550Y58485D01*
X266613Y58686D01*
X266679Y58889D01*
X266680Y58902D01*
X266684Y58915D01*
X266711Y59125D01*
X266740Y59335D01*
X266739Y59348D01*
X266741Y59361D01*
X266730Y59573D01*
X266722Y59785D01*
X266719Y59798D01*
X266718Y59811D01*
X266670Y60019D01*
X266624Y60225D01*
X266619Y60237D01*
X266616Y60250D01*
X266532Y60445D01*
X266450Y60640D01*
X266443Y60651D01*
X266438Y60663D01*
X266322Y60840D01*
X266206Y61018D01*
X266196Y61030D01*
X266190Y61039D01*
X266163Y61067D01*
X265999Y61252D01*
X259554Y67698D01*
X258935Y69191D01*
X258935Y114014D01*
X258921Y114178D01*
X258914Y114342D01*
X258901Y114401D01*
X258895Y114462D01*
X258852Y114621D01*
X258816Y114782D01*
X258793Y114838D01*
X258777Y114897D01*
X258706Y115045D01*
X258643Y115197D01*
X258610Y115248D01*
X258583Y115303D01*
X258488Y115437D01*
X258398Y115575D01*
X258352Y115628D01*
X258352Y126938D01*
X258409Y127000D01*
X258441Y127051D01*
X258480Y127098D01*
X258562Y127241D01*
X258650Y127379D01*
X258674Y127436D01*
X258704Y127489D01*
X258759Y127644D01*
X258821Y127796D01*
X258834Y127856D01*
X258855Y127913D01*
X258881Y128075D01*
X258916Y128236D01*
X258921Y128313D01*
X258928Y128357D01*
X258927Y128418D01*
X258935Y128548D01*
X258935Y165809D01*
X259554Y167302D01*
X266802Y174550D01*
X266939Y174714D01*
X267076Y174874D01*
X267082Y174885D01*
X267091Y174896D01*
X267196Y175080D01*
X267303Y175263D01*
X267308Y175275D01*
X267314Y175287D01*
X267385Y175486D01*
X267458Y175685D01*
X267460Y175698D01*
X267465Y175711D01*
X267499Y175918D01*
X267536Y176129D01*
X267536Y176142D01*
X267538Y176155D01*
X267536Y176369D01*
X267535Y176579D01*
X267532Y176592D01*
X267532Y176605D01*
X267492Y176815D01*
X267454Y177022D01*
X267449Y177037D01*
X267447Y177047D01*
X267433Y177084D01*
X267352Y177317D01*
X266673Y178957D01*
X266673Y183403D01*
X268375Y187511D01*
X271519Y190655D01*
X275627Y192357D01*
X280073Y192357D01*
X284181Y190655D01*
X287325Y187511D01*
X288204Y185389D01*
X288264Y185274D01*
X288316Y185155D01*
X288368Y185075D01*
X288413Y184990D01*
X288492Y184887D01*
X288564Y184779D01*
X288630Y184710D01*
X288688Y184634D01*
X288785Y184547D01*
X288874Y184453D01*
X288952Y184397D01*
X289023Y184333D01*
X289133Y184264D01*
X289238Y184187D01*
X289324Y184145D01*
X289405Y184095D01*
X289525Y184047D01*
X289642Y183990D01*
X289734Y183963D01*
X289823Y183928D01*
X289950Y183902D01*
X290076Y183867D01*
X290171Y183857D01*
X290264Y183838D01*
X290394Y183835D01*
X290524Y183822D01*
X290619Y183829D01*
X290714Y183827D01*
X290843Y183847D01*
X290973Y183857D01*
X291065Y183881D01*
X291159Y183896D01*
X291282Y183938D01*
X291408Y183971D01*
X291495Y184011D01*
X291585Y184042D01*
X291699Y184106D01*
X291817Y184160D01*
X291895Y184215D01*
X291978Y184262D01*
X292079Y184344D01*
X292186Y184419D01*
X292253Y184486D01*
X292327Y184547D01*
X292411Y184646D01*
X292503Y184738D01*
X292557Y184817D01*
X292619Y184889D01*
X292685Y185002D01*
X292759Y185109D01*
X292816Y185225D01*
X292847Y185278D01*
X292862Y185320D01*
X292896Y185389D01*
X293775Y187511D01*
X296919Y190655D01*
X301027Y192357D01*
X305473Y192357D01*
X309581Y190655D01*
X312725Y187511D01*
X314427Y183403D01*
X314427Y178957D01*
X312725Y174849D01*
X309581Y171705D01*
X305473Y170003D01*
X301027Y170003D01*
X300986Y170020D01*
X300783Y170084D01*
X300582Y170149D01*
X300569Y170151D01*
X300556Y170155D01*
X300344Y170182D01*
X300136Y170211D01*
X300122Y170210D01*
X300109Y170212D01*
X299899Y170201D01*
X299686Y170192D01*
X299673Y170189D01*
X299660Y170189D01*
X299454Y170141D01*
X299246Y170095D01*
X299234Y170090D01*
X299221Y170087D01*
X299027Y170003D01*
X298831Y169921D01*
X298819Y169914D01*
X298807Y169909D01*
X298631Y169792D01*
X298452Y169677D01*
X298441Y169667D01*
X298432Y169661D01*
X298403Y169633D01*
X298218Y169470D01*
X293808Y165060D01*
X293703Y164934D01*
X293591Y164813D01*
X293559Y164762D01*
X293520Y164715D01*
X293438Y164572D01*
X293350Y164433D01*
X293326Y164377D01*
X293296Y164324D01*
X293241Y164169D01*
X293179Y164017D01*
X293166Y163957D01*
X293145Y163899D01*
X293119Y163737D01*
X293084Y163576D01*
X293079Y163500D01*
X293072Y163455D01*
X293073Y163394D01*
X293065Y163265D01*
X293065Y139845D01*
X293068Y139810D01*
X293066Y139776D01*
X293088Y139586D01*
X293105Y139396D01*
X293114Y139363D01*
X293118Y139329D01*
X293173Y139146D01*
X293223Y138962D01*
X293238Y138931D01*
X293248Y138898D01*
X293335Y138727D01*
X293417Y138555D01*
X293437Y138527D01*
X293452Y138496D01*
X293568Y138344D01*
X293679Y138189D01*
X293704Y138165D01*
X293724Y138138D01*
X293864Y138008D01*
X294001Y137875D01*
X294030Y137856D01*
X294056Y137832D01*
X294217Y137730D01*
X294374Y137623D01*
X294406Y137609D01*
X294435Y137591D01*
X294612Y137518D01*
X294786Y137441D01*
X294820Y137433D01*
X294852Y137420D01*
X295039Y137379D01*
X295224Y137334D01*
X295258Y137332D01*
X295292Y137325D01*
X295604Y137306D01*
X296508Y137306D01*
X297401Y136412D01*
X297401Y125149D01*
X296508Y124256D01*
X281245Y124256D01*
X279736Y125765D01*
X279636Y125848D01*
X279543Y125939D01*
X279464Y125993D01*
X279390Y126054D01*
X279278Y126119D01*
X279170Y126191D01*
X279082Y126230D01*
X278999Y126277D01*
X278877Y126321D01*
X278758Y126374D01*
X278665Y126396D01*
X278575Y126428D01*
X278447Y126449D01*
X278321Y126480D01*
X278225Y126486D01*
X278131Y126502D01*
X278001Y126500D01*
X277871Y126508D01*
X277776Y126497D01*
X277681Y126496D01*
X277553Y126471D01*
X277424Y126456D01*
X277332Y126428D01*
X277239Y126410D01*
X277118Y126363D01*
X276993Y126326D01*
X276908Y126282D01*
X276819Y126248D01*
X276708Y126180D01*
X276592Y126121D01*
X276516Y126063D01*
X276434Y126014D01*
X276336Y125928D01*
X276233Y125849D01*
X276168Y125779D01*
X276097Y125716D01*
X276016Y125614D01*
X275928Y125518D01*
X275876Y125437D01*
X275817Y125363D01*
X275756Y125248D01*
X275686Y125138D01*
X275650Y125050D01*
X275605Y124966D01*
X275564Y124842D01*
X275515Y124722D01*
X275495Y124628D01*
X275465Y124537D01*
X275448Y124409D01*
X275420Y124282D01*
X275412Y124152D01*
X275404Y124091D01*
X275406Y124047D01*
X275401Y123970D01*
X275401Y118592D01*
X275413Y118463D01*
X275414Y118333D01*
X275432Y118239D01*
X275441Y118144D01*
X275475Y118018D01*
X275500Y117891D01*
X275534Y117801D01*
X275559Y117709D01*
X275615Y117592D01*
X275662Y117471D01*
X275712Y117389D01*
X275753Y117303D01*
X275828Y117197D01*
X275896Y117086D01*
X275959Y117014D01*
X276015Y116937D01*
X276108Y116846D01*
X276194Y116748D01*
X276269Y116689D01*
X276338Y116623D01*
X276445Y116550D01*
X276547Y116469D01*
X276632Y116424D01*
X276711Y116370D01*
X276830Y116318D01*
X276944Y116256D01*
X277035Y116227D01*
X277122Y116188D01*
X277249Y116157D01*
X277372Y116117D01*
X277467Y116104D01*
X277560Y116082D01*
X277690Y116074D01*
X277819Y116056D01*
X277914Y116060D01*
X278009Y116054D01*
X278138Y116069D01*
X278268Y116074D01*
X278362Y116095D01*
X278457Y116106D01*
X278581Y116144D01*
X278708Y116172D01*
X278796Y116209D01*
X278888Y116236D01*
X279004Y116295D01*
X279123Y116345D01*
X279204Y116397D01*
X279289Y116441D01*
X279392Y116519D01*
X279502Y116590D01*
X279599Y116676D01*
X279648Y116713D01*
X279678Y116746D01*
X279736Y116797D01*
X281245Y118306D01*
X296508Y118306D01*
X297418Y117395D01*
X297424Y117346D01*
X297441Y117155D01*
X297450Y117122D01*
X297454Y117088D01*
X297509Y116905D01*
X297559Y116721D01*
X297574Y116690D01*
X297584Y116657D01*
X297671Y116486D01*
X297753Y116314D01*
X297773Y116286D01*
X297789Y116255D01*
X297904Y116103D01*
X298015Y115948D01*
X298040Y115924D01*
X298061Y115897D01*
X298201Y115767D01*
X298338Y115634D01*
X298366Y115615D01*
X298392Y115591D01*
X298553Y115489D01*
X298711Y115382D01*
X298742Y115368D01*
X298772Y115350D01*
X298948Y115277D01*
X299122Y115200D01*
X299156Y115192D01*
X299188Y115179D01*
X299375Y115139D01*
X299560Y115093D01*
X299594Y115091D01*
X299628Y115084D01*
X299940Y115065D01*
X309265Y115065D01*
X309428Y115079D01*
X309593Y115086D01*
X309652Y115099D01*
X309713Y115105D01*
X309872Y115148D01*
X310032Y115184D01*
X310089Y115207D01*
X310147Y115223D01*
X310295Y115294D01*
X310448Y115357D01*
X310499Y115390D01*
X310554Y115417D01*
X310688Y115512D01*
X310826Y115602D01*
X310884Y115653D01*
X310920Y115679D01*
X310963Y115722D01*
X311060Y115808D01*
X312299Y117048D01*
X312405Y117174D01*
X312516Y117295D01*
X312549Y117346D01*
X312588Y117393D01*
X312670Y117536D01*
X312758Y117674D01*
X312781Y117731D01*
X312811Y117784D01*
X312866Y117939D01*
X312929Y118091D01*
X312942Y118151D01*
X312962Y118208D01*
X312989Y118370D01*
X313024Y118531D01*
X313028Y118608D01*
X313036Y118652D01*
X313035Y118713D01*
X313043Y118843D01*
X313043Y125516D01*
X314116Y126588D01*
X314138Y126615D01*
X314164Y126638D01*
X314282Y126787D01*
X314405Y126934D01*
X314422Y126964D01*
X314443Y126991D01*
X314534Y127159D01*
X314628Y127325D01*
X314640Y127357D01*
X314656Y127388D01*
X314715Y127569D01*
X314779Y127749D01*
X314785Y127783D01*
X314795Y127816D01*
X314821Y128005D01*
X314852Y128193D01*
X314852Y128228D01*
X314857Y128262D01*
X314849Y128452D01*
X314846Y128644D01*
X314840Y128678D01*
X314838Y128712D01*
X314797Y128898D01*
X314761Y129086D01*
X314748Y129118D01*
X314741Y129152D01*
X314667Y129327D01*
X314598Y129506D01*
X314580Y129535D01*
X314567Y129567D01*
X314464Y129727D01*
X314365Y129890D01*
X314342Y129916D01*
X314323Y129945D01*
X314116Y130180D01*
X313043Y131252D01*
X313043Y143016D01*
X313936Y143909D01*
X325999Y143909D01*
X326892Y143016D01*
X326892Y142771D01*
X326904Y142641D01*
X326906Y142511D01*
X326924Y142418D01*
X326932Y142323D01*
X326967Y142197D01*
X326991Y142069D01*
X327026Y141980D01*
X327051Y141888D01*
X327107Y141771D01*
X327153Y141649D01*
X327203Y141568D01*
X327244Y141482D01*
X327320Y141376D01*
X327387Y141265D01*
X327451Y141193D01*
X327506Y141115D01*
X327600Y141025D01*
X327686Y140927D01*
X327760Y140868D01*
X327829Y140801D01*
X327937Y140728D01*
X328039Y140648D01*
X328123Y140603D01*
X328202Y140549D01*
X328321Y140497D01*
X328436Y140435D01*
X328526Y140406D01*
X328614Y140367D01*
X328740Y140336D01*
X328864Y140296D01*
X328958Y140283D01*
X329051Y140260D01*
X329181Y140252D01*
X329310Y140235D01*
X329405Y140239D01*
X329501Y140233D01*
X329630Y140248D01*
X329760Y140253D01*
X329853Y140274D01*
X329948Y140285D01*
X330073Y140322D01*
X330199Y140351D01*
X330287Y140387D01*
X330379Y140415D01*
X330495Y140474D01*
X330615Y140524D01*
X330695Y140576D01*
X330780Y140619D01*
X330884Y140698D01*
X330993Y140769D01*
X331090Y140855D01*
X331139Y140891D01*
X331169Y140924D01*
X331227Y140976D01*
X335197Y144945D01*
X336698Y146446D01*
X338191Y147065D01*
X352755Y147065D01*
X352918Y147079D01*
X353083Y147086D01*
X353142Y147099D01*
X353203Y147105D01*
X353362Y147148D01*
X353522Y147184D01*
X353579Y147207D01*
X353637Y147223D01*
X353786Y147294D01*
X353938Y147357D01*
X353989Y147390D01*
X354044Y147417D01*
X354178Y147512D01*
X354316Y147602D01*
X354374Y147653D01*
X354410Y147679D01*
X354453Y147722D01*
X354550Y147808D01*
X355554Y148812D01*
X367617Y148812D01*
X368510Y147919D01*
X368510Y136156D01*
X367437Y135083D01*
X367415Y135056D01*
X367389Y135034D01*
X367271Y134884D01*
X367148Y134738D01*
X367131Y134708D01*
X367110Y134680D01*
X367020Y134512D01*
X366925Y134347D01*
X366913Y134314D01*
X366897Y134284D01*
X366838Y134102D01*
X366774Y133922D01*
X366769Y133888D01*
X366758Y133855D01*
X366732Y133666D01*
X366701Y133478D01*
X366701Y133444D01*
X366697Y133409D01*
X366704Y133219D01*
X366707Y133028D01*
X366713Y132994D01*
X366715Y132959D01*
X366756Y132773D01*
X366792Y132586D01*
X366805Y132554D01*
X366812Y132520D01*
X366886Y132344D01*
X366955Y132166D01*
X366973Y132136D01*
X366986Y132104D01*
X367089Y131944D01*
X367189Y131781D01*
X367212Y131755D01*
X367230Y131726D01*
X367437Y131492D01*
X368527Y130403D01*
X368533Y130346D01*
X368550Y130155D01*
X368559Y130122D01*
X368563Y130088D01*
X368619Y129905D01*
X368669Y129721D01*
X368684Y129690D01*
X368694Y129657D01*
X368780Y129486D01*
X368862Y129314D01*
X368882Y129286D01*
X368898Y129255D01*
X369013Y129103D01*
X369124Y128948D01*
X369149Y128924D01*
X369170Y128897D01*
X369310Y128768D01*
X369447Y128634D01*
X369476Y128615D01*
X369501Y128591D01*
X369662Y128489D01*
X369820Y128382D01*
X369852Y128368D01*
X369881Y128350D01*
X370057Y128277D01*
X370232Y128200D01*
X370265Y128192D01*
X370297Y128179D01*
X370484Y128139D01*
X370669Y128093D01*
X370704Y128091D01*
X370738Y128084D01*
X371050Y128065D01*
X379416Y128065D01*
X379451Y128068D01*
X379485Y128066D01*
X379674Y128088D01*
X379865Y128105D01*
X379898Y128114D01*
X379932Y128118D01*
X380115Y128173D01*
X380299Y128223D01*
X380330Y128238D01*
X380363Y128248D01*
X380534Y128335D01*
X380706Y128417D01*
X380734Y128437D01*
X380765Y128452D01*
X380917Y128568D01*
X381072Y128679D01*
X381096Y128704D01*
X381123Y128724D01*
X381252Y128864D01*
X381386Y129001D01*
X381405Y129030D01*
X381429Y129056D01*
X381531Y129217D01*
X381638Y129374D01*
X381652Y129406D01*
X381670Y129435D01*
X381743Y129612D01*
X381820Y129786D01*
X381828Y129820D01*
X381841Y129852D01*
X381881Y130039D01*
X381927Y130224D01*
X381929Y130258D01*
X381936Y130292D01*
X381955Y130604D01*
X381955Y130632D01*
X383528Y132204D01*
X383550Y132231D01*
X383576Y132254D01*
X383695Y132403D01*
X383817Y132550D01*
X383834Y132580D01*
X383856Y132607D01*
X383946Y132775D01*
X384040Y132941D01*
X384052Y132973D01*
X384068Y133004D01*
X384127Y133185D01*
X384191Y133365D01*
X384197Y133399D01*
X384208Y133432D01*
X384234Y133620D01*
X384265Y133809D01*
X384264Y133844D01*
X384269Y133878D01*
X384261Y134069D01*
X384259Y134260D01*
X384252Y134294D01*
X384251Y134328D01*
X384209Y134514D01*
X384173Y134702D01*
X384161Y134734D01*
X384153Y134768D01*
X384080Y134943D01*
X384011Y135122D01*
X383993Y135151D01*
X383979Y135183D01*
X383876Y135343D01*
X383777Y135506D01*
X383754Y135532D01*
X383735Y135561D01*
X383528Y135796D01*
X381955Y137368D01*
X381955Y150632D01*
X383528Y152204D01*
X383550Y152231D01*
X383576Y152254D01*
X383695Y152403D01*
X383817Y152550D01*
X383834Y152580D01*
X383856Y152607D01*
X383946Y152775D01*
X384040Y152941D01*
X384052Y152973D01*
X384068Y153004D01*
X384127Y153185D01*
X384191Y153365D01*
X384197Y153399D01*
X384208Y153432D01*
X384234Y153621D01*
X384265Y153809D01*
X384264Y153844D01*
X384269Y153878D01*
X384261Y154068D01*
X384259Y154260D01*
X384252Y154294D01*
X384251Y154328D01*
X384209Y154514D01*
X384173Y154702D01*
X384161Y154734D01*
X384153Y154768D01*
X384080Y154943D01*
X384011Y155122D01*
X383993Y155151D01*
X383979Y155183D01*
X383876Y155343D01*
X383777Y155506D01*
X383754Y155532D01*
X383735Y155561D01*
X383528Y155796D01*
X383132Y156192D01*
X383006Y156297D01*
X382885Y156409D01*
X382833Y156441D01*
X382787Y156480D01*
X382644Y156562D01*
X382505Y156650D01*
X382449Y156674D01*
X382396Y156704D01*
X382241Y156759D01*
X382089Y156821D01*
X382029Y156834D01*
X381971Y156855D01*
X381809Y156881D01*
X381649Y156916D01*
X381571Y156921D01*
X381527Y156928D01*
X381466Y156927D01*
X381337Y156935D01*
X369841Y156935D01*
X369678Y156921D01*
X369513Y156914D01*
X369454Y156901D01*
X369393Y156895D01*
X369234Y156852D01*
X369074Y156816D01*
X369017Y156793D01*
X368958Y156777D01*
X368810Y156706D01*
X368658Y156643D01*
X368607Y156610D01*
X368552Y156583D01*
X368418Y156488D01*
X368280Y156398D01*
X368222Y156347D01*
X368186Y156321D01*
X368143Y156278D01*
X368046Y156192D01*
X367617Y155763D01*
X355554Y155763D01*
X355125Y156192D01*
X354999Y156297D01*
X354878Y156409D01*
X354827Y156441D01*
X354780Y156480D01*
X354637Y156562D01*
X354498Y156650D01*
X354442Y156674D01*
X354389Y156704D01*
X354234Y156759D01*
X354082Y156821D01*
X354022Y156834D01*
X353965Y156855D01*
X353802Y156881D01*
X353642Y156916D01*
X353565Y156921D01*
X353520Y156928D01*
X353459Y156927D01*
X353330Y156935D01*
X352191Y156935D01*
X350698Y157554D01*
X349197Y159054D01*
X349197Y159055D01*
X342554Y165698D01*
X341935Y167191D01*
X341935Y194809D01*
X342554Y196302D01*
X344054Y197803D01*
X344055Y197803D01*
X349197Y202945D01*
X350698Y204446D01*
X352191Y205065D01*
X352255Y205065D01*
X352418Y205079D01*
X352583Y205086D01*
X352642Y205099D01*
X352703Y205105D01*
X352862Y205148D01*
X353022Y205184D01*
X353079Y205207D01*
X353138Y205223D01*
X353286Y205294D01*
X353438Y205357D01*
X353489Y205390D01*
X353544Y205417D01*
X353678Y205512D01*
X353816Y205602D01*
X353874Y205653D01*
X353910Y205679D01*
X353953Y205722D01*
X354050Y205808D01*
X355734Y207492D01*
X355756Y207519D01*
X355782Y207542D01*
X355900Y207690D01*
X356023Y207837D01*
X356040Y207868D01*
X356061Y207895D01*
X356151Y208063D01*
X356246Y208228D01*
X356258Y208261D01*
X356274Y208292D01*
X356333Y208473D01*
X356397Y208653D01*
X356402Y208687D01*
X356413Y208720D01*
X356439Y208908D01*
X356470Y209097D01*
X356470Y209131D01*
X356475Y209166D01*
X356467Y209356D01*
X356464Y209547D01*
X356458Y209581D01*
X356456Y209616D01*
X356415Y209802D01*
X356379Y209989D01*
X356366Y210022D01*
X356359Y210055D01*
X356285Y210231D01*
X356216Y210409D01*
X356198Y210439D01*
X356185Y210471D01*
X356081Y210631D01*
X355982Y210794D01*
X355959Y210820D01*
X355941Y210849D01*
X355734Y211083D01*
X354661Y212156D01*
X354661Y217539D01*
X354646Y217703D01*
X354640Y217867D01*
X354626Y217927D01*
X354621Y217988D01*
X354578Y218146D01*
X354542Y218307D01*
X354518Y218363D01*
X354502Y218422D01*
X354432Y218570D01*
X354368Y218722D01*
X354335Y218774D01*
X354309Y218829D01*
X354213Y218962D01*
X354124Y219100D01*
X354073Y219158D01*
X354047Y219195D01*
X354003Y219237D01*
X353917Y219335D01*
X339060Y234192D01*
X338934Y234297D01*
X338813Y234409D01*
X338762Y234441D01*
X338715Y234480D01*
X338572Y234562D01*
X338433Y234650D01*
X338377Y234674D01*
X338324Y234704D01*
X338169Y234759D01*
X338017Y234821D01*
X337957Y234834D01*
X337899Y234855D01*
X337737Y234881D01*
X337576Y234916D01*
X337500Y234921D01*
X337455Y234928D01*
X337394Y234927D01*
X337265Y234935D01*
X332947Y234935D01*
X332736Y234917D01*
X332524Y234900D01*
X332512Y234897D01*
X332498Y234895D01*
X332293Y234839D01*
X332089Y234786D01*
X332077Y234780D01*
X332064Y234777D01*
X331873Y234686D01*
X331680Y234597D01*
X331669Y234589D01*
X331657Y234583D01*
X331485Y234460D01*
X331311Y234338D01*
X331302Y234329D01*
X331291Y234321D01*
X331143Y234169D01*
X330994Y234019D01*
X330987Y234008D01*
X330977Y233999D01*
X330858Y233822D01*
X330738Y233648D01*
X330731Y233634D01*
X330725Y233626D01*
X330709Y233589D01*
X330601Y233368D01*
X330535Y233209D01*
X327391Y230065D01*
X323283Y228363D01*
X318837Y228363D01*
X314729Y230065D01*
X311585Y233209D01*
X310706Y235331D01*
X310646Y235446D01*
X310594Y235565D01*
X310542Y235645D01*
X310497Y235730D01*
X310418Y235833D01*
X310346Y235941D01*
X310280Y236010D01*
X310222Y236086D01*
X310125Y236173D01*
X310035Y236267D01*
X309958Y236323D01*
X309887Y236387D01*
X309777Y236456D01*
X309672Y236533D01*
X309586Y236575D01*
X309505Y236625D01*
X309384Y236673D01*
X309268Y236730D01*
X309176Y236757D01*
X309087Y236792D01*
X308959Y236818D01*
X308834Y236853D01*
X308739Y236863D01*
X308646Y236882D01*
X308516Y236885D01*
X308386Y236898D01*
X308291Y236891D01*
X308196Y236893D01*
X308067Y236873D01*
X307937Y236863D01*
X307845Y236839D01*
X307751Y236824D01*
X307627Y236782D01*
X307502Y236749D01*
X307415Y236709D01*
X307325Y236678D01*
X307211Y236614D01*
X307093Y236560D01*
X307015Y236505D01*
X306932Y236458D01*
X306831Y236376D01*
X306724Y236301D01*
X306657Y236233D01*
X306583Y236173D01*
X306499Y236074D01*
X306407Y235982D01*
X306353Y235903D01*
X306291Y235831D01*
X306225Y235718D01*
X306151Y235611D01*
X306094Y235495D01*
X306063Y235442D01*
X306048Y235400D01*
X306014Y235331D01*
X305135Y233209D01*
X301991Y230065D01*
X297883Y228363D01*
X293437Y228363D01*
X289329Y230065D01*
X286185Y233209D01*
X284483Y237317D01*
X284483Y241763D01*
X286185Y245871D01*
X289329Y249015D01*
X293437Y250717D01*
X297883Y250717D01*
X301991Y249015D01*
X305135Y245871D01*
X306014Y243749D01*
X306074Y243634D01*
X306126Y243515D01*
X306178Y243435D01*
X306223Y243350D01*
X306302Y243248D01*
X306374Y243139D01*
X306440Y243070D01*
X306498Y242994D01*
X306595Y242907D01*
X306684Y242813D01*
X306762Y242757D01*
X306832Y242693D01*
X306943Y242624D01*
X307048Y242547D01*
X307134Y242505D01*
X307215Y242455D01*
X307336Y242407D01*
X307452Y242350D01*
X307544Y242323D01*
X307633Y242288D01*
X307760Y242262D01*
X307886Y242227D01*
X307981Y242217D01*
X308074Y242198D01*
X308204Y242195D01*
X308334Y242182D01*
X308429Y242189D01*
X308524Y242187D01*
X308653Y242207D01*
X308783Y242217D01*
X308875Y242241D01*
X308969Y242256D01*
X309093Y242298D01*
X309218Y242331D01*
X309305Y242371D01*
X309395Y242402D01*
X309509Y242466D01*
X309627Y242520D01*
X309705Y242575D01*
X309788Y242622D01*
X309889Y242704D01*
X309996Y242779D01*
X310063Y242846D01*
X310137Y242907D01*
X310221Y243006D01*
X310313Y243098D01*
X310367Y243177D01*
X310429Y243249D01*
X310495Y243362D01*
X310569Y243469D01*
X310626Y243585D01*
X310657Y243638D01*
X310672Y243680D01*
X310706Y243749D01*
X311585Y245871D01*
X314729Y249015D01*
X318837Y250717D01*
X323283Y250717D01*
X327391Y249015D01*
X330535Y245871D01*
X331048Y244632D01*
X331146Y244445D01*
X331243Y244255D01*
X331251Y244245D01*
X331257Y244233D01*
X331387Y244066D01*
X331515Y243897D01*
X331524Y243888D01*
X331533Y243877D01*
X331690Y243735D01*
X331846Y243591D01*
X331857Y243584D01*
X331867Y243576D01*
X332047Y243464D01*
X332226Y243350D01*
X332238Y243345D01*
X332249Y243338D01*
X332446Y243259D01*
X332642Y243179D01*
X332655Y243176D01*
X332667Y243171D01*
X332875Y243129D01*
X333082Y243084D01*
X333098Y243083D01*
X333109Y243081D01*
X333148Y243080D01*
X333394Y243065D01*
X340809Y243065D01*
X342302Y242446D01*
X359192Y225556D01*
X359319Y225450D01*
X359439Y225339D01*
X359491Y225306D01*
X359538Y225267D01*
X359680Y225186D01*
X359819Y225097D01*
X359876Y225074D01*
X359929Y225044D01*
X360084Y224989D01*
X360236Y224926D01*
X360295Y224913D01*
X360353Y224893D01*
X360515Y224866D01*
X360676Y224832D01*
X360753Y224827D01*
X360797Y224819D01*
X360858Y224820D01*
X360988Y224812D01*
X368150Y224812D01*
X368185Y224815D01*
X368219Y224813D01*
X368408Y224835D01*
X368599Y224852D01*
X368632Y224861D01*
X368666Y224865D01*
X368849Y224921D01*
X369033Y224971D01*
X369064Y224986D01*
X369097Y224996D01*
X369268Y225082D01*
X369440Y225164D01*
X369468Y225184D01*
X369499Y225200D01*
X369651Y225315D01*
X369806Y225426D01*
X369830Y225451D01*
X369857Y225472D01*
X369986Y225612D01*
X370120Y225749D01*
X370139Y225778D01*
X370163Y225803D01*
X370265Y225964D01*
X370372Y226122D01*
X370386Y226154D01*
X370404Y226183D01*
X370477Y226359D01*
X370554Y226534D01*
X370562Y226567D01*
X370575Y226599D01*
X370615Y226786D01*
X370661Y226971D01*
X370663Y227006D01*
X370670Y227040D01*
X370689Y227352D01*
X370689Y291480D01*
X370690Y291481D01*
X565000Y291481D01*
X565001Y291480D01*
X565001Y215280D01*
X565000Y215279D01*
X556487Y215279D01*
X556358Y215268D01*
X556228Y215266D01*
X556134Y215248D01*
X556039Y215239D01*
X555913Y215205D01*
X555786Y215180D01*
X555696Y215146D01*
X555604Y215121D01*
X555487Y215065D01*
X555366Y215018D01*
X555284Y214968D01*
X555198Y214927D01*
X555092Y214852D01*
X554981Y214784D01*
X554909Y214721D01*
X554832Y214665D01*
X554741Y214572D01*
X554644Y214486D01*
X554584Y214411D01*
X554518Y214343D01*
X554445Y214235D01*
X554364Y214133D01*
X554319Y214049D01*
X554266Y213970D01*
X554213Y213851D01*
X554152Y213736D01*
X554122Y213645D01*
X554083Y213558D01*
X554053Y213431D01*
X554012Y213308D01*
X553999Y213213D01*
X553977Y213120D01*
X553969Y212991D01*
X553951Y212862D01*
X553955Y212766D01*
X553949Y212671D01*
X553964Y212542D01*
X553969Y212412D01*
X553990Y212319D01*
X554001Y212224D01*
X554039Y212099D01*
X554067Y211972D01*
X554104Y211884D01*
X554131Y211793D01*
X554190Y211677D01*
X554241Y211557D01*
X554292Y211476D01*
X554336Y211391D01*
X554414Y211288D01*
X554485Y211179D01*
X554571Y211081D01*
X554608Y211033D01*
X554641Y211002D01*
X554692Y210944D01*
X555304Y210332D01*
X555430Y210227D01*
X555551Y210115D01*
X555602Y210083D01*
X555649Y210044D01*
X555792Y209962D01*
X555931Y209874D01*
X555987Y209850D01*
X556040Y209820D01*
X556195Y209765D01*
X556347Y209703D01*
X556407Y209690D01*
X556464Y209669D01*
X556627Y209643D01*
X556787Y209608D01*
X556864Y209603D01*
X556909Y209596D01*
X556970Y209597D01*
X557099Y209589D01*
X567248Y209589D01*
X567459Y209608D01*
X567670Y209624D01*
X567683Y209627D01*
X567696Y209629D01*
X567902Y209685D01*
X568106Y209738D01*
X568118Y209744D01*
X568131Y209747D01*
X568321Y209838D01*
X568514Y209927D01*
X568525Y209935D01*
X568537Y209941D01*
X568709Y210063D01*
X568883Y210186D01*
X568893Y210195D01*
X568903Y210203D01*
X569052Y210355D01*
X569201Y210505D01*
X569208Y210516D01*
X569217Y210525D01*
X569336Y210701D01*
X569457Y210875D01*
X569463Y210890D01*
X569469Y210898D01*
X569485Y210934D01*
X569594Y211156D01*
X570445Y213211D01*
X573589Y216355D01*
X577697Y218057D01*
X582143Y218057D01*
X586251Y216355D01*
X589395Y213211D01*
X591097Y209103D01*
X591097Y204657D01*
X589395Y200549D01*
X586251Y197405D01*
X584129Y196526D01*
X584014Y196466D01*
X583895Y196414D01*
X583815Y196362D01*
X583730Y196317D01*
X583628Y196238D01*
X583519Y196166D01*
X583450Y196100D01*
X583374Y196042D01*
X583287Y195945D01*
X583193Y195855D01*
X583137Y195778D01*
X583073Y195707D01*
X583004Y195597D01*
X582927Y195492D01*
X582885Y195406D01*
X582835Y195325D01*
X582787Y195204D01*
X582730Y195088D01*
X582703Y194996D01*
X582668Y194907D01*
X582642Y194779D01*
X582607Y194654D01*
X582597Y194559D01*
X582578Y194466D01*
X582575Y194336D01*
X582562Y194206D01*
X582569Y194111D01*
X582567Y194016D01*
X582587Y193887D01*
X582597Y193757D01*
X582621Y193665D01*
X582636Y193571D01*
X582678Y193448D01*
X582711Y193322D01*
X582751Y193235D01*
X582782Y193145D01*
X582846Y193031D01*
X582900Y192913D01*
X582955Y192835D01*
X583002Y192752D01*
X583084Y192651D01*
X583159Y192544D01*
X583227Y192477D01*
X583287Y192403D01*
X583386Y192319D01*
X583478Y192227D01*
X583557Y192173D01*
X583629Y192111D01*
X583742Y192045D01*
X583849Y191971D01*
X583966Y191914D01*
X584018Y191883D01*
X584060Y191868D01*
X584129Y191834D01*
X586251Y190955D01*
X589395Y187811D01*
X591097Y183703D01*
X591097Y179257D01*
X589395Y175149D01*
X586251Y172005D01*
X582143Y170303D01*
X577697Y170303D01*
X573589Y172005D01*
X570445Y175149D01*
X569743Y176844D01*
X569644Y177033D01*
X569548Y177221D01*
X569540Y177231D01*
X569534Y177243D01*
X569404Y177411D01*
X569276Y177579D01*
X569267Y177588D01*
X569259Y177599D01*
X569102Y177740D01*
X568945Y177885D01*
X568934Y177892D01*
X568924Y177900D01*
X568746Y178012D01*
X568565Y178126D01*
X568553Y178131D01*
X568542Y178138D01*
X568345Y178217D01*
X568149Y178297D01*
X568136Y178300D01*
X568124Y178305D01*
X567916Y178348D01*
X567709Y178392D01*
X567693Y178393D01*
X567683Y178395D01*
X567643Y178396D01*
X567397Y178411D01*
X557099Y178411D01*
X556936Y178397D01*
X556771Y178390D01*
X556712Y178377D01*
X556651Y178371D01*
X556492Y178328D01*
X556332Y178292D01*
X556275Y178269D01*
X556216Y178253D01*
X556068Y178182D01*
X555916Y178119D01*
X555865Y178086D01*
X555810Y178059D01*
X555676Y177964D01*
X555538Y177874D01*
X555480Y177823D01*
X555444Y177797D01*
X555401Y177754D01*
X555304Y177668D01*
X553432Y175795D01*
X553410Y175769D01*
X553384Y175746D01*
X553265Y175596D01*
X553143Y175450D01*
X553126Y175420D01*
X553104Y175393D01*
X553014Y175225D01*
X552920Y175059D01*
X552908Y175027D01*
X552892Y174996D01*
X552833Y174815D01*
X552769Y174635D01*
X552763Y174601D01*
X552752Y174568D01*
X552726Y174379D01*
X552695Y174191D01*
X552696Y174156D01*
X552691Y174122D01*
X552699Y173931D01*
X552701Y173740D01*
X552708Y173707D01*
X552709Y173672D01*
X552751Y173485D01*
X552787Y173298D01*
X552799Y173266D01*
X552807Y173232D01*
X552880Y173056D01*
X552949Y172878D01*
X552967Y172849D01*
X552981Y172817D01*
X553084Y172657D01*
X553183Y172494D01*
X553206Y172468D01*
X553225Y172439D01*
X553432Y172204D01*
X555005Y170632D01*
X555005Y157368D01*
X553432Y155796D01*
X553410Y155769D01*
X553384Y155746D01*
X553266Y155597D01*
X553143Y155450D01*
X553126Y155420D01*
X553104Y155393D01*
X553014Y155225D01*
X552920Y155059D01*
X552908Y155027D01*
X552892Y154996D01*
X552833Y154815D01*
X552769Y154635D01*
X552763Y154601D01*
X552752Y154568D01*
X552726Y154379D01*
X552695Y154191D01*
X552696Y154156D01*
X552691Y154122D01*
X552699Y153931D01*
X552701Y153741D01*
X552708Y153706D01*
X552709Y153672D01*
X552751Y153486D01*
X552787Y153298D01*
X552799Y153266D01*
X552807Y153232D01*
X552881Y153055D01*
X552949Y152878D01*
X552967Y152849D01*
X552981Y152817D01*
X553084Y152656D01*
X553183Y152494D01*
X553206Y152468D01*
X553225Y152439D01*
X553432Y152204D01*
X555005Y150632D01*
X555005Y150604D01*
X555008Y150569D01*
X555006Y150535D01*
X555028Y150346D01*
X555045Y150155D01*
X555054Y150122D01*
X555058Y150088D01*
X555113Y149905D01*
X555163Y149721D01*
X555178Y149690D01*
X555188Y149657D01*
X555275Y149486D01*
X555357Y149314D01*
X555377Y149286D01*
X555392Y149255D01*
X555508Y149103D01*
X555619Y148948D01*
X555644Y148924D01*
X555664Y148897D01*
X555804Y148768D01*
X555941Y148634D01*
X555970Y148615D01*
X555996Y148591D01*
X556157Y148489D01*
X556314Y148382D01*
X556346Y148368D01*
X556375Y148350D01*
X556552Y148277D01*
X556726Y148200D01*
X556760Y148192D01*
X556792Y148179D01*
X556979Y148139D01*
X557164Y148093D01*
X557198Y148091D01*
X557232Y148084D01*
X557544Y148065D01*
X602809Y148065D01*
X604302Y147446D01*
X613600Y138148D01*
X613700Y138064D01*
X613793Y137974D01*
X613873Y137920D01*
X613946Y137859D01*
X614059Y137794D01*
X614166Y137722D01*
X614254Y137683D01*
X614337Y137636D01*
X614459Y137592D01*
X614578Y137539D01*
X614671Y137517D01*
X614761Y137485D01*
X614889Y137464D01*
X615016Y137433D01*
X615111Y137427D01*
X615205Y137411D01*
X615335Y137413D01*
X615465Y137405D01*
X615560Y137416D01*
X615656Y137417D01*
X615783Y137442D01*
X615912Y137457D01*
X616004Y137485D01*
X616098Y137503D01*
X616219Y137550D01*
X616343Y137587D01*
X616428Y137631D01*
X616518Y137665D01*
X616629Y137733D01*
X616745Y137792D01*
X616821Y137849D01*
X616902Y137899D01*
X617000Y137985D01*
X617103Y138064D01*
X617168Y138134D01*
X617240Y138197D01*
X617320Y138299D01*
X617409Y138395D01*
X617460Y138476D01*
X617519Y138550D01*
X617580Y138665D01*
X617650Y138775D01*
X617687Y138863D01*
X617732Y138947D01*
X617772Y139071D01*
X617821Y139191D01*
X617841Y139285D01*
X617871Y139376D01*
X617889Y139504D01*
X617916Y139631D01*
X617924Y139761D01*
X617932Y139822D01*
X617931Y139866D01*
X617935Y139943D01*
X617935Y163809D01*
X618554Y165302D01*
X638698Y185446D01*
X640191Y186065D01*
X646123Y186065D01*
X646335Y186084D01*
X646546Y186100D01*
X646558Y186103D01*
X646572Y186105D01*
X646777Y186161D01*
X646981Y186214D01*
X646993Y186220D01*
X647006Y186223D01*
X647196Y186314D01*
X647390Y186403D01*
X647401Y186411D01*
X647413Y186417D01*
X647584Y186539D01*
X647759Y186662D01*
X647768Y186671D01*
X647779Y186679D01*
X647927Y186831D01*
X648076Y186981D01*
X648084Y186992D01*
X648093Y187001D01*
X648212Y187177D01*
X648332Y187351D01*
X648339Y187366D01*
X648345Y187374D01*
X648361Y187410D01*
X648396Y187482D01*
X651559Y190645D01*
X655667Y192347D01*
X660113Y192347D01*
X664221Y190645D01*
X667365Y187501D01*
X668244Y185379D01*
X668304Y185264D01*
X668356Y185145D01*
X668408Y185065D01*
X668453Y184980D01*
X668532Y184877D01*
X668604Y184769D01*
X668670Y184700D01*
X668728Y184624D01*
X668825Y184537D01*
X668914Y184443D01*
X668992Y184387D01*
X669063Y184323D01*
X669173Y184254D01*
X669278Y184177D01*
X669364Y184135D01*
X669445Y184085D01*
X669565Y184037D01*
X669682Y183980D01*
X669774Y183953D01*
X669863Y183918D01*
X669990Y183892D01*
X670116Y183857D01*
X670211Y183847D01*
X670304Y183828D01*
X670434Y183825D01*
X670564Y183812D01*
X670659Y183819D01*
X670754Y183817D01*
X670883Y183837D01*
X671013Y183847D01*
X671105Y183871D01*
X671199Y183886D01*
X671322Y183928D01*
X671448Y183961D01*
X671535Y184001D01*
X671625Y184032D01*
X671739Y184096D01*
X671857Y184150D01*
X671935Y184205D01*
X672018Y184252D01*
X672119Y184334D01*
X672226Y184409D01*
X672293Y184476D01*
X672367Y184537D01*
X672451Y184636D01*
X672543Y184728D01*
X672597Y184807D01*
X672659Y184879D01*
X672725Y184992D01*
X672799Y185099D01*
X672856Y185215D01*
X672887Y185268D01*
X672902Y185310D01*
X672936Y185379D01*
X673815Y187501D01*
X676959Y190645D01*
X681067Y192347D01*
X685513Y192347D01*
X689621Y190645D01*
X692765Y187501D01*
X694467Y183393D01*
X694467Y178947D01*
X692765Y174839D01*
X689621Y171695D01*
X685513Y169993D01*
X681067Y169993D01*
X680283Y170318D01*
X680080Y170382D01*
X679879Y170447D01*
X679866Y170449D01*
X679853Y170453D01*
X679642Y170479D01*
X679433Y170508D01*
X679420Y170508D01*
X679407Y170509D01*
X679196Y170499D01*
X678983Y170490D01*
X678970Y170487D01*
X678957Y170486D01*
X678751Y170438D01*
X678544Y170392D01*
X678531Y170387D01*
X678519Y170384D01*
X678324Y170300D01*
X678128Y170219D01*
X678117Y170212D01*
X678105Y170206D01*
X677928Y170089D01*
X677750Y169974D01*
X677738Y169964D01*
X677729Y169958D01*
X677700Y169931D01*
X677516Y169767D01*
X671803Y164055D01*
X671627Y163879D01*
X671543Y163779D01*
X671453Y163686D01*
X671399Y163606D01*
X671338Y163533D01*
X671274Y163420D01*
X671201Y163312D01*
X671162Y163225D01*
X671115Y163142D01*
X671071Y163020D01*
X671018Y162901D01*
X670996Y162808D01*
X670964Y162718D01*
X670943Y162590D01*
X670912Y162463D01*
X670906Y162368D01*
X670890Y162274D01*
X670892Y162144D01*
X670884Y162014D01*
X670895Y161919D01*
X670896Y161824D01*
X670921Y161696D01*
X670936Y161567D01*
X670964Y161475D01*
X670982Y161382D01*
X671029Y161260D01*
X671066Y161136D01*
X671110Y161051D01*
X671144Y160962D01*
X671212Y160850D01*
X671271Y160734D01*
X671328Y160658D01*
X671378Y160577D01*
X671464Y160479D01*
X671543Y160376D01*
X671613Y160311D01*
X671676Y160239D01*
X671778Y160159D01*
X671874Y160070D01*
X671954Y160019D01*
X672029Y159960D01*
X672144Y159899D01*
X672254Y159829D01*
X672342Y159792D01*
X672426Y159747D01*
X672550Y159707D01*
X672670Y159658D01*
X672764Y159638D01*
X672854Y159608D01*
X672983Y159590D01*
X673110Y159563D01*
X673240Y159555D01*
X673300Y159547D01*
X673345Y159548D01*
X673422Y159544D01*
X675296Y159544D01*
X676284Y158555D01*
X676288Y158537D01*
X676322Y158448D01*
X676348Y158356D01*
X676403Y158238D01*
X676450Y158117D01*
X676500Y158035D01*
X676541Y157949D01*
X676617Y157843D01*
X676684Y157732D01*
X676747Y157660D01*
X676803Y157583D01*
X676896Y157492D01*
X676982Y157395D01*
X677057Y157335D01*
X677126Y157269D01*
X677234Y157196D01*
X677336Y157115D01*
X677420Y157070D01*
X677499Y157017D01*
X677618Y156964D01*
X677732Y156903D01*
X677823Y156873D01*
X677911Y156834D01*
X678037Y156804D01*
X678161Y156763D01*
X678255Y156750D01*
X678348Y156728D01*
X678478Y156720D01*
X678607Y156702D01*
X678702Y156706D01*
X678797Y156700D01*
X678927Y156715D01*
X679057Y156720D01*
X679150Y156741D01*
X679245Y156752D01*
X679369Y156790D01*
X679496Y156818D01*
X679584Y156855D01*
X679676Y156882D01*
X679792Y156942D01*
X679912Y156992D01*
X679992Y157044D01*
X680077Y157087D01*
X680181Y157165D01*
X680290Y157236D01*
X680387Y157322D01*
X680410Y157339D01*
X682746Y158307D01*
X685254Y158307D01*
X687572Y157347D01*
X688111Y156808D01*
X688237Y156703D01*
X688358Y156591D01*
X688409Y156559D01*
X688456Y156520D01*
X688599Y156438D01*
X688737Y156350D01*
X688794Y156326D01*
X688847Y156296D01*
X689002Y156241D01*
X689154Y156179D01*
X689214Y156166D01*
X689271Y156145D01*
X689434Y156119D01*
X689594Y156084D01*
X689671Y156079D01*
X689715Y156072D01*
X689777Y156073D01*
X689906Y156065D01*
X691538Y156065D01*
X691572Y156068D01*
X691607Y156066D01*
X691796Y156088D01*
X691986Y156105D01*
X692019Y156114D01*
X692054Y156118D01*
X692237Y156173D01*
X692420Y156223D01*
X692452Y156238D01*
X692485Y156248D01*
X692655Y156335D01*
X692827Y156417D01*
X692855Y156437D01*
X692886Y156452D01*
X693038Y156568D01*
X693193Y156679D01*
X693217Y156704D01*
X693245Y156724D01*
X693374Y156864D01*
X693507Y157001D01*
X693527Y157030D01*
X693550Y157056D01*
X693653Y157217D01*
X693710Y157302D01*
X694970Y158562D01*
X706733Y158562D01*
X707806Y157489D01*
X707833Y157466D01*
X707855Y157441D01*
X708005Y157323D01*
X708151Y157200D01*
X708181Y157183D01*
X708209Y157161D01*
X708376Y157071D01*
X708542Y156976D01*
X708575Y156965D01*
X708605Y156948D01*
X708786Y156890D01*
X708967Y156826D01*
X709001Y156820D01*
X709034Y156809D01*
X709223Y156783D01*
X709411Y156752D01*
X709445Y156753D01*
X709480Y156748D01*
X709671Y156756D01*
X709861Y156758D01*
X709895Y156765D01*
X709930Y156766D01*
X710116Y156808D01*
X710303Y156844D01*
X710335Y156856D01*
X710369Y156864D01*
X710545Y156938D01*
X710723Y157006D01*
X710753Y157024D01*
X710785Y157037D01*
X710945Y157141D01*
X711108Y157240D01*
X711134Y157263D01*
X711163Y157282D01*
X711397Y157489D01*
X712470Y158562D01*
X724233Y158562D01*
X725126Y157668D01*
X725126Y145605D01*
X724233Y144712D01*
X712470Y144712D01*
X711397Y145785D01*
X711370Y145807D01*
X711347Y145833D01*
X711198Y145952D01*
X711052Y146074D01*
X711022Y146091D01*
X710994Y146113D01*
X710826Y146203D01*
X710661Y146297D01*
X710628Y146309D01*
X710597Y146325D01*
X710416Y146384D01*
X710236Y146448D01*
X710202Y146454D01*
X710169Y146465D01*
X709980Y146491D01*
X709792Y146522D01*
X709758Y146521D01*
X709723Y146526D01*
X709533Y146518D01*
X709342Y146516D01*
X709308Y146509D01*
X709273Y146508D01*
X709087Y146466D01*
X708900Y146430D01*
X708868Y146417D01*
X708834Y146410D01*
X708658Y146337D01*
X708480Y146268D01*
X708450Y146250D01*
X708418Y146236D01*
X708258Y146133D01*
X708095Y146034D01*
X708069Y146011D01*
X708040Y145992D01*
X707806Y145785D01*
X706733Y144712D01*
X694970Y144712D01*
X694057Y145625D01*
X694054Y145654D01*
X694037Y145845D01*
X694028Y145878D01*
X694024Y145912D01*
X693968Y146095D01*
X693918Y146279D01*
X693904Y146310D01*
X693893Y146343D01*
X693807Y146514D01*
X693725Y146686D01*
X693705Y146714D01*
X693689Y146745D01*
X693574Y146897D01*
X693463Y147052D01*
X693438Y147076D01*
X693417Y147103D01*
X693277Y147232D01*
X693140Y147366D01*
X693111Y147385D01*
X693086Y147409D01*
X692925Y147511D01*
X692767Y147618D01*
X692735Y147632D01*
X692706Y147650D01*
X692530Y147723D01*
X692355Y147800D01*
X692322Y147808D01*
X692290Y147821D01*
X692103Y147861D01*
X691918Y147907D01*
X691883Y147909D01*
X691849Y147916D01*
X691538Y147935D01*
X689906Y147935D01*
X689742Y147921D01*
X689578Y147914D01*
X689518Y147901D01*
X689458Y147895D01*
X689299Y147852D01*
X689138Y147816D01*
X689082Y147793D01*
X689023Y147777D01*
X688875Y147706D01*
X688723Y147643D01*
X688672Y147610D01*
X688617Y147583D01*
X688483Y147488D01*
X688345Y147398D01*
X688287Y147347D01*
X688251Y147321D01*
X688208Y147278D01*
X688111Y147192D01*
X687572Y146653D01*
X685254Y145693D01*
X682746Y145693D01*
X680399Y146665D01*
X680331Y146731D01*
X680252Y146785D01*
X680179Y146846D01*
X680066Y146910D01*
X679958Y146983D01*
X679871Y147022D01*
X679788Y147069D01*
X679665Y147113D01*
X679546Y147166D01*
X679453Y147188D01*
X679363Y147220D01*
X679235Y147241D01*
X679109Y147272D01*
X679013Y147278D01*
X678919Y147294D01*
X678789Y147292D01*
X678659Y147300D01*
X678564Y147289D01*
X678469Y147288D01*
X678341Y147263D01*
X678212Y147248D01*
X678120Y147220D01*
X678027Y147202D01*
X677906Y147155D01*
X677781Y147118D01*
X677696Y147074D01*
X677607Y147040D01*
X677496Y146972D01*
X677380Y146913D01*
X677304Y146855D01*
X677222Y146806D01*
X677125Y146720D01*
X677021Y146641D01*
X676956Y146571D01*
X676885Y146508D01*
X676804Y146406D01*
X676716Y146310D01*
X676665Y146230D01*
X676605Y146155D01*
X676544Y146040D01*
X676474Y145930D01*
X676438Y145842D01*
X676393Y145758D01*
X676352Y145634D01*
X676303Y145514D01*
X676300Y145498D01*
X675296Y144494D01*
X665922Y144494D01*
X665834Y144554D01*
X665746Y144592D01*
X665663Y144640D01*
X665541Y144683D01*
X665422Y144736D01*
X665329Y144759D01*
X665239Y144791D01*
X665111Y144812D01*
X664984Y144843D01*
X664889Y144848D01*
X664795Y144864D01*
X664665Y144862D01*
X664535Y144870D01*
X664440Y144859D01*
X664345Y144858D01*
X664217Y144833D01*
X664088Y144818D01*
X663996Y144791D01*
X663903Y144772D01*
X663781Y144726D01*
X663657Y144688D01*
X663571Y144645D01*
X663482Y144610D01*
X663371Y144543D01*
X663255Y144484D01*
X663179Y144426D01*
X663098Y144376D01*
X663000Y144290D01*
X662897Y144212D01*
X662832Y144141D01*
X662760Y144078D01*
X662680Y143976D01*
X662591Y143880D01*
X662540Y143800D01*
X662481Y143725D01*
X662420Y143611D01*
X662350Y143501D01*
X662313Y143412D01*
X662268Y143328D01*
X662228Y143204D01*
X662179Y143084D01*
X662159Y142991D01*
X662129Y142900D01*
X662111Y142771D01*
X662084Y142644D01*
X662076Y142514D01*
X662068Y142454D01*
X662069Y142409D01*
X662065Y142332D01*
X662065Y122054D01*
X662079Y121891D01*
X662086Y121726D01*
X662099Y121667D01*
X662105Y121606D01*
X662148Y121447D01*
X662184Y121287D01*
X662207Y121230D01*
X662223Y121172D01*
X662294Y121023D01*
X662357Y120871D01*
X662390Y120820D01*
X662417Y120765D01*
X662459Y120705D01*
X662466Y120693D01*
X662512Y120631D01*
X662602Y120493D01*
X662653Y120435D01*
X662679Y120399D01*
X662716Y120363D01*
X662738Y120334D01*
X662762Y120311D01*
X662808Y120259D01*
X683176Y99891D01*
X683795Y98397D01*
X683795Y68835D01*
X683814Y68623D01*
X683831Y68412D01*
X683834Y68399D01*
X683835Y68386D01*
X683891Y68180D01*
X683945Y67976D01*
X683950Y67964D01*
X683954Y67952D01*
X684044Y67761D01*
X684134Y67568D01*
X684141Y67557D01*
X684147Y67545D01*
X684270Y67373D01*
X684392Y67199D01*
X684401Y67190D01*
X684409Y67179D01*
X684562Y67030D01*
X684711Y66882D01*
X684722Y66874D01*
X684732Y66865D01*
X684908Y66746D01*
X685082Y66626D01*
X685096Y66619D01*
X685105Y66613D01*
X685141Y66597D01*
X685363Y66489D01*
X689161Y64915D01*
X692305Y61771D01*
X694007Y57663D01*
X694007Y53217D01*
X692305Y49109D01*
X689161Y45965D01*
X686711Y44950D01*
X686553Y44867D01*
X686393Y44791D01*
X686354Y44764D01*
X686312Y44741D01*
X686171Y44633D01*
X686027Y44529D01*
X685994Y44495D01*
X685956Y44466D01*
X685837Y44334D01*
X685713Y44207D01*
X685686Y44167D01*
X685654Y44131D01*
X685561Y43981D01*
X685461Y43834D01*
X685442Y43790D01*
X685416Y43749D01*
X685351Y43584D01*
X685279Y43422D01*
X685267Y43375D01*
X685250Y43331D01*
X685214Y43157D01*
X685172Y42984D01*
X685169Y42937D01*
X685160Y42890D01*
X685155Y42712D01*
X685144Y42535D01*
X685150Y42487D01*
X685149Y42440D01*
X685176Y42264D01*
X685196Y42088D01*
X685210Y42042D01*
X685218Y41995D01*
X685275Y41827D01*
X685327Y41657D01*
X685349Y41614D01*
X685364Y41569D01*
X685451Y41414D01*
X685531Y41255D01*
X685560Y41217D01*
X685583Y41176D01*
X685696Y41038D01*
X685803Y40897D01*
X685838Y40864D01*
X685869Y40827D01*
X686004Y40712D01*
X686134Y40591D01*
X686175Y40566D01*
X686211Y40535D01*
X686364Y40445D01*
X686514Y40350D01*
X686558Y40331D01*
X686600Y40307D01*
X686766Y40246D01*
X686931Y40179D01*
X686977Y40169D01*
X687022Y40152D01*
X687197Y40121D01*
X687371Y40084D01*
X687430Y40080D01*
X687466Y40074D01*
X687529Y40074D01*
X687683Y40065D01*
X720796Y40065D01*
X720831Y40068D01*
X720865Y40066D01*
X721055Y40088D01*
X721245Y40105D01*
X721278Y40114D01*
X721312Y40118D01*
X721495Y40173D01*
X721679Y40223D01*
X721710Y40238D01*
X721743Y40248D01*
X721914Y40335D01*
X722086Y40417D01*
X722114Y40437D01*
X722145Y40452D01*
X722297Y40568D01*
X722452Y40679D01*
X722476Y40704D01*
X722503Y40724D01*
X722633Y40864D01*
X722766Y41001D01*
X722785Y41030D01*
X722809Y41056D01*
X722911Y41217D01*
X723018Y41374D01*
X723032Y41406D01*
X723050Y41435D01*
X723123Y41611D01*
X723200Y41786D01*
X723208Y41820D01*
X723221Y41852D01*
X723262Y42039D01*
X723307Y42224D01*
X723309Y42258D01*
X723316Y42292D01*
X723335Y42604D01*
X723335Y59619D01*
X723321Y59783D01*
X723314Y59948D01*
X723301Y60007D01*
X723295Y60068D01*
X723252Y60226D01*
X723217Y60387D01*
X723193Y60443D01*
X723177Y60502D01*
X723107Y60650D01*
X723043Y60803D01*
X723010Y60854D01*
X722984Y60909D01*
X722888Y61042D01*
X722799Y61181D01*
X722748Y61239D01*
X722721Y61275D01*
X722678Y61318D01*
X722592Y61415D01*
X720797Y63209D01*
X720770Y63232D01*
X720748Y63258D01*
X720599Y63375D01*
X720452Y63498D01*
X720422Y63516D01*
X720395Y63537D01*
X720227Y63627D01*
X720061Y63722D01*
X720028Y63733D01*
X719998Y63750D01*
X719816Y63809D01*
X719637Y63873D01*
X719602Y63878D01*
X719569Y63889D01*
X719381Y63915D01*
X719192Y63946D01*
X719158Y63946D01*
X719123Y63950D01*
X718933Y63942D01*
X718742Y63940D01*
X718708Y63933D01*
X718674Y63932D01*
X718488Y63891D01*
X718300Y63854D01*
X718268Y63842D01*
X718234Y63834D01*
X718058Y63761D01*
X717880Y63692D01*
X717851Y63674D01*
X717818Y63661D01*
X717658Y63557D01*
X717495Y63458D01*
X717469Y63435D01*
X717440Y63416D01*
X717206Y63209D01*
X716133Y62137D01*
X704370Y62137D01*
X703477Y63030D01*
X703477Y75093D01*
X704370Y75986D01*
X705150Y75986D01*
X705327Y76002D01*
X705505Y76011D01*
X705551Y76022D01*
X705599Y76026D01*
X705770Y76073D01*
X705943Y76113D01*
X705987Y76132D01*
X706033Y76144D01*
X706194Y76221D01*
X706357Y76291D01*
X706397Y76317D01*
X706440Y76338D01*
X706584Y76441D01*
X706733Y76539D01*
X706767Y76572D01*
X706806Y76600D01*
X706930Y76727D01*
X707058Y76850D01*
X707087Y76888D01*
X707120Y76923D01*
X707219Y77070D01*
X707324Y77213D01*
X707345Y77256D01*
X707372Y77296D01*
X707444Y77458D01*
X707522Y77618D01*
X707535Y77664D01*
X707554Y77707D01*
X707596Y77880D01*
X707645Y78051D01*
X707650Y78098D01*
X707661Y78145D01*
X707672Y78322D01*
X707690Y78499D01*
X707686Y78547D01*
X707689Y78594D01*
X707668Y78771D01*
X707654Y78948D01*
X707642Y78994D01*
X707637Y79042D01*
X707585Y79212D01*
X707540Y79383D01*
X707520Y79427D01*
X707506Y79473D01*
X707426Y79631D01*
X707351Y79792D01*
X707324Y79831D01*
X707302Y79874D01*
X707195Y80015D01*
X707093Y80161D01*
X707059Y80194D01*
X707030Y80233D01*
X706899Y80353D01*
X706773Y80478D01*
X706734Y80505D01*
X706699Y80538D01*
X706549Y80633D01*
X706403Y80734D01*
X706350Y80760D01*
X706319Y80780D01*
X706261Y80804D01*
X706122Y80871D01*
X698589Y83991D01*
X692963Y89618D01*
X689918Y96969D01*
X689918Y104926D01*
X692963Y112277D01*
X698589Y117903D01*
X705941Y120948D01*
X713897Y120948D01*
X721248Y117903D01*
X726875Y112277D01*
X729920Y104926D01*
X729920Y96969D01*
X726875Y89618D01*
X721248Y83991D01*
X713716Y80871D01*
X713558Y80789D01*
X713398Y80713D01*
X713359Y80685D01*
X713317Y80663D01*
X713176Y80554D01*
X713032Y80451D01*
X712998Y80416D01*
X712961Y80387D01*
X712842Y80255D01*
X712718Y80128D01*
X712691Y80088D01*
X712659Y80053D01*
X712565Y79902D01*
X712466Y79755D01*
X712446Y79711D01*
X712421Y79670D01*
X712355Y79506D01*
X712283Y79343D01*
X712272Y79297D01*
X712254Y79252D01*
X712219Y79078D01*
X712177Y78906D01*
X712174Y78858D01*
X712164Y78811D01*
X712160Y78633D01*
X712149Y78456D01*
X712155Y78409D01*
X712154Y78361D01*
X712181Y78185D01*
X712201Y78009D01*
X712215Y77963D01*
X712222Y77916D01*
X712280Y77748D01*
X712332Y77578D01*
X712353Y77535D01*
X712369Y77490D01*
X712455Y77335D01*
X712536Y77177D01*
X712565Y77139D01*
X712588Y77097D01*
X712701Y76959D01*
X712808Y76818D01*
X712843Y76785D01*
X712873Y76748D01*
X713008Y76633D01*
X713139Y76513D01*
X713179Y76487D01*
X713216Y76456D01*
X713369Y76366D01*
X713519Y76271D01*
X713563Y76253D01*
X713604Y76229D01*
X713771Y76167D01*
X713935Y76100D01*
X713982Y76090D01*
X714027Y76073D01*
X714202Y76043D01*
X714376Y76005D01*
X714435Y76002D01*
X714470Y75995D01*
X714533Y75995D01*
X714687Y75986D01*
X716133Y75986D01*
X717206Y74913D01*
X717233Y74891D01*
X717256Y74865D01*
X717405Y74747D01*
X717551Y74624D01*
X717582Y74607D01*
X717609Y74585D01*
X717777Y74495D01*
X717942Y74401D01*
X717975Y74389D01*
X718006Y74373D01*
X718187Y74314D01*
X718367Y74250D01*
X718401Y74244D01*
X718434Y74234D01*
X718623Y74208D01*
X718811Y74176D01*
X718846Y74177D01*
X718880Y74172D01*
X719070Y74180D01*
X719261Y74183D01*
X719295Y74189D01*
X719330Y74191D01*
X719516Y74232D01*
X719703Y74268D01*
X719736Y74281D01*
X719769Y74288D01*
X719945Y74362D01*
X720123Y74430D01*
X720153Y74449D01*
X720185Y74462D01*
X720345Y74565D01*
X720508Y74664D01*
X720534Y74687D01*
X720563Y74706D01*
X720797Y74913D01*
X721870Y75986D01*
X733633Y75986D01*
X734526Y75093D01*
X734526Y63030D01*
X733597Y62100D01*
X733556Y62097D01*
X733522Y62087D01*
X733488Y62083D01*
X733305Y62028D01*
X733121Y61978D01*
X733090Y61963D01*
X733057Y61953D01*
X732886Y61866D01*
X732715Y61785D01*
X732687Y61765D01*
X732656Y61749D01*
X732504Y61634D01*
X732349Y61523D01*
X732324Y61498D01*
X732297Y61477D01*
X732168Y61337D01*
X732034Y61200D01*
X732015Y61171D01*
X731992Y61146D01*
X731889Y60985D01*
X731782Y60827D01*
X731768Y60795D01*
X731750Y60766D01*
X731677Y60589D01*
X731600Y60415D01*
X731592Y60381D01*
X731579Y60349D01*
X731539Y60162D01*
X731494Y59978D01*
X731491Y59943D01*
X731484Y59909D01*
X731465Y59597D01*
X731465Y42604D01*
X731468Y42569D01*
X731466Y42535D01*
X731488Y42346D01*
X731505Y42155D01*
X731514Y42122D01*
X731518Y42088D01*
X731573Y41905D01*
X731623Y41721D01*
X731638Y41690D01*
X731648Y41657D01*
X731735Y41486D01*
X731817Y41314D01*
X731837Y41286D01*
X731853Y41255D01*
X731968Y41103D01*
X732079Y40948D01*
X732104Y40924D01*
X732125Y40897D01*
X732265Y40768D01*
X732401Y40634D01*
X732430Y40615D01*
X732456Y40591D01*
X732617Y40489D01*
X732775Y40382D01*
X732806Y40368D01*
X732835Y40350D01*
X733012Y40277D01*
X733186Y40200D01*
X733220Y40192D01*
X733252Y40179D01*
X733439Y40139D01*
X733624Y40093D01*
X733658Y40091D01*
X733692Y40084D01*
X734004Y40065D01*
X752561Y40065D01*
X752739Y40080D01*
X752916Y40090D01*
X752962Y40100D01*
X753010Y40105D01*
X753181Y40151D01*
X753354Y40192D01*
X753398Y40211D01*
X753444Y40223D01*
X753604Y40299D01*
X753768Y40370D01*
X753808Y40396D01*
X753851Y40417D01*
X753995Y40520D01*
X754144Y40618D01*
X754178Y40651D01*
X754217Y40679D01*
X754341Y40806D01*
X754470Y40929D01*
X754498Y40967D01*
X754531Y41001D01*
X754631Y41149D01*
X754735Y41292D01*
X754756Y41335D01*
X754783Y41374D01*
X754855Y41537D01*
X754933Y41696D01*
X754946Y41742D01*
X754965Y41786D01*
X755008Y41959D01*
X755056Y42130D01*
X755061Y42177D01*
X755072Y42224D01*
X755083Y42401D01*
X755101Y42578D01*
X755097Y42625D01*
X755100Y42673D01*
X755079Y42850D01*
X755065Y43027D01*
X755053Y43073D01*
X755048Y43120D01*
X754996Y43291D01*
X754951Y43462D01*
X754931Y43505D01*
X754917Y43551D01*
X754837Y43710D01*
X754762Y43871D01*
X754735Y43910D01*
X754713Y43953D01*
X754606Y44094D01*
X754504Y44240D01*
X754470Y44273D01*
X754441Y44311D01*
X754311Y44432D01*
X754184Y44557D01*
X754145Y44584D01*
X754110Y44616D01*
X753960Y44712D01*
X753814Y44813D01*
X753761Y44839D01*
X753730Y44858D01*
X753672Y44882D01*
X753533Y44950D01*
X751059Y45975D01*
X747915Y49119D01*
X746213Y53227D01*
X746213Y57673D01*
X747915Y61781D01*
X751059Y64925D01*
X752618Y65571D01*
X752763Y65647D01*
X752913Y65716D01*
X752963Y65751D01*
X753017Y65779D01*
X753147Y65880D01*
X753281Y65974D01*
X753324Y66018D01*
X753373Y66055D01*
X753483Y66177D01*
X753599Y66294D01*
X753633Y66344D01*
X753674Y66389D01*
X753761Y66529D01*
X753855Y66664D01*
X753889Y66734D01*
X753912Y66772D01*
X753935Y66828D01*
X753992Y66945D01*
X754554Y68302D01*
X756054Y69803D01*
X756055Y69803D01*
X771896Y85644D01*
X772002Y85771D01*
X772113Y85891D01*
X772146Y85943D01*
X772185Y85990D01*
X772266Y86132D01*
X772355Y86271D01*
X772378Y86328D01*
X772408Y86381D01*
X772463Y86535D01*
X772526Y86688D01*
X772539Y86747D01*
X772559Y86805D01*
X772586Y86967D01*
X772620Y87128D01*
X772625Y87205D01*
X772632Y87249D01*
X772632Y87310D01*
X772640Y87440D01*
X772640Y95651D01*
X773533Y96544D01*
X782578Y96544D01*
X782707Y96555D01*
X782837Y96557D01*
X782931Y96575D01*
X783026Y96584D01*
X783152Y96618D01*
X783279Y96643D01*
X783368Y96677D01*
X783461Y96702D01*
X783578Y96758D01*
X783699Y96805D01*
X783781Y96855D01*
X783867Y96896D01*
X783973Y96971D01*
X784084Y97039D01*
X784156Y97102D01*
X784233Y97158D01*
X784324Y97251D01*
X784421Y97337D01*
X784480Y97412D01*
X784547Y97480D01*
X784620Y97588D01*
X784701Y97690D01*
X784746Y97774D01*
X784799Y97853D01*
X784852Y97972D01*
X784913Y98087D01*
X784943Y98178D01*
X784982Y98265D01*
X785012Y98392D01*
X785053Y98515D01*
X785066Y98610D01*
X785088Y98703D01*
X785096Y98832D01*
X785114Y98961D01*
X785110Y99057D01*
X785116Y99152D01*
X785101Y99281D01*
X785096Y99411D01*
X785075Y99504D01*
X785064Y99599D01*
X785026Y99724D01*
X784998Y99851D01*
X784961Y99939D01*
X784934Y100030D01*
X784875Y100146D01*
X784824Y100266D01*
X784772Y100347D01*
X784729Y100431D01*
X784651Y100535D01*
X784580Y100644D01*
X784494Y100742D01*
X784457Y100790D01*
X784424Y100821D01*
X784373Y100878D01*
X767055Y118197D01*
X765554Y119698D01*
X764935Y121191D01*
X764935Y162809D01*
X765554Y164302D01*
X773256Y172005D01*
X773393Y172168D01*
X773530Y172328D01*
X773537Y172340D01*
X773545Y172350D01*
X773651Y172535D01*
X773757Y172717D01*
X773762Y172729D01*
X773769Y172741D01*
X773839Y172940D01*
X773913Y173140D01*
X773915Y173153D01*
X773919Y173165D01*
X773954Y173373D01*
X773991Y173583D01*
X773991Y173597D01*
X773993Y173609D01*
X773990Y173822D01*
X773989Y174033D01*
X773987Y174046D01*
X773987Y174060D01*
X773946Y174268D01*
X773908Y174476D01*
X773903Y174491D01*
X773901Y174502D01*
X773887Y174538D01*
X773807Y174772D01*
X772896Y176971D01*
X772836Y177086D01*
X772784Y177205D01*
X772732Y177285D01*
X772687Y177370D01*
X772608Y177473D01*
X772536Y177581D01*
X772470Y177650D01*
X772412Y177726D01*
X772315Y177813D01*
X772225Y177907D01*
X772148Y177963D01*
X772077Y178027D01*
X771967Y178096D01*
X771862Y178173D01*
X771776Y178215D01*
X771695Y178265D01*
X771574Y178313D01*
X771458Y178370D01*
X771366Y178397D01*
X771277Y178432D01*
X771149Y178458D01*
X771024Y178493D01*
X770929Y178503D01*
X770836Y178522D01*
X770706Y178525D01*
X770576Y178538D01*
X770481Y178531D01*
X770386Y178533D01*
X770257Y178513D01*
X770127Y178503D01*
X770035Y178479D01*
X769941Y178464D01*
X769818Y178422D01*
X769692Y178389D01*
X769605Y178349D01*
X769515Y178318D01*
X769401Y178254D01*
X769283Y178200D01*
X769205Y178145D01*
X769122Y178098D01*
X769021Y178016D01*
X768914Y177941D01*
X768847Y177873D01*
X768773Y177813D01*
X768689Y177714D01*
X768597Y177622D01*
X768543Y177543D01*
X768481Y177471D01*
X768415Y177358D01*
X768341Y177251D01*
X768284Y177135D01*
X768253Y177082D01*
X768238Y177040D01*
X768204Y176971D01*
X767325Y174849D01*
X764181Y171705D01*
X760073Y170003D01*
X755627Y170003D01*
X751519Y171705D01*
X748375Y174849D01*
X746673Y178957D01*
X746673Y183403D01*
X748375Y187511D01*
X751519Y190655D01*
X755627Y192357D01*
X760073Y192357D01*
X764181Y190655D01*
X767325Y187511D01*
X768204Y185389D01*
X768264Y185274D01*
X768316Y185155D01*
X768368Y185075D01*
X768413Y184990D01*
X768492Y184887D01*
X768564Y184779D01*
X768630Y184710D01*
X768688Y184634D01*
X768785Y184547D01*
X768874Y184453D01*
X768952Y184397D01*
X769023Y184333D01*
X769133Y184264D01*
X769238Y184187D01*
X769324Y184145D01*
X769405Y184095D01*
X769525Y184047D01*
X769642Y183990D01*
X769734Y183963D01*
X769823Y183928D01*
X769950Y183902D01*
X770076Y183867D01*
X770171Y183857D01*
X770264Y183838D01*
X770394Y183835D01*
X770524Y183822D01*
X770619Y183829D01*
X770714Y183827D01*
X770843Y183847D01*
X770973Y183857D01*
X771065Y183881D01*
X771159Y183896D01*
X771282Y183938D01*
X771408Y183971D01*
X771495Y184011D01*
X771585Y184042D01*
X771699Y184106D01*
X771817Y184160D01*
X771895Y184215D01*
X771978Y184262D01*
X772079Y184344D01*
X772186Y184419D01*
X772253Y184486D01*
X772327Y184547D01*
X772411Y184646D01*
X772503Y184738D01*
X772557Y184817D01*
X772619Y184889D01*
X772685Y185002D01*
X772759Y185109D01*
X772816Y185225D01*
X772847Y185278D01*
X772862Y185320D01*
X772896Y185389D01*
X773775Y187511D01*
X776919Y190655D01*
X781027Y192357D01*
X785473Y192357D01*
X789581Y190655D01*
X792725Y187511D01*
X794427Y183403D01*
X794427Y178957D01*
X792725Y174849D01*
X789581Y171705D01*
X785473Y170003D01*
X783803Y170003D01*
X783640Y169989D01*
X783475Y169982D01*
X783416Y169969D01*
X783355Y169963D01*
X783196Y169920D01*
X783036Y169884D01*
X782979Y169861D01*
X782921Y169845D01*
X782772Y169774D01*
X782620Y169711D01*
X782569Y169678D01*
X782514Y169651D01*
X782380Y169556D01*
X782242Y169466D01*
X782184Y169415D01*
X782148Y169389D01*
X782105Y169346D01*
X782008Y169260D01*
X776627Y163878D01*
X776543Y163779D01*
X776453Y163686D01*
X776399Y163606D01*
X776338Y163533D01*
X776273Y163420D01*
X776201Y163312D01*
X776162Y163225D01*
X776115Y163142D01*
X776071Y163020D01*
X776018Y162901D01*
X775996Y162808D01*
X775964Y162718D01*
X775943Y162589D01*
X775912Y162463D01*
X775906Y162368D01*
X775890Y162274D01*
X775892Y162143D01*
X775884Y162014D01*
X775895Y161919D01*
X775896Y161823D01*
X775921Y161696D01*
X775936Y161567D01*
X775964Y161475D01*
X775982Y161381D01*
X776029Y161260D01*
X776066Y161136D01*
X776110Y161050D01*
X776144Y160961D01*
X776212Y160850D01*
X776271Y160734D01*
X776328Y160658D01*
X776378Y160577D01*
X776464Y160479D01*
X776543Y160376D01*
X776613Y160311D01*
X776676Y160239D01*
X776778Y160159D01*
X776874Y160070D01*
X776955Y160019D01*
X777029Y159960D01*
X777144Y159899D01*
X777254Y159829D01*
X777342Y159792D01*
X777426Y159747D01*
X777550Y159707D01*
X777670Y159658D01*
X777764Y159638D01*
X777855Y159608D01*
X777983Y159590D01*
X778110Y159563D01*
X778240Y159555D01*
X778301Y159547D01*
X778345Y159548D01*
X778422Y159544D01*
X782796Y159544D01*
X783689Y158651D01*
X783689Y157604D01*
X783692Y157569D01*
X783690Y157535D01*
X783712Y157346D01*
X783729Y157155D01*
X783738Y157122D01*
X783742Y157088D01*
X783797Y156905D01*
X783848Y156721D01*
X783862Y156690D01*
X783872Y156657D01*
X783959Y156486D01*
X784041Y156314D01*
X784061Y156286D01*
X784077Y156255D01*
X784192Y156103D01*
X784303Y155948D01*
X784328Y155924D01*
X784349Y155897D01*
X784489Y155768D01*
X784626Y155634D01*
X784654Y155615D01*
X784680Y155591D01*
X784841Y155489D01*
X784999Y155382D01*
X785030Y155368D01*
X785060Y155350D01*
X785236Y155277D01*
X785411Y155200D01*
X785444Y155192D01*
X785476Y155179D01*
X785663Y155139D01*
X785848Y155093D01*
X785882Y155091D01*
X785916Y155084D01*
X786228Y155065D01*
X795809Y155065D01*
X797302Y154446D01*
X812446Y139302D01*
X813065Y137809D01*
X813065Y50191D01*
X812446Y48698D01*
X810946Y47197D01*
X810945Y47197D01*
X796302Y32554D01*
X794809Y31935D01*
X630191Y31935D01*
X628698Y32554D01*
X608554Y52698D01*
X607935Y54191D01*
X607935Y131265D01*
X607921Y131428D01*
X607914Y131593D01*
X607901Y131652D01*
X607895Y131713D01*
X607852Y131872D01*
X607816Y132032D01*
X607793Y132089D01*
X607777Y132147D01*
X607706Y132296D01*
X607643Y132448D01*
X607610Y132499D01*
X607583Y132554D01*
X607488Y132688D01*
X607398Y132826D01*
X607347Y132884D01*
X607321Y132920D01*
X607278Y132963D01*
X607192Y133060D01*
X601060Y139192D01*
X600934Y139297D01*
X600813Y139409D01*
X600762Y139441D01*
X600715Y139480D01*
X600572Y139562D01*
X600433Y139650D01*
X600377Y139674D01*
X600324Y139704D01*
X600169Y139759D01*
X600017Y139821D01*
X599957Y139834D01*
X599899Y139855D01*
X599737Y139881D01*
X599576Y139916D01*
X599500Y139921D01*
X599455Y139928D01*
X599394Y139927D01*
X599265Y139935D01*
X557544Y139935D01*
X557509Y139932D01*
X557475Y139934D01*
X557286Y139912D01*
X557095Y139895D01*
X557062Y139886D01*
X557028Y139882D01*
X556845Y139827D01*
X556661Y139777D01*
X556630Y139762D01*
X556597Y139752D01*
X556426Y139665D01*
X556254Y139583D01*
X556226Y139563D01*
X556195Y139548D01*
X556043Y139432D01*
X555888Y139321D01*
X555864Y139296D01*
X555837Y139276D01*
X555708Y139136D01*
X555574Y138999D01*
X555555Y138970D01*
X555531Y138944D01*
X555429Y138783D01*
X555322Y138626D01*
X555308Y138594D01*
X555290Y138565D01*
X555217Y138388D01*
X555140Y138214D01*
X555132Y138180D01*
X555119Y138148D01*
X555079Y137961D01*
X555033Y137776D01*
X555031Y137742D01*
X555024Y137708D01*
X555005Y137396D01*
X555005Y137368D01*
X553432Y135796D01*
X553410Y135769D01*
X553384Y135746D01*
X553265Y135597D01*
X553143Y135450D01*
X553126Y135420D01*
X553104Y135393D01*
X553014Y135225D01*
X552920Y135059D01*
X552908Y135027D01*
X552892Y134996D01*
X552833Y134815D01*
X552769Y134635D01*
X552763Y134601D01*
X552752Y134568D01*
X552726Y134379D01*
X552695Y134191D01*
X552696Y134156D01*
X552691Y134122D01*
X552699Y133931D01*
X552701Y133740D01*
X552708Y133706D01*
X552709Y133672D01*
X552751Y133486D01*
X552787Y133298D01*
X552799Y133266D01*
X552807Y133232D01*
X552880Y133057D01*
X552949Y132878D01*
X552967Y132849D01*
X552981Y132817D01*
X553084Y132657D01*
X553183Y132494D01*
X553206Y132468D01*
X553225Y132439D01*
X553432Y132204D01*
X555005Y130632D01*
X555005Y117368D01*
X553432Y115796D01*
X553410Y115769D01*
X553384Y115746D01*
X553265Y115597D01*
X553143Y115450D01*
X553126Y115420D01*
X553104Y115393D01*
X553014Y115225D01*
X552920Y115059D01*
X552908Y115027D01*
X552892Y114996D01*
X552833Y114815D01*
X552769Y114635D01*
X552763Y114601D01*
X552752Y114568D01*
X552726Y114379D01*
X552695Y114191D01*
X552696Y114156D01*
X552691Y114122D01*
X552699Y113931D01*
X552701Y113740D01*
X552708Y113706D01*
X552709Y113672D01*
X552751Y113486D01*
X552787Y113298D01*
X552799Y113266D01*
X552807Y113232D01*
X552880Y113057D01*
X552949Y112878D01*
X552967Y112849D01*
X552981Y112817D01*
X553084Y112657D01*
X553183Y112494D01*
X553206Y112468D01*
X553225Y112439D01*
X553432Y112204D01*
X555005Y110632D01*
X555005Y97368D01*
X553432Y95796D01*
X553410Y95769D01*
X553384Y95746D01*
X553265Y95597D01*
X553143Y95450D01*
X553126Y95420D01*
X553104Y95393D01*
X553014Y95225D01*
X552920Y95059D01*
X552908Y95027D01*
X552892Y94996D01*
X552833Y94815D01*
X552769Y94635D01*
X552763Y94601D01*
X552752Y94568D01*
X552726Y94379D01*
X552695Y94191D01*
X552696Y94156D01*
X552691Y94122D01*
X552699Y93931D01*
X552701Y93740D01*
X552708Y93706D01*
X552709Y93672D01*
X552751Y93486D01*
X552787Y93298D01*
X552799Y93266D01*
X552807Y93232D01*
X552880Y93057D01*
X552949Y92878D01*
X552967Y92849D01*
X552981Y92817D01*
X553084Y92657D01*
X553183Y92494D01*
X553206Y92468D01*
X553225Y92439D01*
X553432Y92204D01*
X555005Y90632D01*
X555005Y90604D01*
X555008Y90569D01*
X555006Y90535D01*
X555028Y90346D01*
X555045Y90155D01*
X555054Y90122D01*
X555058Y90088D01*
X555113Y89905D01*
X555163Y89721D01*
X555178Y89690D01*
X555188Y89657D01*
X555275Y89486D01*
X555357Y89314D01*
X555377Y89286D01*
X555392Y89255D01*
X555508Y89103D01*
X555619Y88948D01*
X555644Y88924D01*
X555664Y88897D01*
X555804Y88768D01*
X555941Y88634D01*
X555970Y88615D01*
X555996Y88591D01*
X556157Y88489D01*
X556314Y88382D01*
X556346Y88368D01*
X556375Y88350D01*
X556552Y88277D01*
X556726Y88200D01*
X556760Y88192D01*
X556792Y88179D01*
X556979Y88139D01*
X557164Y88093D01*
X557198Y88091D01*
X557232Y88084D01*
X557544Y88065D01*
X560265Y88065D01*
X560428Y88079D01*
X560593Y88086D01*
X560652Y88099D01*
X560713Y88105D01*
X560872Y88148D01*
X561032Y88184D01*
X561089Y88207D01*
X561147Y88223D01*
X561296Y88294D01*
X561448Y88357D01*
X561499Y88390D01*
X561554Y88417D01*
X561688Y88512D01*
X561826Y88602D01*
X561884Y88653D01*
X561920Y88679D01*
X561963Y88722D01*
X562060Y88808D01*
X568919Y95667D01*
X568941Y95694D01*
X568967Y95717D01*
X569085Y95866D01*
X569208Y96013D01*
X569225Y96043D01*
X569246Y96070D01*
X569337Y96238D01*
X569431Y96404D01*
X569443Y96436D01*
X569459Y96467D01*
X569518Y96648D01*
X569582Y96828D01*
X569588Y96862D01*
X569598Y96895D01*
X569624Y97083D01*
X569655Y97272D01*
X569655Y97307D01*
X569660Y97341D01*
X569652Y97531D01*
X569649Y97722D01*
X569643Y97756D01*
X569641Y97791D01*
X569600Y97977D01*
X569564Y98164D01*
X569551Y98197D01*
X569544Y98231D01*
X569470Y98406D01*
X569401Y98584D01*
X569383Y98614D01*
X569370Y98646D01*
X569267Y98805D01*
X569168Y98969D01*
X569145Y98995D01*
X569126Y99024D01*
X568919Y99258D01*
X567621Y100556D01*
X567621Y112319D01*
X568694Y113392D01*
X568716Y113419D01*
X568742Y113442D01*
X568860Y113591D01*
X568983Y113738D01*
X569000Y113768D01*
X569021Y113795D01*
X569111Y113963D01*
X569206Y114129D01*
X569218Y114161D01*
X569234Y114192D01*
X569293Y114373D01*
X569357Y114553D01*
X569362Y114587D01*
X569373Y114620D01*
X569399Y114809D01*
X569430Y114997D01*
X569430Y115032D01*
X569435Y115066D01*
X569427Y115257D01*
X569424Y115447D01*
X569418Y115482D01*
X569416Y115516D01*
X569375Y115702D01*
X569339Y115890D01*
X569326Y115922D01*
X569319Y115956D01*
X569245Y116131D01*
X569176Y116310D01*
X569158Y116339D01*
X569145Y116371D01*
X569042Y116531D01*
X568942Y116694D01*
X568920Y116720D01*
X568901Y116749D01*
X568694Y116983D01*
X567621Y118056D01*
X567621Y129819D01*
X568514Y130713D01*
X580577Y130713D01*
X581470Y129819D01*
X581470Y118056D01*
X580397Y116983D01*
X580375Y116957D01*
X580349Y116934D01*
X580231Y116785D01*
X580108Y116638D01*
X580091Y116608D01*
X580070Y116581D01*
X579980Y116413D01*
X579885Y116247D01*
X579873Y116215D01*
X579857Y116184D01*
X579798Y116002D01*
X579734Y115823D01*
X579729Y115789D01*
X579718Y115756D01*
X579692Y115567D01*
X579661Y115379D01*
X579661Y115344D01*
X579657Y115310D01*
X579664Y115119D01*
X579667Y114928D01*
X579673Y114894D01*
X579675Y114860D01*
X579716Y114674D01*
X579752Y114486D01*
X579765Y114454D01*
X579772Y114420D01*
X579846Y114244D01*
X579915Y114066D01*
X579933Y114037D01*
X579946Y114005D01*
X580050Y113844D01*
X580149Y113682D01*
X580172Y113656D01*
X580190Y113627D01*
X580397Y113392D01*
X581470Y112319D01*
X581470Y100556D01*
X580000Y99086D01*
X579948Y99049D01*
X579924Y99024D01*
X579897Y99004D01*
X579768Y98863D01*
X579634Y98727D01*
X579615Y98698D01*
X579591Y98672D01*
X579489Y98511D01*
X579382Y98353D01*
X579368Y98322D01*
X579350Y98293D01*
X579277Y98116D01*
X579200Y97942D01*
X579192Y97908D01*
X579179Y97876D01*
X579139Y97689D01*
X579093Y97504D01*
X579091Y97470D01*
X579084Y97436D01*
X579065Y97124D01*
X579065Y95191D01*
X578446Y93698D01*
X565302Y80554D01*
X563809Y79935D01*
X557544Y79935D01*
X557509Y79932D01*
X557475Y79934D01*
X557286Y79912D01*
X557095Y79895D01*
X557062Y79886D01*
X557028Y79882D01*
X556845Y79827D01*
X556661Y79777D01*
X556630Y79762D01*
X556597Y79752D01*
X556426Y79665D01*
X556254Y79583D01*
X556226Y79563D01*
X556195Y79548D01*
X556043Y79432D01*
X555888Y79321D01*
X555864Y79296D01*
X555837Y79276D01*
X555708Y79136D01*
X555574Y78999D01*
X555555Y78970D01*
X555531Y78944D01*
X555429Y78783D01*
X555322Y78626D01*
X555308Y78594D01*
X555290Y78565D01*
X555217Y78388D01*
X555140Y78214D01*
X555132Y78180D01*
X555119Y78148D01*
X555079Y77961D01*
X555033Y77776D01*
X555031Y77742D01*
X555024Y77708D01*
X555005Y77396D01*
X555005Y77368D01*
X553432Y75796D01*
X553410Y75769D01*
X553384Y75746D01*
X553265Y75597D01*
X553143Y75450D01*
X553126Y75420D01*
X553104Y75393D01*
X553014Y75225D01*
X552920Y75059D01*
X552908Y75027D01*
X552892Y74996D01*
X552833Y74815D01*
X552769Y74635D01*
X552763Y74601D01*
X552752Y74568D01*
X552726Y74379D01*
X552695Y74191D01*
X552696Y74156D01*
X552691Y74122D01*
X552699Y73931D01*
X552701Y73740D01*
X552708Y73706D01*
X552709Y73672D01*
X552751Y73486D01*
X552787Y73298D01*
X552799Y73266D01*
X552807Y73232D01*
X552880Y73057D01*
X552949Y72878D01*
X552967Y72849D01*
X552981Y72817D01*
X553084Y72657D01*
X553183Y72494D01*
X553206Y72468D01*
X553225Y72439D01*
X553432Y72204D01*
X555005Y70632D01*
X555005Y62146D01*
X555020Y61969D01*
X555030Y61791D01*
X555040Y61745D01*
X555045Y61697D01*
X555091Y61526D01*
X555132Y61353D01*
X555151Y61309D01*
X555163Y61263D01*
X555239Y61103D01*
X555310Y60939D01*
X555336Y60899D01*
X555357Y60856D01*
X555460Y60712D01*
X555558Y60564D01*
X555591Y60529D01*
X555619Y60490D01*
X555746Y60366D01*
X555868Y60238D01*
X555907Y60209D01*
X555941Y60176D01*
X556089Y60077D01*
X556232Y59972D01*
X556275Y59951D01*
X556314Y59924D01*
X556477Y59852D01*
X556636Y59774D01*
X556682Y59761D01*
X556726Y59742D01*
X556899Y59700D01*
X557070Y59651D01*
X557117Y59646D01*
X557164Y59635D01*
X557341Y59624D01*
X557518Y59607D01*
X557565Y59610D01*
X557613Y59607D01*
X557790Y59628D01*
X557967Y59642D01*
X558013Y59654D01*
X558060Y59659D01*
X558231Y59711D01*
X558402Y59756D01*
X558445Y59776D01*
X558491Y59790D01*
X558650Y59870D01*
X558811Y59945D01*
X558850Y59972D01*
X558893Y59994D01*
X559034Y60101D01*
X559180Y60203D01*
X559213Y60237D01*
X559251Y60266D01*
X559372Y60397D01*
X559497Y60523D01*
X559524Y60562D01*
X559556Y60597D01*
X559652Y60747D01*
X559753Y60893D01*
X559779Y60946D01*
X559798Y60977D01*
X559822Y61035D01*
X559890Y61174D01*
X562935Y68527D01*
X568562Y74153D01*
X575913Y77198D01*
X583870Y77198D01*
X591221Y74153D01*
X596847Y68527D01*
X599892Y61175D01*
X599892Y53219D01*
X596847Y45868D01*
X591221Y40241D01*
X583870Y37196D01*
X575913Y37196D01*
X568562Y40241D01*
X562935Y45868D01*
X559891Y53219D01*
X559891Y56124D01*
X559879Y56254D01*
X559877Y56384D01*
X559859Y56477D01*
X559851Y56572D01*
X559816Y56698D01*
X559792Y56826D01*
X559757Y56915D01*
X559732Y57007D01*
X559676Y57124D01*
X559629Y57246D01*
X559580Y57327D01*
X559539Y57413D01*
X559463Y57519D01*
X559395Y57630D01*
X559332Y57702D01*
X559277Y57780D01*
X559183Y57870D01*
X559097Y57968D01*
X559022Y58027D01*
X558954Y58094D01*
X558846Y58166D01*
X558744Y58247D01*
X558660Y58292D01*
X558581Y58346D01*
X558462Y58398D01*
X558347Y58460D01*
X558257Y58489D01*
X558169Y58528D01*
X558043Y58559D01*
X557919Y58599D01*
X557824Y58612D01*
X557732Y58635D01*
X557602Y58643D01*
X557473Y58660D01*
X557377Y58656D01*
X557282Y58662D01*
X557153Y58647D01*
X557023Y58642D01*
X556930Y58621D01*
X556835Y58610D01*
X556710Y58573D01*
X556584Y58544D01*
X556496Y58508D01*
X556404Y58480D01*
X556288Y58421D01*
X556168Y58371D01*
X556088Y58319D01*
X556003Y58276D01*
X555899Y58197D01*
X555790Y58126D01*
X555693Y58040D01*
X555644Y58004D01*
X555614Y57971D01*
X555556Y57919D01*
X554112Y56475D01*
X532848Y56475D01*
X531955Y57368D01*
X531955Y70632D01*
X533528Y72204D01*
X533550Y72231D01*
X533576Y72254D01*
X533694Y72403D01*
X533817Y72550D01*
X533834Y72580D01*
X533856Y72607D01*
X533946Y72775D01*
X534040Y72941D01*
X534052Y72973D01*
X534068Y73004D01*
X534127Y73185D01*
X534191Y73365D01*
X534197Y73399D01*
X534208Y73432D01*
X534234Y73621D01*
X534265Y73809D01*
X534264Y73844D01*
X534269Y73878D01*
X534261Y74069D01*
X534259Y74259D01*
X534252Y74294D01*
X534251Y74328D01*
X534209Y74514D01*
X534173Y74702D01*
X534161Y74734D01*
X534153Y74768D01*
X534079Y74944D01*
X534011Y75122D01*
X533993Y75151D01*
X533979Y75183D01*
X533876Y75344D01*
X533777Y75506D01*
X533754Y75532D01*
X533735Y75561D01*
X533528Y75796D01*
X531955Y77368D01*
X531955Y90632D01*
X533528Y92204D01*
X533550Y92231D01*
X533576Y92254D01*
X533694Y92403D01*
X533817Y92550D01*
X533834Y92580D01*
X533856Y92607D01*
X533946Y92775D01*
X534040Y92941D01*
X534052Y92973D01*
X534068Y93004D01*
X534127Y93185D01*
X534191Y93365D01*
X534197Y93399D01*
X534208Y93432D01*
X534234Y93621D01*
X534265Y93809D01*
X534264Y93844D01*
X534269Y93878D01*
X534261Y94069D01*
X534259Y94259D01*
X534252Y94294D01*
X534251Y94328D01*
X534209Y94514D01*
X534173Y94702D01*
X534161Y94734D01*
X534153Y94768D01*
X534079Y94944D01*
X534011Y95122D01*
X533993Y95151D01*
X533979Y95183D01*
X533876Y95344D01*
X533777Y95506D01*
X533754Y95532D01*
X533735Y95561D01*
X533528Y95796D01*
X531955Y97368D01*
X531955Y97471D01*
X531952Y97506D01*
X531954Y97540D01*
X531932Y97730D01*
X531915Y97920D01*
X531906Y97953D01*
X531902Y97987D01*
X531847Y98170D01*
X531797Y98354D01*
X531782Y98385D01*
X531772Y98418D01*
X531685Y98589D01*
X531603Y98761D01*
X531583Y98789D01*
X531568Y98820D01*
X531452Y98972D01*
X531341Y99127D01*
X531316Y99151D01*
X531296Y99178D01*
X531156Y99307D01*
X531019Y99441D01*
X530990Y99460D01*
X530964Y99484D01*
X530803Y99586D01*
X530646Y99693D01*
X530614Y99707D01*
X530585Y99725D01*
X530408Y99798D01*
X530234Y99875D01*
X530200Y99883D01*
X530168Y99896D01*
X529981Y99937D01*
X529796Y99982D01*
X529762Y99984D01*
X529728Y99991D01*
X529416Y100010D01*
X522718Y100010D01*
X522555Y99996D01*
X522390Y99989D01*
X522331Y99976D01*
X522270Y99970D01*
X522111Y99927D01*
X521951Y99891D01*
X521894Y99868D01*
X521835Y99852D01*
X521687Y99781D01*
X521535Y99718D01*
X521484Y99685D01*
X521429Y99659D01*
X521295Y99563D01*
X521157Y99474D01*
X521099Y99422D01*
X521063Y99396D01*
X521020Y99353D01*
X520923Y99267D01*
X480050Y58394D01*
X479945Y58268D01*
X479833Y58147D01*
X479801Y58096D01*
X479762Y58049D01*
X479680Y57906D01*
X479592Y57767D01*
X479568Y57711D01*
X479538Y57658D01*
X479483Y57503D01*
X479421Y57351D01*
X479408Y57291D01*
X479387Y57234D01*
X479361Y57071D01*
X479326Y56911D01*
X479321Y56834D01*
X479314Y56790D01*
X479315Y56728D01*
X479307Y56599D01*
X479307Y55746D01*
X478347Y53428D01*
X476572Y51653D01*
X473894Y50544D01*
X473821Y50506D01*
X473744Y50476D01*
X473622Y50402D01*
X473495Y50336D01*
X473430Y50285D01*
X473360Y50242D01*
X473252Y50148D01*
X473139Y50060D01*
X473084Y49999D01*
X473022Y49944D01*
X472933Y49832D01*
X472837Y49726D01*
X472794Y49656D01*
X472743Y49591D01*
X472675Y49465D01*
X472600Y49343D01*
X472569Y49267D01*
X472530Y49194D01*
X472486Y49058D01*
X472433Y48925D01*
X472416Y48844D01*
X472391Y48766D01*
X472371Y48624D01*
X472343Y48484D01*
X472341Y48401D01*
X472330Y48320D01*
X472335Y48177D01*
X472332Y48034D01*
X472345Y47952D01*
X472348Y47870D01*
X472379Y47730D01*
X472401Y47589D01*
X472428Y47511D01*
X472445Y47430D01*
X472501Y47298D01*
X472547Y47163D01*
X472587Y47091D01*
X472619Y47015D01*
X472697Y46894D01*
X472767Y46770D01*
X472819Y46706D01*
X472863Y46637D01*
X473027Y46452D01*
X473052Y46421D01*
X473060Y46414D01*
X473070Y46403D01*
X489552Y29920D01*
X489679Y29815D01*
X489800Y29703D01*
X489851Y29671D01*
X489898Y29632D01*
X490041Y29550D01*
X490179Y29462D01*
X490236Y29438D01*
X490289Y29408D01*
X490444Y29353D01*
X490596Y29291D01*
X490656Y29278D01*
X490713Y29257D01*
X490875Y29231D01*
X491036Y29196D01*
X491113Y29191D01*
X491157Y29184D01*
X491218Y29185D01*
X491348Y29177D01*
X496103Y29177D01*
X500211Y27475D01*
X503355Y24331D01*
X504234Y22209D01*
X504294Y22094D01*
X504346Y21975D01*
X504398Y21895D01*
X504443Y21810D01*
X504522Y21707D01*
X504594Y21599D01*
X504660Y21530D01*
X504718Y21454D01*
X504815Y21367D01*
X504904Y21273D01*
X504982Y21217D01*
X505053Y21153D01*
X505163Y21084D01*
X505268Y21007D01*
X505354Y20965D01*
X505435Y20915D01*
X505555Y20867D01*
X505672Y20810D01*
X505764Y20783D01*
X505853Y20748D01*
X505980Y20722D01*
X506106Y20687D01*
X506201Y20677D01*
X506294Y20658D01*
X506424Y20655D01*
X506554Y20642D01*
X506649Y20649D01*
X506744Y20647D01*
X506873Y20667D01*
X507003Y20677D01*
X507095Y20701D01*
X507189Y20716D01*
X507312Y20758D01*
X507438Y20791D01*
X507525Y20831D01*
X507615Y20862D01*
X507729Y20926D01*
X507847Y20980D01*
X507925Y21035D01*
X508008Y21082D01*
X508109Y21164D01*
X508216Y21239D01*
X508283Y21306D01*
X508357Y21367D01*
X508441Y21466D01*
X508533Y21558D01*
X508587Y21637D01*
X508649Y21709D01*
X508715Y21822D01*
X508789Y21929D01*
X508846Y22045D01*
X508877Y22098D01*
X508892Y22140D01*
X508926Y22209D01*
X509805Y24331D01*
X512949Y27475D01*
X517057Y29177D01*
X521503Y29177D01*
X525611Y27475D01*
X528755Y24331D01*
X530457Y20223D01*
X530457Y15777D01*
X528755Y11669D01*
X525611Y8525D01*
X521503Y6823D01*
X517057Y6823D01*
X512949Y8525D01*
X509805Y11669D01*
X508926Y13791D01*
X508866Y13906D01*
X508814Y14025D01*
X508762Y14105D01*
X508717Y14190D01*
X508638Y14292D01*
X508566Y14401D01*
X508500Y14470D01*
X508442Y14546D01*
X508345Y14633D01*
X508255Y14727D01*
X508178Y14783D01*
X508107Y14847D01*
X507997Y14916D01*
X507892Y14993D01*
X507806Y15035D01*
X507725Y15085D01*
X507604Y15133D01*
X507488Y15190D01*
X507396Y15217D01*
X507307Y15252D01*
X507179Y15278D01*
X507054Y15313D01*
X506959Y15323D01*
X506866Y15342D01*
X506736Y15345D01*
X506606Y15358D01*
X506511Y15351D01*
X506416Y15353D01*
X506287Y15333D01*
X506157Y15323D01*
X506065Y15299D01*
X505971Y15284D01*
X505848Y15242D01*
X505722Y15209D01*
X505635Y15169D01*
X505545Y15138D01*
X505431Y15074D01*
X505313Y15020D01*
X505235Y14965D01*
X505152Y14918D01*
X505051Y14836D01*
X504944Y14761D01*
X504877Y14693D01*
X504803Y14633D01*
X504719Y14534D01*
X504627Y14442D01*
X504573Y14363D01*
X504511Y14291D01*
X504445Y14178D01*
X504371Y14071D01*
X504314Y13954D01*
X504283Y13902D01*
X504268Y13860D01*
X504234Y13791D01*
X503355Y11669D01*
X500211Y8525D01*
X496103Y6823D01*
X491657Y6823D01*
X487549Y8525D01*
X484405Y11669D01*
X483526Y13791D01*
X483466Y13906D01*
X483414Y14025D01*
X483362Y14105D01*
X483317Y14190D01*
X483238Y14292D01*
X483166Y14401D01*
X483100Y14470D01*
X483042Y14546D01*
X482945Y14633D01*
X482855Y14727D01*
X482778Y14783D01*
X482707Y14847D01*
X482597Y14916D01*
X482492Y14993D01*
X482406Y15035D01*
X482325Y15085D01*
X482204Y15133D01*
X482088Y15190D01*
X481996Y15217D01*
X481907Y15252D01*
X481779Y15278D01*
X481654Y15313D01*
X481559Y15323D01*
X481466Y15342D01*
X481336Y15345D01*
X481206Y15358D01*
X481111Y15351D01*
X481016Y15353D01*
X480887Y15333D01*
X480757Y15323D01*
X480665Y15299D01*
X480571Y15284D01*
X480448Y15242D01*
X480322Y15209D01*
X480235Y15169D01*
X480145Y15138D01*
X480031Y15074D01*
X479913Y15020D01*
X479835Y14965D01*
X479752Y14918D01*
X479651Y14836D01*
X479544Y14761D01*
X479477Y14693D01*
X479403Y14633D01*
X479319Y14534D01*
X479227Y14442D01*
X479173Y14363D01*
X479111Y14291D01*
X479045Y14178D01*
X478971Y14071D01*
X478914Y13954D01*
X478883Y13902D01*
X478868Y13860D01*
X478834Y13791D01*
X477955Y11669D01*
X474811Y8525D01*
X470703Y6823D01*
X466257Y6823D01*
X462149Y8525D01*
X459005Y11669D01*
X458126Y13791D01*
X458066Y13906D01*
X458014Y14025D01*
X457962Y14105D01*
X457917Y14190D01*
X457838Y14292D01*
X457766Y14401D01*
X457700Y14470D01*
X457642Y14546D01*
X457545Y14633D01*
X457455Y14727D01*
X457378Y14783D01*
X457307Y14847D01*
X457197Y14916D01*
X457092Y14993D01*
X457006Y15035D01*
X456925Y15085D01*
X456804Y15133D01*
X456688Y15190D01*
X456596Y15217D01*
X456507Y15252D01*
X456379Y15278D01*
X456254Y15313D01*
X456159Y15323D01*
X456066Y15342D01*
X455936Y15345D01*
X455806Y15358D01*
X455711Y15351D01*
X455616Y15353D01*
X455487Y15333D01*
X455357Y15323D01*
X455265Y15299D01*
X455171Y15284D01*
X455048Y15242D01*
X454922Y15209D01*
X454835Y15169D01*
X454745Y15138D01*
X454631Y15074D01*
X454513Y15020D01*
X454435Y14965D01*
X454352Y14918D01*
X454251Y14836D01*
X454144Y14761D01*
X454077Y14693D01*
X454003Y14633D01*
X453919Y14534D01*
X453827Y14442D01*
X453773Y14363D01*
X453711Y14291D01*
X453645Y14178D01*
X453571Y14071D01*
X453514Y13954D01*
X453483Y13902D01*
X453468Y13860D01*
X453434Y13791D01*
X452555Y11669D01*
X449411Y8525D01*
X445303Y6823D01*
X440857Y6823D01*
X436749Y8525D01*
X433605Y11669D01*
X432726Y13791D01*
X432666Y13906D01*
X432614Y14025D01*
X432562Y14105D01*
X432517Y14190D01*
X432438Y14292D01*
X432366Y14401D01*
X432300Y14470D01*
X432242Y14546D01*
X432145Y14633D01*
X432055Y14727D01*
X431978Y14783D01*
X431907Y14847D01*
X431797Y14916D01*
X431692Y14993D01*
X431606Y15035D01*
X431525Y15085D01*
X431404Y15133D01*
X431288Y15190D01*
X431196Y15217D01*
X431107Y15252D01*
X430979Y15278D01*
X430854Y15313D01*
X430759Y15323D01*
X430666Y15342D01*
X430536Y15345D01*
X430406Y15358D01*
X430311Y15351D01*
X430216Y15353D01*
X430087Y15333D01*
X429957Y15323D01*
X429865Y15299D01*
X429771Y15284D01*
X429648Y15242D01*
X429522Y15209D01*
X429435Y15169D01*
X429345Y15138D01*
X429231Y15074D01*
X429113Y15020D01*
X429035Y14965D01*
X428952Y14918D01*
X428851Y14836D01*
X428744Y14761D01*
X428677Y14693D01*
X428603Y14633D01*
X428519Y14534D01*
X428427Y14442D01*
X428373Y14363D01*
X428311Y14291D01*
X428245Y14178D01*
X428171Y14071D01*
X428114Y13954D01*
X428083Y13902D01*
X428068Y13860D01*
X428034Y13791D01*
X427155Y11669D01*
X424011Y8525D01*
X419903Y6823D01*
X415457Y6823D01*
G37*
%LPD*%
%LPC*%
G36*
X9813Y155731D02*
X9813Y155731D01*
X8920Y156625D01*
X8920Y266701D01*
X9813Y267594D01*
X120067Y267594D01*
X120960Y266701D01*
X120960Y156625D01*
X120067Y155731D01*
X9813Y155731D01*
G37*
%LPD*%
G36*
X464314Y56338D02*
X464314Y56338D01*
X464458Y56340D01*
X464539Y56356D01*
X464621Y56362D01*
X464759Y56398D01*
X464900Y56425D01*
X464977Y56455D01*
X465056Y56476D01*
X465186Y56536D01*
X465320Y56588D01*
X465390Y56631D01*
X465465Y56665D01*
X465582Y56747D01*
X465704Y56822D01*
X465766Y56876D01*
X465834Y56924D01*
X465935Y57025D01*
X466042Y57120D01*
X466093Y57184D01*
X466151Y57243D01*
X466233Y57361D01*
X466321Y57473D01*
X466360Y57546D01*
X466407Y57613D01*
X466515Y57835D01*
X466534Y57870D01*
X466537Y57880D01*
X466544Y57894D01*
X467653Y60572D01*
X469428Y62347D01*
X471746Y63307D01*
X472414Y63307D01*
X472578Y63321D01*
X472742Y63328D01*
X472802Y63341D01*
X472863Y63347D01*
X473022Y63390D01*
X473182Y63426D01*
X473238Y63449D01*
X473297Y63465D01*
X473445Y63536D01*
X473597Y63599D01*
X473649Y63632D01*
X473704Y63659D01*
X473837Y63754D01*
X473976Y63844D01*
X474033Y63895D01*
X474070Y63921D01*
X474112Y63964D01*
X474210Y64050D01*
X517680Y107521D01*
X519174Y108140D01*
X529416Y108140D01*
X529451Y108143D01*
X529485Y108141D01*
X529674Y108163D01*
X529865Y108180D01*
X529898Y108189D01*
X529932Y108193D01*
X530115Y108248D01*
X530299Y108298D01*
X530330Y108313D01*
X530363Y108323D01*
X530534Y108410D01*
X530706Y108492D01*
X530734Y108512D01*
X530765Y108527D01*
X530917Y108643D01*
X531072Y108754D01*
X531096Y108779D01*
X531123Y108799D01*
X531252Y108940D01*
X531386Y109076D01*
X531405Y109105D01*
X531429Y109131D01*
X531531Y109292D01*
X531638Y109450D01*
X531652Y109481D01*
X531670Y109510D01*
X531743Y109687D01*
X531820Y109861D01*
X531828Y109895D01*
X531841Y109927D01*
X531881Y110114D01*
X531927Y110299D01*
X531929Y110333D01*
X531936Y110367D01*
X531952Y110628D01*
X533528Y112204D01*
X533550Y112231D01*
X533576Y112254D01*
X533694Y112403D01*
X533817Y112550D01*
X533834Y112580D01*
X533856Y112607D01*
X533946Y112775D01*
X534040Y112941D01*
X534052Y112973D01*
X534068Y113004D01*
X534127Y113185D01*
X534191Y113365D01*
X534197Y113399D01*
X534208Y113432D01*
X534234Y113621D01*
X534265Y113809D01*
X534264Y113844D01*
X534269Y113878D01*
X534261Y114069D01*
X534259Y114259D01*
X534252Y114294D01*
X534251Y114328D01*
X534209Y114514D01*
X534173Y114702D01*
X534161Y114734D01*
X534153Y114768D01*
X534079Y114944D01*
X534011Y115122D01*
X533993Y115151D01*
X533979Y115183D01*
X533876Y115344D01*
X533777Y115506D01*
X533754Y115532D01*
X533735Y115561D01*
X533528Y115796D01*
X531955Y117368D01*
X531955Y117396D01*
X531952Y117431D01*
X531954Y117465D01*
X531932Y117654D01*
X531915Y117845D01*
X531906Y117878D01*
X531902Y117912D01*
X531847Y118095D01*
X531797Y118279D01*
X531782Y118310D01*
X531772Y118343D01*
X531685Y118514D01*
X531603Y118686D01*
X531583Y118714D01*
X531568Y118745D01*
X531452Y118897D01*
X531341Y119052D01*
X531316Y119076D01*
X531296Y119103D01*
X531156Y119232D01*
X531019Y119366D01*
X530990Y119385D01*
X530964Y119409D01*
X530803Y119511D01*
X530646Y119618D01*
X530614Y119632D01*
X530585Y119650D01*
X530408Y119723D01*
X530234Y119800D01*
X530200Y119808D01*
X530168Y119821D01*
X529981Y119861D01*
X529796Y119907D01*
X529762Y119909D01*
X529728Y119916D01*
X529416Y119935D01*
X502191Y119935D01*
X500698Y120554D01*
X499197Y122055D01*
X409340Y211912D01*
X409240Y211996D01*
X409147Y212086D01*
X409067Y212140D01*
X408994Y212201D01*
X408881Y212266D01*
X408774Y212338D01*
X408686Y212377D01*
X408603Y212424D01*
X408481Y212468D01*
X408362Y212521D01*
X408269Y212543D01*
X408179Y212575D01*
X408050Y212596D01*
X407924Y212627D01*
X407829Y212633D01*
X407735Y212649D01*
X407604Y212647D01*
X407475Y212655D01*
X407380Y212644D01*
X407284Y212643D01*
X407157Y212618D01*
X407028Y212603D01*
X406936Y212575D01*
X406842Y212557D01*
X406721Y212510D01*
X406597Y212473D01*
X406512Y212429D01*
X406422Y212395D01*
X406311Y212327D01*
X406195Y212268D01*
X406119Y212211D01*
X406038Y212161D01*
X405940Y212075D01*
X405837Y211996D01*
X405772Y211926D01*
X405700Y211863D01*
X405620Y211761D01*
X405531Y211665D01*
X405480Y211584D01*
X405421Y211510D01*
X405360Y211395D01*
X405290Y211285D01*
X405253Y211197D01*
X405208Y211113D01*
X405168Y210989D01*
X405119Y210869D01*
X405099Y210775D01*
X405069Y210684D01*
X405051Y210556D01*
X405024Y210429D01*
X405016Y210299D01*
X405008Y210238D01*
X405009Y210194D01*
X405005Y210117D01*
X405005Y197368D01*
X403432Y195796D01*
X403410Y195769D01*
X403384Y195746D01*
X403266Y195597D01*
X403143Y195450D01*
X403126Y195420D01*
X403104Y195393D01*
X403014Y195225D01*
X402920Y195059D01*
X402908Y195027D01*
X402892Y194996D01*
X402833Y194815D01*
X402769Y194635D01*
X402763Y194601D01*
X402752Y194568D01*
X402726Y194379D01*
X402695Y194191D01*
X402696Y194156D01*
X402691Y194122D01*
X402699Y193931D01*
X402701Y193741D01*
X402708Y193706D01*
X402709Y193672D01*
X402751Y193486D01*
X402787Y193298D01*
X402799Y193266D01*
X402807Y193232D01*
X402881Y193056D01*
X402949Y192878D01*
X402967Y192849D01*
X402981Y192817D01*
X403084Y192656D01*
X403183Y192494D01*
X403206Y192468D01*
X403225Y192439D01*
X403432Y192204D01*
X405028Y190608D01*
X405045Y190426D01*
X405054Y190393D01*
X405058Y190358D01*
X405113Y190176D01*
X405163Y189992D01*
X405178Y189961D01*
X405188Y189927D01*
X405275Y189757D01*
X405357Y189585D01*
X405377Y189557D01*
X405392Y189526D01*
X405508Y189374D01*
X405619Y189219D01*
X405644Y189195D01*
X405664Y189167D01*
X405804Y189038D01*
X405941Y188905D01*
X405970Y188886D01*
X405996Y188862D01*
X406157Y188760D01*
X406314Y188653D01*
X406346Y188639D01*
X406375Y188620D01*
X406552Y188548D01*
X406726Y188471D01*
X406760Y188463D01*
X406792Y188449D01*
X406979Y188409D01*
X407164Y188364D01*
X407198Y188362D01*
X407232Y188355D01*
X407544Y188336D01*
X408687Y188336D01*
X410181Y187717D01*
X427040Y170858D01*
X427659Y169364D01*
X427659Y92866D01*
X427673Y92702D01*
X427680Y92538D01*
X427693Y92478D01*
X427699Y92417D01*
X427742Y92259D01*
X427778Y92098D01*
X427801Y92042D01*
X427817Y91983D01*
X427888Y91835D01*
X427951Y91683D01*
X427984Y91631D01*
X428011Y91576D01*
X428106Y91443D01*
X428196Y91305D01*
X428247Y91247D01*
X428273Y91210D01*
X428316Y91168D01*
X428402Y91070D01*
X462403Y57070D01*
X462466Y57017D01*
X462523Y56958D01*
X462638Y56873D01*
X462748Y56781D01*
X462819Y56741D01*
X462886Y56692D01*
X463015Y56629D01*
X463139Y56558D01*
X463216Y56531D01*
X463291Y56494D01*
X463428Y56455D01*
X463563Y56407D01*
X463645Y56394D01*
X463724Y56371D01*
X463866Y56357D01*
X464007Y56334D01*
X464090Y56335D01*
X464172Y56327D01*
X464314Y56338D01*
G37*
G36*
X529451Y128068D02*
X529451Y128068D01*
X529485Y128066D01*
X529674Y128088D01*
X529865Y128105D01*
X529898Y128114D01*
X529932Y128118D01*
X530115Y128173D01*
X530299Y128223D01*
X530330Y128238D01*
X530363Y128248D01*
X530534Y128335D01*
X530706Y128417D01*
X530734Y128437D01*
X530765Y128452D01*
X530917Y128568D01*
X531072Y128679D01*
X531096Y128704D01*
X531123Y128724D01*
X531252Y128864D01*
X531386Y129001D01*
X531405Y129030D01*
X531429Y129056D01*
X531531Y129217D01*
X531638Y129374D01*
X531652Y129406D01*
X531670Y129435D01*
X531743Y129612D01*
X531820Y129786D01*
X531828Y129820D01*
X531841Y129852D01*
X531881Y130039D01*
X531927Y130224D01*
X531929Y130258D01*
X531936Y130292D01*
X531955Y130604D01*
X531955Y130632D01*
X533528Y132204D01*
X533550Y132231D01*
X533576Y132254D01*
X533694Y132403D01*
X533817Y132550D01*
X533834Y132580D01*
X533856Y132607D01*
X533946Y132775D01*
X534040Y132941D01*
X534052Y132973D01*
X534068Y133004D01*
X534127Y133185D01*
X534191Y133365D01*
X534197Y133399D01*
X534208Y133432D01*
X534234Y133621D01*
X534265Y133809D01*
X534264Y133844D01*
X534269Y133878D01*
X534261Y134069D01*
X534259Y134259D01*
X534252Y134294D01*
X534251Y134328D01*
X534209Y134514D01*
X534173Y134702D01*
X534161Y134734D01*
X534153Y134768D01*
X534079Y134944D01*
X534011Y135122D01*
X533993Y135151D01*
X533979Y135183D01*
X533876Y135344D01*
X533777Y135506D01*
X533754Y135532D01*
X533735Y135561D01*
X533528Y135796D01*
X531955Y137368D01*
X531955Y150632D01*
X533528Y152204D01*
X533550Y152231D01*
X533576Y152254D01*
X533695Y152403D01*
X533817Y152550D01*
X533834Y152580D01*
X533856Y152607D01*
X533946Y152775D01*
X534040Y152941D01*
X534052Y152973D01*
X534068Y153004D01*
X534127Y153185D01*
X534191Y153365D01*
X534197Y153399D01*
X534208Y153432D01*
X534234Y153621D01*
X534265Y153809D01*
X534264Y153844D01*
X534269Y153878D01*
X534261Y154069D01*
X534259Y154260D01*
X534252Y154294D01*
X534251Y154328D01*
X534209Y154514D01*
X534173Y154702D01*
X534161Y154734D01*
X534153Y154768D01*
X534080Y154943D01*
X534011Y155122D01*
X533993Y155151D01*
X533979Y155183D01*
X533876Y155343D01*
X533777Y155506D01*
X533754Y155532D01*
X533735Y155561D01*
X533528Y155796D01*
X531955Y157368D01*
X531955Y170632D01*
X533528Y172204D01*
X533550Y172231D01*
X533576Y172254D01*
X533694Y172403D01*
X533817Y172550D01*
X533834Y172580D01*
X533856Y172607D01*
X533946Y172775D01*
X534040Y172941D01*
X534052Y172973D01*
X534068Y173004D01*
X534127Y173185D01*
X534191Y173365D01*
X534197Y173399D01*
X534208Y173432D01*
X534234Y173621D01*
X534265Y173809D01*
X534264Y173844D01*
X534269Y173878D01*
X534261Y174069D01*
X534259Y174259D01*
X534252Y174294D01*
X534251Y174328D01*
X534209Y174514D01*
X534173Y174702D01*
X534161Y174734D01*
X534153Y174768D01*
X534079Y174944D01*
X534011Y175122D01*
X533993Y175151D01*
X533979Y175183D01*
X533876Y175344D01*
X533777Y175506D01*
X533754Y175532D01*
X533735Y175561D01*
X533528Y175796D01*
X531955Y177368D01*
X531955Y190632D01*
X533528Y192204D01*
X533550Y192231D01*
X533576Y192254D01*
X533694Y192403D01*
X533817Y192550D01*
X533834Y192580D01*
X533856Y192607D01*
X533946Y192775D01*
X534040Y192941D01*
X534052Y192973D01*
X534068Y193004D01*
X534127Y193185D01*
X534191Y193365D01*
X534197Y193399D01*
X534208Y193432D01*
X534234Y193621D01*
X534265Y193809D01*
X534264Y193844D01*
X534269Y193878D01*
X534261Y194069D01*
X534259Y194259D01*
X534252Y194294D01*
X534251Y194328D01*
X534209Y194514D01*
X534173Y194702D01*
X534161Y194734D01*
X534153Y194768D01*
X534079Y194944D01*
X534011Y195122D01*
X533993Y195151D01*
X533979Y195183D01*
X533876Y195344D01*
X533777Y195506D01*
X533754Y195532D01*
X533735Y195561D01*
X533528Y195796D01*
X531955Y197368D01*
X531955Y210632D01*
X532268Y210944D01*
X532352Y211044D01*
X532442Y211137D01*
X532496Y211217D01*
X532557Y211290D01*
X532622Y211403D01*
X532694Y211510D01*
X532733Y211598D01*
X532780Y211681D01*
X532824Y211803D01*
X532877Y211922D01*
X532899Y212015D01*
X532931Y212105D01*
X532952Y212233D01*
X532983Y212360D01*
X532989Y212455D01*
X533005Y212549D01*
X533003Y212679D01*
X533011Y212809D01*
X533000Y212904D01*
X532999Y212999D01*
X532974Y213127D01*
X532959Y213256D01*
X532931Y213348D01*
X532913Y213442D01*
X532866Y213563D01*
X532829Y213687D01*
X532785Y213773D01*
X532751Y213862D01*
X532683Y213973D01*
X532624Y214089D01*
X532567Y214165D01*
X532517Y214246D01*
X532431Y214344D01*
X532352Y214447D01*
X532282Y214512D01*
X532219Y214584D01*
X532117Y214664D01*
X532021Y214753D01*
X531941Y214804D01*
X531866Y214863D01*
X531751Y214924D01*
X531641Y214994D01*
X531553Y215031D01*
X531469Y215076D01*
X531345Y215116D01*
X531225Y215165D01*
X531131Y215185D01*
X531041Y215215D01*
X530912Y215233D01*
X530785Y215260D01*
X530655Y215268D01*
X530594Y215276D01*
X530550Y215275D01*
X530473Y215279D01*
X423599Y215279D01*
X423470Y215268D01*
X423340Y215266D01*
X423246Y215248D01*
X423151Y215239D01*
X423025Y215205D01*
X422898Y215180D01*
X422809Y215146D01*
X422717Y215121D01*
X422599Y215065D01*
X422478Y215018D01*
X422396Y214968D01*
X422310Y214927D01*
X422204Y214852D01*
X422093Y214784D01*
X422022Y214721D01*
X421944Y214665D01*
X421853Y214572D01*
X421756Y214486D01*
X421697Y214411D01*
X421630Y214343D01*
X421557Y214235D01*
X421476Y214133D01*
X421431Y214049D01*
X421378Y213970D01*
X421325Y213851D01*
X421264Y213736D01*
X421234Y213645D01*
X421195Y213558D01*
X421165Y213431D01*
X421124Y213308D01*
X421111Y213213D01*
X421089Y213120D01*
X421081Y212991D01*
X421063Y212862D01*
X421067Y212766D01*
X421061Y212671D01*
X421076Y212542D01*
X421081Y212412D01*
X421102Y212319D01*
X421113Y212224D01*
X421151Y212099D01*
X421179Y211972D01*
X421216Y211884D01*
X421243Y211793D01*
X421302Y211677D01*
X421353Y211557D01*
X421405Y211476D01*
X421448Y211391D01*
X421526Y211288D01*
X421597Y211179D01*
X421683Y211081D01*
X421720Y211033D01*
X421753Y211002D01*
X421804Y210944D01*
X503940Y128808D01*
X504066Y128703D01*
X504187Y128591D01*
X504238Y128559D01*
X504285Y128520D01*
X504428Y128438D01*
X504567Y128350D01*
X504623Y128326D01*
X504676Y128296D01*
X504831Y128241D01*
X504983Y128179D01*
X505043Y128166D01*
X505101Y128145D01*
X505263Y128119D01*
X505424Y128084D01*
X505500Y128079D01*
X505545Y128072D01*
X505606Y128073D01*
X505735Y128065D01*
X529416Y128065D01*
X529451Y128068D01*
G37*
%LPC*%
G36*
X175207Y44263D02*
X175207Y44263D01*
X171099Y45965D01*
X167955Y49109D01*
X166253Y53217D01*
X166253Y57663D01*
X166288Y57747D01*
X166352Y57950D01*
X166417Y58151D01*
X166419Y58164D01*
X166423Y58176D01*
X166449Y58387D01*
X166478Y58597D01*
X166478Y58610D01*
X166479Y58623D01*
X166469Y58835D01*
X166460Y59047D01*
X166457Y59060D01*
X166456Y59073D01*
X166408Y59280D01*
X166362Y59486D01*
X166357Y59498D01*
X166354Y59511D01*
X166270Y59707D01*
X166189Y59902D01*
X166182Y59913D01*
X166176Y59925D01*
X166059Y60102D01*
X165944Y60280D01*
X165934Y60292D01*
X165928Y60301D01*
X165901Y60329D01*
X165738Y60514D01*
X159554Y66698D01*
X158935Y68191D01*
X158935Y113937D01*
X158921Y114100D01*
X158914Y114265D01*
X158901Y114324D01*
X158895Y114385D01*
X158852Y114544D01*
X158816Y114704D01*
X158793Y114761D01*
X158777Y114820D01*
X158706Y114968D01*
X158643Y115120D01*
X158610Y115171D01*
X158583Y115226D01*
X158488Y115360D01*
X158398Y115498D01*
X158347Y115556D01*
X158321Y115592D01*
X158278Y115635D01*
X158274Y115639D01*
X158274Y126929D01*
X158297Y126957D01*
X158409Y127078D01*
X158441Y127130D01*
X158480Y127176D01*
X158562Y127319D01*
X158650Y127458D01*
X158674Y127514D01*
X158704Y127567D01*
X158759Y127722D01*
X158821Y127874D01*
X158834Y127934D01*
X158855Y127992D01*
X158881Y128154D01*
X158916Y128315D01*
X158921Y128392D01*
X158928Y128436D01*
X158927Y128497D01*
X158935Y128627D01*
X158935Y145809D01*
X159554Y147302D01*
X161054Y148803D01*
X161055Y148803D01*
X173192Y160940D01*
X173286Y161053D01*
X173299Y161066D01*
X173304Y161074D01*
X173409Y161187D01*
X173441Y161238D01*
X173480Y161285D01*
X173562Y161428D01*
X173650Y161567D01*
X173674Y161623D01*
X173704Y161676D01*
X173759Y161831D01*
X173821Y161983D01*
X173834Y162043D01*
X173855Y162101D01*
X173881Y162263D01*
X173916Y162424D01*
X173921Y162500D01*
X173928Y162545D01*
X173927Y162606D01*
X173935Y162735D01*
X173935Y169014D01*
X173916Y169225D01*
X173900Y169436D01*
X173897Y169449D01*
X173895Y169462D01*
X173840Y169666D01*
X173786Y169872D01*
X173780Y169884D01*
X173777Y169897D01*
X173687Y170087D01*
X173597Y170281D01*
X173589Y170292D01*
X173583Y170303D01*
X173461Y170475D01*
X173338Y170649D01*
X173329Y170659D01*
X173321Y170669D01*
X173169Y170818D01*
X173019Y170967D01*
X173008Y170974D01*
X172999Y170983D01*
X172822Y171103D01*
X172649Y171223D01*
X172634Y171230D01*
X172626Y171236D01*
X172589Y171252D01*
X172368Y171360D01*
X171559Y171695D01*
X168415Y174839D01*
X166713Y178947D01*
X166713Y183393D01*
X168415Y187501D01*
X171559Y190645D01*
X175667Y192347D01*
X180113Y192347D01*
X184221Y190645D01*
X187365Y187501D01*
X188244Y185379D01*
X188304Y185264D01*
X188356Y185145D01*
X188408Y185065D01*
X188453Y184980D01*
X188532Y184877D01*
X188604Y184769D01*
X188670Y184700D01*
X188728Y184624D01*
X188825Y184537D01*
X188914Y184443D01*
X188992Y184387D01*
X189063Y184323D01*
X189173Y184254D01*
X189278Y184177D01*
X189364Y184135D01*
X189445Y184085D01*
X189565Y184037D01*
X189682Y183980D01*
X189774Y183953D01*
X189863Y183918D01*
X189990Y183892D01*
X190116Y183857D01*
X190211Y183847D01*
X190304Y183828D01*
X190434Y183825D01*
X190564Y183812D01*
X190659Y183819D01*
X190754Y183817D01*
X190883Y183837D01*
X191013Y183847D01*
X191105Y183871D01*
X191199Y183886D01*
X191322Y183928D01*
X191448Y183961D01*
X191535Y184001D01*
X191625Y184032D01*
X191739Y184096D01*
X191857Y184150D01*
X191935Y184205D01*
X192018Y184252D01*
X192119Y184334D01*
X192226Y184409D01*
X192293Y184476D01*
X192367Y184537D01*
X192451Y184636D01*
X192543Y184728D01*
X192597Y184807D01*
X192659Y184879D01*
X192725Y184992D01*
X192799Y185099D01*
X192856Y185215D01*
X192887Y185268D01*
X192902Y185310D01*
X192936Y185379D01*
X193815Y187501D01*
X196959Y190645D01*
X201067Y192347D01*
X205513Y192347D01*
X209621Y190645D01*
X212765Y187501D01*
X214467Y183393D01*
X214467Y178947D01*
X212765Y174839D01*
X209621Y171695D01*
X208632Y171285D01*
X208444Y171187D01*
X208255Y171091D01*
X208245Y171083D01*
X208233Y171077D01*
X208065Y170947D01*
X207897Y170819D01*
X207888Y170809D01*
X207877Y170801D01*
X207736Y170644D01*
X207591Y170488D01*
X207584Y170476D01*
X207576Y170467D01*
X207464Y170288D01*
X207350Y170108D01*
X207345Y170096D01*
X207338Y170084D01*
X207260Y169888D01*
X207179Y169691D01*
X207176Y169678D01*
X207171Y169666D01*
X207129Y169459D01*
X207084Y169251D01*
X207083Y169235D01*
X207081Y169225D01*
X207080Y169186D01*
X207065Y168939D01*
X207065Y166191D01*
X206446Y164698D01*
X193808Y152060D01*
X193703Y151934D01*
X193591Y151813D01*
X193559Y151762D01*
X193520Y151715D01*
X193438Y151572D01*
X193350Y151433D01*
X193326Y151377D01*
X193296Y151324D01*
X193241Y151169D01*
X193179Y151017D01*
X193166Y150957D01*
X193145Y150899D01*
X193119Y150737D01*
X193084Y150576D01*
X193079Y150500D01*
X193072Y150455D01*
X193073Y150394D01*
X193065Y150265D01*
X193065Y139846D01*
X193068Y139811D01*
X193066Y139777D01*
X193088Y139587D01*
X193105Y139397D01*
X193114Y139364D01*
X193118Y139329D01*
X193173Y139146D01*
X193223Y138963D01*
X193238Y138932D01*
X193248Y138898D01*
X193335Y138728D01*
X193417Y138556D01*
X193437Y138528D01*
X193452Y138497D01*
X193568Y138345D01*
X193679Y138190D01*
X193704Y138166D01*
X193724Y138138D01*
X193864Y138009D01*
X194001Y137876D01*
X194030Y137857D01*
X194056Y137833D01*
X194217Y137731D01*
X194374Y137624D01*
X194406Y137610D01*
X194435Y137591D01*
X194612Y137519D01*
X194786Y137442D01*
X194820Y137433D01*
X194852Y137420D01*
X195039Y137380D01*
X195224Y137335D01*
X195258Y137333D01*
X195292Y137326D01*
X195604Y137306D01*
X196430Y137306D01*
X197323Y136413D01*
X197323Y125150D01*
X196430Y124257D01*
X181167Y124257D01*
X179658Y125766D01*
X179558Y125849D01*
X179465Y125940D01*
X179386Y125993D01*
X179313Y126055D01*
X179200Y126119D01*
X179092Y126192D01*
X179005Y126231D01*
X178922Y126278D01*
X178799Y126322D01*
X178680Y126374D01*
X178588Y126397D01*
X178497Y126429D01*
X178369Y126450D01*
X178243Y126481D01*
X178147Y126487D01*
X178053Y126502D01*
X177923Y126501D01*
X177793Y126509D01*
X177699Y126498D01*
X177603Y126496D01*
X177475Y126472D01*
X177346Y126457D01*
X177255Y126429D01*
X177161Y126411D01*
X177040Y126364D01*
X176915Y126326D01*
X176830Y126283D01*
X176741Y126248D01*
X176630Y126181D01*
X176514Y126122D01*
X176438Y126064D01*
X176356Y126015D01*
X176259Y125928D01*
X176155Y125850D01*
X176090Y125780D01*
X176019Y125716D01*
X175938Y125614D01*
X175850Y125519D01*
X175799Y125438D01*
X175739Y125363D01*
X175678Y125249D01*
X175608Y125139D01*
X175572Y125051D01*
X175527Y124966D01*
X175487Y124843D01*
X175437Y124722D01*
X175417Y124629D01*
X175388Y124538D01*
X175370Y124409D01*
X175342Y124282D01*
X175334Y124153D01*
X175326Y124092D01*
X175328Y124047D01*
X175323Y123970D01*
X175323Y118593D01*
X175335Y118463D01*
X175337Y118333D01*
X175355Y118240D01*
X175363Y118144D01*
X175397Y118019D01*
X175422Y117891D01*
X175457Y117802D01*
X175482Y117710D01*
X175537Y117593D01*
X175584Y117471D01*
X175634Y117390D01*
X175675Y117303D01*
X175751Y117198D01*
X175818Y117087D01*
X175882Y117015D01*
X175937Y116937D01*
X176030Y116847D01*
X176116Y116749D01*
X176191Y116690D01*
X176260Y116623D01*
X176327Y116578D01*
X176282Y116543D01*
X176173Y116473D01*
X176076Y116387D01*
X176027Y116350D01*
X175997Y116317D01*
X175939Y116266D01*
X174430Y114757D01*
X169604Y114757D01*
X169569Y114754D01*
X169535Y114756D01*
X169346Y114734D01*
X169155Y114717D01*
X169122Y114708D01*
X169088Y114704D01*
X168905Y114649D01*
X168721Y114598D01*
X168690Y114584D01*
X168657Y114574D01*
X168486Y114487D01*
X168314Y114405D01*
X168286Y114385D01*
X168255Y114369D01*
X168103Y114254D01*
X167948Y114143D01*
X167924Y114118D01*
X167897Y114097D01*
X167768Y113957D01*
X167634Y113820D01*
X167615Y113792D01*
X167591Y113766D01*
X167489Y113605D01*
X167382Y113447D01*
X167368Y113416D01*
X167350Y113386D01*
X167277Y113210D01*
X167200Y113035D01*
X167192Y113002D01*
X167179Y112970D01*
X167139Y112783D01*
X167093Y112598D01*
X167091Y112564D01*
X167084Y112530D01*
X167065Y112218D01*
X167065Y71735D01*
X167079Y71572D01*
X167086Y71407D01*
X167099Y71348D01*
X167105Y71287D01*
X167148Y71128D01*
X167184Y70968D01*
X167207Y70911D01*
X167223Y70853D01*
X167294Y70704D01*
X167357Y70552D01*
X167390Y70501D01*
X167417Y70446D01*
X167512Y70312D01*
X167602Y70174D01*
X167653Y70116D01*
X167679Y70080D01*
X167722Y70037D01*
X167808Y69940D01*
X171125Y66623D01*
X171288Y66487D01*
X171449Y66349D01*
X171461Y66342D01*
X171471Y66334D01*
X171654Y66229D01*
X171838Y66122D01*
X171850Y66117D01*
X171862Y66111D01*
X172061Y66040D01*
X172261Y65967D01*
X172274Y65964D01*
X172286Y65960D01*
X172494Y65925D01*
X172704Y65888D01*
X172717Y65888D01*
X172730Y65886D01*
X172942Y65889D01*
X173154Y65890D01*
X173167Y65892D01*
X173181Y65892D01*
X173389Y65933D01*
X173597Y65971D01*
X173612Y65976D01*
X173623Y65978D01*
X173659Y65992D01*
X173893Y66072D01*
X175207Y66617D01*
X179653Y66617D01*
X183761Y64915D01*
X186905Y61771D01*
X187784Y59649D01*
X187844Y59534D01*
X187896Y59415D01*
X187948Y59335D01*
X187993Y59250D01*
X188072Y59148D01*
X188144Y59039D01*
X188210Y58970D01*
X188268Y58894D01*
X188365Y58807D01*
X188454Y58713D01*
X188532Y58657D01*
X188602Y58593D01*
X188713Y58524D01*
X188818Y58447D01*
X188904Y58405D01*
X188985Y58355D01*
X189106Y58307D01*
X189222Y58250D01*
X189314Y58223D01*
X189403Y58188D01*
X189530Y58162D01*
X189656Y58127D01*
X189751Y58117D01*
X189844Y58098D01*
X189974Y58095D01*
X190104Y58082D01*
X190199Y58089D01*
X190294Y58087D01*
X190423Y58107D01*
X190553Y58117D01*
X190645Y58141D01*
X190739Y58156D01*
X190863Y58198D01*
X190988Y58231D01*
X191075Y58271D01*
X191165Y58302D01*
X191279Y58366D01*
X191397Y58420D01*
X191475Y58475D01*
X191558Y58522D01*
X191659Y58604D01*
X191766Y58679D01*
X191833Y58746D01*
X191907Y58807D01*
X191991Y58906D01*
X192083Y58998D01*
X192137Y59077D01*
X192199Y59149D01*
X192265Y59262D01*
X192339Y59369D01*
X192396Y59485D01*
X192427Y59538D01*
X192442Y59580D01*
X192476Y59649D01*
X193355Y61771D01*
X196499Y64915D01*
X197368Y65275D01*
X197555Y65373D01*
X197745Y65469D01*
X197755Y65477D01*
X197767Y65484D01*
X197935Y65614D01*
X198103Y65741D01*
X198112Y65751D01*
X198123Y65759D01*
X198265Y65917D01*
X198409Y66073D01*
X198416Y66084D01*
X198424Y66094D01*
X198537Y66274D01*
X198650Y66452D01*
X198655Y66465D01*
X198662Y66476D01*
X198741Y66672D01*
X198821Y66869D01*
X198824Y66882D01*
X198829Y66894D01*
X198871Y67101D01*
X198916Y67309D01*
X198917Y67325D01*
X198919Y67335D01*
X198920Y67374D01*
X198935Y67621D01*
X198935Y85004D01*
X198921Y85168D01*
X198914Y85333D01*
X198901Y85392D01*
X198895Y85453D01*
X198852Y85611D01*
X198816Y85772D01*
X198793Y85828D01*
X198777Y85887D01*
X198706Y86035D01*
X198643Y86188D01*
X198610Y86239D01*
X198583Y86294D01*
X198488Y86427D01*
X198398Y86566D01*
X198347Y86624D01*
X198321Y86660D01*
X198278Y86702D01*
X198192Y86800D01*
X197517Y87474D01*
X196557Y89792D01*
X196557Y92301D01*
X197517Y94619D01*
X199291Y96393D01*
X201609Y97353D01*
X204118Y97353D01*
X206436Y96393D01*
X208210Y94619D01*
X209171Y92301D01*
X209171Y89792D01*
X208210Y87474D01*
X207808Y87072D01*
X207703Y86946D01*
X207591Y86825D01*
X207559Y86774D01*
X207520Y86727D01*
X207438Y86584D01*
X207350Y86445D01*
X207326Y86389D01*
X207296Y86336D01*
X207241Y86181D01*
X207179Y86029D01*
X207166Y85969D01*
X207145Y85912D01*
X207119Y85749D01*
X207084Y85589D01*
X207079Y85512D01*
X207072Y85467D01*
X207073Y85406D01*
X207065Y85277D01*
X207065Y67480D01*
X207084Y67269D01*
X207100Y67058D01*
X207103Y67045D01*
X207105Y67032D01*
X207161Y66826D01*
X207214Y66622D01*
X207220Y66610D01*
X207223Y66597D01*
X207314Y66407D01*
X207403Y66213D01*
X207411Y66203D01*
X207417Y66191D01*
X207539Y66019D01*
X207662Y65845D01*
X207671Y65835D01*
X207679Y65825D01*
X207831Y65676D01*
X207981Y65527D01*
X207992Y65520D01*
X208001Y65511D01*
X208177Y65392D01*
X208351Y65271D01*
X208366Y65264D01*
X208374Y65258D01*
X208410Y65243D01*
X208632Y65134D01*
X209161Y64915D01*
X212305Y61771D01*
X214007Y57663D01*
X214007Y53217D01*
X212305Y49109D01*
X209161Y45965D01*
X205053Y44263D01*
X200607Y44263D01*
X196499Y45965D01*
X193355Y49109D01*
X192476Y51231D01*
X192416Y51346D01*
X192364Y51465D01*
X192312Y51545D01*
X192267Y51630D01*
X192188Y51733D01*
X192116Y51841D01*
X192050Y51910D01*
X191992Y51986D01*
X191895Y52073D01*
X191805Y52167D01*
X191728Y52223D01*
X191657Y52287D01*
X191547Y52356D01*
X191442Y52433D01*
X191356Y52475D01*
X191275Y52525D01*
X191154Y52573D01*
X191038Y52630D01*
X190946Y52657D01*
X190857Y52692D01*
X190729Y52718D01*
X190604Y52753D01*
X190509Y52763D01*
X190416Y52782D01*
X190286Y52785D01*
X190156Y52798D01*
X190061Y52791D01*
X189966Y52793D01*
X189837Y52773D01*
X189707Y52763D01*
X189615Y52739D01*
X189521Y52724D01*
X189397Y52682D01*
X189272Y52649D01*
X189185Y52609D01*
X189095Y52578D01*
X188981Y52514D01*
X188863Y52460D01*
X188785Y52405D01*
X188702Y52358D01*
X188601Y52276D01*
X188494Y52201D01*
X188427Y52133D01*
X188353Y52073D01*
X188269Y51974D01*
X188177Y51882D01*
X188123Y51803D01*
X188061Y51731D01*
X187995Y51618D01*
X187921Y51511D01*
X187864Y51395D01*
X187833Y51342D01*
X187818Y51300D01*
X187784Y51231D01*
X186905Y49109D01*
X183761Y45965D01*
X179653Y44263D01*
X175207Y44263D01*
G37*
%LPD*%
G36*
X652754Y40080D02*
X652754Y40080D01*
X652932Y40090D01*
X652978Y40100D01*
X653026Y40105D01*
X653197Y40151D01*
X653370Y40192D01*
X653414Y40211D01*
X653460Y40223D01*
X653620Y40299D01*
X653784Y40370D01*
X653824Y40396D01*
X653867Y40417D01*
X654011Y40520D01*
X654159Y40618D01*
X654194Y40651D01*
X654233Y40679D01*
X654357Y40806D01*
X654485Y40928D01*
X654514Y40967D01*
X654547Y41001D01*
X654646Y41149D01*
X654751Y41292D01*
X654772Y41335D01*
X654799Y41374D01*
X654871Y41537D01*
X654949Y41696D01*
X654962Y41742D01*
X654981Y41786D01*
X655023Y41959D01*
X655072Y42130D01*
X655077Y42177D01*
X655088Y42224D01*
X655099Y42401D01*
X655116Y42578D01*
X655113Y42625D01*
X655116Y42673D01*
X655095Y42850D01*
X655081Y43027D01*
X655069Y43073D01*
X655064Y43120D01*
X655012Y43291D01*
X654967Y43462D01*
X654947Y43505D01*
X654933Y43551D01*
X654853Y43710D01*
X654778Y43871D01*
X654751Y43910D01*
X654729Y43953D01*
X654622Y44094D01*
X654520Y44240D01*
X654486Y44273D01*
X654457Y44311D01*
X654326Y44432D01*
X654200Y44557D01*
X654161Y44584D01*
X654126Y44616D01*
X653976Y44712D01*
X653830Y44813D01*
X653777Y44839D01*
X653746Y44858D01*
X653688Y44882D01*
X653549Y44950D01*
X651099Y45965D01*
X647955Y49109D01*
X646253Y53217D01*
X646253Y57663D01*
X647955Y61771D01*
X651099Y64915D01*
X655207Y66617D01*
X655817Y66617D01*
X655980Y66631D01*
X656145Y66638D01*
X656204Y66651D01*
X656265Y66657D01*
X656424Y66700D01*
X656584Y66736D01*
X656641Y66759D01*
X656699Y66775D01*
X656848Y66846D01*
X657000Y66909D01*
X657051Y66942D01*
X657106Y66969D01*
X657240Y67064D01*
X657378Y67154D01*
X657436Y67205D01*
X657472Y67231D01*
X657515Y67274D01*
X657612Y67360D01*
X666192Y75940D01*
X666297Y76066D01*
X666409Y76187D01*
X666441Y76238D01*
X666480Y76285D01*
X666562Y76428D01*
X666650Y76567D01*
X666674Y76623D01*
X666704Y76676D01*
X666759Y76831D01*
X666821Y76983D01*
X666834Y77043D01*
X666855Y77101D01*
X666881Y77263D01*
X666916Y77424D01*
X666921Y77500D01*
X666928Y77545D01*
X666927Y77606D01*
X666935Y77735D01*
X666935Y79540D01*
X666921Y79704D01*
X666914Y79868D01*
X666901Y79928D01*
X666895Y79988D01*
X666852Y80147D01*
X666816Y80308D01*
X666793Y80364D01*
X666777Y80423D01*
X666706Y80571D01*
X666643Y80723D01*
X666610Y80775D01*
X666583Y80829D01*
X666488Y80963D01*
X666398Y81101D01*
X666347Y81159D01*
X666321Y81196D01*
X666278Y81238D01*
X666192Y81335D01*
X665140Y82387D01*
X665140Y95651D01*
X666033Y96544D01*
X668897Y96544D01*
X669026Y96555D01*
X669156Y96557D01*
X669250Y96575D01*
X669345Y96584D01*
X669471Y96618D01*
X669598Y96643D01*
X669687Y96677D01*
X669779Y96702D01*
X669897Y96758D01*
X670018Y96805D01*
X670100Y96855D01*
X670186Y96896D01*
X670292Y96971D01*
X670403Y97039D01*
X670474Y97102D01*
X670552Y97158D01*
X670643Y97251D01*
X670740Y97337D01*
X670799Y97412D01*
X670866Y97480D01*
X670939Y97588D01*
X671020Y97690D01*
X671065Y97774D01*
X671118Y97853D01*
X671171Y97972D01*
X671232Y98087D01*
X671262Y98178D01*
X671301Y98265D01*
X671331Y98392D01*
X671372Y98515D01*
X671385Y98610D01*
X671407Y98703D01*
X671415Y98832D01*
X671433Y98961D01*
X671429Y99057D01*
X671435Y99152D01*
X671420Y99281D01*
X671415Y99411D01*
X671394Y99504D01*
X671383Y99599D01*
X671345Y99724D01*
X671317Y99851D01*
X671280Y99939D01*
X671253Y100030D01*
X671194Y100146D01*
X671143Y100266D01*
X671091Y100347D01*
X671048Y100431D01*
X670970Y100535D01*
X670899Y100644D01*
X670813Y100742D01*
X670776Y100790D01*
X670743Y100821D01*
X670692Y100878D01*
X654554Y117016D01*
X653935Y118510D01*
X653935Y142403D01*
X653934Y142418D01*
X653934Y142424D01*
X653931Y142456D01*
X653924Y142533D01*
X653922Y142663D01*
X653904Y142756D01*
X653895Y142852D01*
X653861Y142978D01*
X653836Y143105D01*
X653802Y143194D01*
X653777Y143286D01*
X653721Y143403D01*
X653674Y143525D01*
X653624Y143607D01*
X653583Y143693D01*
X653508Y143798D01*
X653440Y143910D01*
X653377Y143981D01*
X653321Y144059D01*
X653228Y144150D01*
X653142Y144247D01*
X653067Y144306D01*
X652999Y144373D01*
X652891Y144446D01*
X652789Y144526D01*
X652705Y144572D01*
X652626Y144625D01*
X652507Y144678D01*
X652392Y144739D01*
X652301Y144769D01*
X652214Y144807D01*
X652087Y144838D01*
X651964Y144878D01*
X651869Y144891D01*
X651776Y144914D01*
X651647Y144922D01*
X651518Y144940D01*
X651422Y144936D01*
X651327Y144942D01*
X651198Y144927D01*
X651068Y144921D01*
X650975Y144901D01*
X650880Y144890D01*
X650755Y144852D01*
X650628Y144824D01*
X650540Y144787D01*
X650449Y144759D01*
X650333Y144700D01*
X650213Y144650D01*
X650133Y144598D01*
X650047Y144555D01*
X649967Y144494D01*
X640633Y144494D01*
X639591Y145536D01*
X639581Y145573D01*
X639525Y145690D01*
X639478Y145812D01*
X639429Y145894D01*
X639388Y145980D01*
X639312Y146085D01*
X639244Y146197D01*
X639181Y146268D01*
X639126Y146346D01*
X639032Y146437D01*
X638946Y146534D01*
X638871Y146593D01*
X638803Y146660D01*
X638695Y146733D01*
X638593Y146813D01*
X638509Y146859D01*
X638430Y146912D01*
X638311Y146965D01*
X638196Y147026D01*
X638105Y147056D01*
X638018Y147094D01*
X637892Y147125D01*
X637768Y147165D01*
X637673Y147178D01*
X637581Y147201D01*
X637451Y147209D01*
X637322Y147227D01*
X637227Y147223D01*
X637131Y147229D01*
X637002Y147214D01*
X636872Y147208D01*
X636779Y147188D01*
X636684Y147176D01*
X636559Y147139D01*
X636432Y147111D01*
X636345Y147074D01*
X636253Y147046D01*
X636137Y146987D01*
X636017Y146937D01*
X635937Y146885D01*
X635852Y146842D01*
X635748Y146763D01*
X635639Y146693D01*
X635614Y146671D01*
X633254Y145693D01*
X630746Y145693D01*
X629576Y146178D01*
X629497Y146203D01*
X629422Y146236D01*
X629283Y146270D01*
X629146Y146313D01*
X629064Y146323D01*
X628984Y146342D01*
X628842Y146351D01*
X628699Y146369D01*
X628617Y146365D01*
X628535Y146370D01*
X628393Y146354D01*
X628250Y146346D01*
X628170Y146328D01*
X628088Y146318D01*
X627950Y146277D01*
X627811Y146244D01*
X627736Y146212D01*
X627657Y146188D01*
X627529Y146123D01*
X627398Y146066D01*
X627329Y146021D01*
X627255Y145983D01*
X627141Y145897D01*
X627022Y145818D01*
X626962Y145761D01*
X626897Y145711D01*
X626800Y145606D01*
X626696Y145507D01*
X626647Y145441D01*
X626591Y145380D01*
X626514Y145259D01*
X626430Y145144D01*
X626394Y145070D01*
X626350Y145001D01*
X626295Y144868D01*
X626232Y144739D01*
X626210Y144660D01*
X626179Y144584D01*
X626149Y144444D01*
X626109Y144306D01*
X626101Y144224D01*
X626084Y144144D01*
X626069Y143898D01*
X626065Y143858D01*
X626066Y143848D01*
X626065Y143832D01*
X626065Y99735D01*
X626079Y99572D01*
X626086Y99407D01*
X626099Y99348D01*
X626105Y99287D01*
X626148Y99128D01*
X626184Y98968D01*
X626207Y98911D01*
X626223Y98853D01*
X626294Y98704D01*
X626357Y98552D01*
X626390Y98501D01*
X626417Y98446D01*
X626512Y98312D01*
X626602Y98174D01*
X626653Y98116D01*
X626679Y98080D01*
X626722Y98037D01*
X626808Y97940D01*
X631940Y92808D01*
X632066Y92703D01*
X632187Y92591D01*
X632238Y92559D01*
X632285Y92520D01*
X632428Y92438D01*
X632567Y92350D01*
X632623Y92326D01*
X632676Y92296D01*
X632831Y92241D01*
X632983Y92179D01*
X633043Y92166D01*
X633101Y92145D01*
X633263Y92119D01*
X633424Y92084D01*
X633500Y92079D01*
X633545Y92072D01*
X633606Y92073D01*
X633735Y92065D01*
X637200Y92065D01*
X637235Y92068D01*
X637269Y92066D01*
X637459Y92088D01*
X637649Y92105D01*
X637682Y92114D01*
X637717Y92118D01*
X637900Y92173D01*
X638083Y92223D01*
X638114Y92238D01*
X638148Y92248D01*
X638318Y92335D01*
X638490Y92417D01*
X638518Y92437D01*
X638549Y92452D01*
X638701Y92568D01*
X638856Y92679D01*
X638880Y92704D01*
X638908Y92724D01*
X639037Y92864D01*
X639170Y93001D01*
X639189Y93030D01*
X639213Y93056D01*
X639315Y93217D01*
X639422Y93374D01*
X639436Y93406D01*
X639455Y93435D01*
X639527Y93612D01*
X639604Y93786D01*
X639613Y93820D01*
X639626Y93852D01*
X639666Y94039D01*
X639711Y94224D01*
X639713Y94258D01*
X639720Y94292D01*
X639740Y94604D01*
X639740Y95651D01*
X640633Y96544D01*
X649896Y96544D01*
X650789Y95651D01*
X650789Y82387D01*
X649896Y81494D01*
X640633Y81494D01*
X639256Y82871D01*
X639237Y82897D01*
X639126Y83052D01*
X639101Y83076D01*
X639080Y83103D01*
X638940Y83232D01*
X638803Y83366D01*
X638774Y83385D01*
X638749Y83409D01*
X638588Y83511D01*
X638430Y83618D01*
X638398Y83632D01*
X638369Y83650D01*
X638193Y83723D01*
X638018Y83800D01*
X637984Y83808D01*
X637952Y83821D01*
X637766Y83861D01*
X637581Y83907D01*
X637546Y83909D01*
X637512Y83916D01*
X637200Y83935D01*
X630191Y83935D01*
X628698Y84554D01*
X627197Y86055D01*
X620400Y92852D01*
X620300Y92936D01*
X620207Y93026D01*
X620127Y93080D01*
X620054Y93141D01*
X619941Y93205D01*
X619834Y93278D01*
X619746Y93317D01*
X619663Y93364D01*
X619541Y93408D01*
X619422Y93461D01*
X619329Y93483D01*
X619239Y93515D01*
X619111Y93536D01*
X618984Y93567D01*
X618889Y93573D01*
X618795Y93589D01*
X618665Y93587D01*
X618535Y93595D01*
X618440Y93584D01*
X618344Y93583D01*
X618217Y93558D01*
X618088Y93543D01*
X617996Y93515D01*
X617902Y93497D01*
X617781Y93450D01*
X617657Y93413D01*
X617572Y93369D01*
X617482Y93335D01*
X617371Y93267D01*
X617255Y93208D01*
X617179Y93151D01*
X617098Y93101D01*
X617000Y93015D01*
X616897Y92936D01*
X616832Y92866D01*
X616760Y92803D01*
X616680Y92701D01*
X616591Y92605D01*
X616540Y92524D01*
X616481Y92450D01*
X616420Y92335D01*
X616350Y92225D01*
X616313Y92137D01*
X616268Y92053D01*
X616228Y91929D01*
X616179Y91809D01*
X616159Y91715D01*
X616129Y91624D01*
X616111Y91496D01*
X616084Y91369D01*
X616076Y91239D01*
X616068Y91178D01*
X616069Y91134D01*
X616065Y91057D01*
X616065Y57735D01*
X616079Y57572D01*
X616086Y57407D01*
X616099Y57348D01*
X616105Y57287D01*
X616148Y57128D01*
X616184Y56968D01*
X616207Y56911D01*
X616223Y56853D01*
X616294Y56704D01*
X616357Y56552D01*
X616390Y56501D01*
X616417Y56446D01*
X616512Y56312D01*
X616602Y56174D01*
X616653Y56116D01*
X616679Y56080D01*
X616722Y56037D01*
X616808Y55940D01*
X631940Y40808D01*
X632066Y40703D01*
X632187Y40591D01*
X632238Y40559D01*
X632285Y40520D01*
X632428Y40438D01*
X632567Y40350D01*
X632623Y40326D01*
X632676Y40296D01*
X632831Y40241D01*
X632983Y40179D01*
X633043Y40166D01*
X633101Y40145D01*
X633263Y40119D01*
X633424Y40084D01*
X633500Y40079D01*
X633545Y40072D01*
X633606Y40073D01*
X633735Y40065D01*
X652577Y40065D01*
X652754Y40080D01*
G37*
%LPC*%
G36*
X25137Y24043D02*
X25137Y24043D01*
X21029Y25745D01*
X17885Y28889D01*
X16183Y32997D01*
X16183Y33424D01*
X16169Y33588D01*
X16162Y33753D01*
X16149Y33812D01*
X16143Y33873D01*
X16100Y34032D01*
X16064Y34192D01*
X16041Y34248D01*
X16025Y34307D01*
X15954Y34455D01*
X15891Y34608D01*
X15858Y34659D01*
X15831Y34714D01*
X15736Y34847D01*
X15646Y34986D01*
X15595Y35044D01*
X15569Y35080D01*
X15526Y35123D01*
X15440Y35220D01*
X10401Y40259D01*
X9395Y42686D01*
X9395Y95094D01*
X10401Y97521D01*
X34722Y121842D01*
X34827Y121968D01*
X34939Y122089D01*
X34971Y122141D01*
X35010Y122188D01*
X35092Y122330D01*
X35180Y122469D01*
X35204Y122526D01*
X35234Y122578D01*
X35289Y122733D01*
X35351Y122886D01*
X35364Y122945D01*
X35385Y123003D01*
X35411Y123165D01*
X35446Y123326D01*
X35451Y123403D01*
X35458Y123447D01*
X35457Y123508D01*
X35465Y123638D01*
X35465Y143338D01*
X36643Y144515D01*
X47037Y144515D01*
X48215Y143338D01*
X48215Y122540D01*
X48225Y122424D01*
X48225Y122307D01*
X48245Y122200D01*
X48255Y122092D01*
X48285Y121979D01*
X48306Y121864D01*
X48357Y121718D01*
X48373Y121658D01*
X48389Y121625D01*
X48408Y121569D01*
X48605Y121094D01*
X48605Y118466D01*
X48408Y117992D01*
X48373Y117880D01*
X48329Y117772D01*
X48306Y117665D01*
X48273Y117562D01*
X48259Y117446D01*
X48234Y117332D01*
X48224Y117178D01*
X48217Y117115D01*
X48218Y117079D01*
X48215Y117020D01*
X48215Y114343D01*
X47037Y113165D01*
X45778Y113165D01*
X45614Y113151D01*
X45449Y113144D01*
X45390Y113131D01*
X45329Y113125D01*
X45170Y113082D01*
X45010Y113047D01*
X44954Y113023D01*
X44895Y113007D01*
X44747Y112937D01*
X44594Y112873D01*
X44543Y112840D01*
X44488Y112814D01*
X44355Y112718D01*
X44216Y112629D01*
X44158Y112578D01*
X44122Y112551D01*
X44079Y112508D01*
X43982Y112422D01*
X42636Y111076D01*
X42614Y111049D01*
X42588Y111026D01*
X42470Y110877D01*
X42347Y110730D01*
X42330Y110700D01*
X42308Y110673D01*
X42218Y110505D01*
X42124Y110339D01*
X42112Y110307D01*
X42096Y110276D01*
X42037Y110095D01*
X41973Y109915D01*
X41967Y109881D01*
X41957Y109848D01*
X41931Y109660D01*
X41899Y109471D01*
X41900Y109436D01*
X41895Y109402D01*
X41903Y109211D01*
X41906Y109021D01*
X41912Y108987D01*
X41914Y108952D01*
X41955Y108766D01*
X41991Y108579D01*
X42004Y108546D01*
X42011Y108512D01*
X42085Y108337D01*
X42153Y108159D01*
X42171Y108129D01*
X42185Y108097D01*
X42288Y107937D01*
X42387Y107774D01*
X42410Y107748D01*
X42429Y107719D01*
X42636Y107485D01*
X47599Y102521D01*
X48605Y100094D01*
X48605Y97466D01*
X47599Y95039D01*
X45741Y93181D01*
X43314Y92175D01*
X40686Y92175D01*
X38259Y93181D01*
X33296Y98144D01*
X33269Y98166D01*
X33246Y98192D01*
X33097Y98310D01*
X32950Y98433D01*
X32920Y98450D01*
X32893Y98472D01*
X32725Y98562D01*
X32559Y98656D01*
X32527Y98668D01*
X32496Y98684D01*
X32315Y98743D01*
X32135Y98807D01*
X32101Y98813D01*
X32068Y98824D01*
X31879Y98849D01*
X31691Y98881D01*
X31656Y98880D01*
X31622Y98885D01*
X31431Y98877D01*
X31240Y98875D01*
X31206Y98868D01*
X31172Y98867D01*
X30986Y98825D01*
X30798Y98789D01*
X30766Y98776D01*
X30732Y98769D01*
X30557Y98696D01*
X30378Y98627D01*
X30349Y98609D01*
X30317Y98595D01*
X30157Y98492D01*
X29994Y98393D01*
X29968Y98370D01*
X29939Y98351D01*
X29704Y98144D01*
X23348Y91788D01*
X23243Y91662D01*
X23131Y91541D01*
X23099Y91490D01*
X23060Y91443D01*
X22978Y91300D01*
X22890Y91161D01*
X22866Y91105D01*
X22836Y91052D01*
X22781Y90897D01*
X22719Y90745D01*
X22706Y90685D01*
X22685Y90627D01*
X22659Y90465D01*
X22624Y90304D01*
X22619Y90227D01*
X22612Y90183D01*
X22613Y90122D01*
X22605Y89993D01*
X22605Y78453D01*
X22619Y78289D01*
X22626Y78125D01*
X22639Y78066D01*
X22645Y78005D01*
X22688Y77846D01*
X22724Y77686D01*
X22747Y77629D01*
X22763Y77570D01*
X22834Y77422D01*
X22897Y77270D01*
X22930Y77219D01*
X22957Y77164D01*
X23052Y77030D01*
X23141Y76892D01*
X23193Y76834D01*
X23219Y76798D01*
X23262Y76755D01*
X23348Y76658D01*
X24204Y75802D01*
X24231Y75779D01*
X24254Y75754D01*
X24403Y75636D01*
X24550Y75513D01*
X24580Y75496D01*
X24607Y75474D01*
X24775Y75384D01*
X24941Y75290D01*
X24973Y75278D01*
X25004Y75262D01*
X25185Y75203D01*
X25365Y75139D01*
X25399Y75133D01*
X25432Y75122D01*
X25622Y75096D01*
X25809Y75065D01*
X25844Y75066D01*
X25878Y75061D01*
X26069Y75069D01*
X26259Y75071D01*
X26293Y75078D01*
X26328Y75079D01*
X26514Y75121D01*
X26702Y75157D01*
X26734Y75169D01*
X26768Y75177D01*
X26944Y75251D01*
X27122Y75319D01*
X27151Y75337D01*
X27183Y75351D01*
X27344Y75454D01*
X27506Y75553D01*
X27532Y75576D01*
X27561Y75595D01*
X27796Y75802D01*
X28868Y76875D01*
X40632Y76875D01*
X41525Y75982D01*
X41525Y63918D01*
X40632Y63025D01*
X28868Y63025D01*
X27796Y64098D01*
X27769Y64121D01*
X27746Y64146D01*
X27597Y64264D01*
X27450Y64387D01*
X27420Y64404D01*
X27393Y64426D01*
X27225Y64516D01*
X27059Y64610D01*
X27027Y64622D01*
X26996Y64638D01*
X26815Y64697D01*
X26635Y64761D01*
X26601Y64767D01*
X26568Y64778D01*
X26379Y64804D01*
X26191Y64835D01*
X26156Y64834D01*
X26122Y64839D01*
X25931Y64831D01*
X25740Y64829D01*
X25706Y64822D01*
X25672Y64821D01*
X25486Y64779D01*
X25298Y64743D01*
X25266Y64731D01*
X25232Y64723D01*
X25056Y64650D01*
X24878Y64581D01*
X24849Y64563D01*
X24817Y64549D01*
X24657Y64446D01*
X24494Y64347D01*
X24468Y64324D01*
X24439Y64305D01*
X24204Y64098D01*
X23348Y63242D01*
X23243Y63116D01*
X23131Y62995D01*
X23099Y62944D01*
X23060Y62897D01*
X22978Y62754D01*
X22890Y62615D01*
X22866Y62559D01*
X22836Y62506D01*
X22781Y62351D01*
X22719Y62199D01*
X22706Y62139D01*
X22685Y62082D01*
X22659Y61919D01*
X22624Y61759D01*
X22619Y61682D01*
X22612Y61637D01*
X22613Y61576D01*
X22605Y61447D01*
X22605Y48936D01*
X22608Y48901D01*
X22606Y48867D01*
X22628Y48678D01*
X22645Y48487D01*
X22654Y48454D01*
X22658Y48420D01*
X22713Y48237D01*
X22763Y48053D01*
X22778Y48022D01*
X22788Y47989D01*
X22875Y47818D01*
X22957Y47646D01*
X22977Y47618D01*
X22992Y47587D01*
X23108Y47435D01*
X23219Y47280D01*
X23244Y47256D01*
X23264Y47229D01*
X23404Y47100D01*
X23541Y46966D01*
X23570Y46947D01*
X23596Y46923D01*
X23757Y46821D01*
X23914Y46714D01*
X23946Y46700D01*
X23975Y46682D01*
X24152Y46609D01*
X24326Y46532D01*
X24360Y46524D01*
X24392Y46511D01*
X24579Y46471D01*
X24764Y46425D01*
X24798Y46423D01*
X24832Y46416D01*
X25144Y46397D01*
X29583Y46397D01*
X33691Y44695D01*
X36835Y41551D01*
X37714Y39429D01*
X37774Y39314D01*
X37826Y39195D01*
X37878Y39115D01*
X37923Y39030D01*
X38002Y38928D01*
X38074Y38819D01*
X38140Y38750D01*
X38198Y38674D01*
X38295Y38587D01*
X38384Y38493D01*
X38462Y38437D01*
X38532Y38373D01*
X38643Y38304D01*
X38748Y38227D01*
X38834Y38185D01*
X38915Y38135D01*
X39036Y38087D01*
X39152Y38030D01*
X39244Y38003D01*
X39333Y37968D01*
X39460Y37942D01*
X39586Y37907D01*
X39681Y37897D01*
X39774Y37878D01*
X39904Y37875D01*
X40034Y37862D01*
X40129Y37869D01*
X40224Y37867D01*
X40353Y37887D01*
X40483Y37897D01*
X40575Y37921D01*
X40669Y37936D01*
X40793Y37978D01*
X40918Y38011D01*
X41005Y38051D01*
X41095Y38082D01*
X41209Y38146D01*
X41327Y38200D01*
X41405Y38255D01*
X41488Y38302D01*
X41589Y38384D01*
X41696Y38459D01*
X41763Y38526D01*
X41837Y38587D01*
X41921Y38686D01*
X42013Y38778D01*
X42067Y38857D01*
X42129Y38929D01*
X42195Y39042D01*
X42269Y39149D01*
X42326Y39265D01*
X42357Y39318D01*
X42372Y39360D01*
X42406Y39429D01*
X43285Y41551D01*
X46429Y44695D01*
X50537Y46397D01*
X54983Y46397D01*
X59091Y44695D01*
X62235Y41551D01*
X63937Y37443D01*
X63937Y32997D01*
X62235Y28889D01*
X59091Y25745D01*
X54983Y24043D01*
X50537Y24043D01*
X46429Y25745D01*
X43285Y28889D01*
X42406Y31011D01*
X42346Y31126D01*
X42294Y31245D01*
X42242Y31325D01*
X42197Y31410D01*
X42118Y31513D01*
X42046Y31621D01*
X41980Y31690D01*
X41922Y31766D01*
X41825Y31853D01*
X41735Y31947D01*
X41658Y32003D01*
X41587Y32067D01*
X41477Y32136D01*
X41372Y32213D01*
X41286Y32255D01*
X41205Y32305D01*
X41084Y32353D01*
X40968Y32410D01*
X40876Y32437D01*
X40787Y32472D01*
X40659Y32498D01*
X40534Y32533D01*
X40439Y32543D01*
X40346Y32562D01*
X40216Y32565D01*
X40086Y32578D01*
X39991Y32571D01*
X39896Y32573D01*
X39767Y32553D01*
X39637Y32543D01*
X39545Y32519D01*
X39451Y32504D01*
X39327Y32462D01*
X39202Y32429D01*
X39115Y32389D01*
X39025Y32358D01*
X38911Y32294D01*
X38793Y32240D01*
X38715Y32185D01*
X38632Y32138D01*
X38531Y32056D01*
X38424Y31981D01*
X38357Y31913D01*
X38283Y31853D01*
X38199Y31754D01*
X38107Y31662D01*
X38053Y31583D01*
X37991Y31511D01*
X37925Y31398D01*
X37851Y31291D01*
X37794Y31175D01*
X37763Y31122D01*
X37748Y31080D01*
X37714Y31011D01*
X36835Y28889D01*
X33691Y25745D01*
X29583Y24043D01*
X25137Y24043D01*
G37*
%LPD*%
%LPC*%
G36*
X82870Y78803D02*
X82870Y78803D01*
X82850Y78979D01*
X82836Y79025D01*
X82829Y79072D01*
X82771Y79240D01*
X82720Y79410D01*
X82698Y79453D01*
X82682Y79498D01*
X82596Y79653D01*
X82515Y79811D01*
X82486Y79849D01*
X82463Y79891D01*
X82350Y80029D01*
X82243Y80170D01*
X82208Y80203D01*
X82178Y80240D01*
X82043Y80355D01*
X81912Y80475D01*
X81872Y80501D01*
X81835Y80532D01*
X81682Y80621D01*
X81532Y80717D01*
X81488Y80735D01*
X81447Y80759D01*
X81280Y80821D01*
X81116Y80888D01*
X81069Y80898D01*
X81024Y80915D01*
X80849Y80945D01*
X80675Y80983D01*
X80616Y80986D01*
X80581Y80993D01*
X80518Y80993D01*
X80364Y81002D01*
X76204Y81002D01*
X75311Y81895D01*
X75311Y95238D01*
X75652Y95579D01*
X75757Y95705D01*
X75869Y95826D01*
X75901Y95878D01*
X75940Y95925D01*
X76022Y96067D01*
X76110Y96206D01*
X76134Y96263D01*
X76164Y96315D01*
X76219Y96470D01*
X76281Y96623D01*
X76294Y96682D01*
X76315Y96740D01*
X76341Y96902D01*
X76376Y97063D01*
X76381Y97140D01*
X76388Y97184D01*
X76387Y97245D01*
X76395Y97375D01*
X76395Y116094D01*
X77401Y118521D01*
X80522Y121642D01*
X80627Y121768D01*
X80739Y121889D01*
X80771Y121941D01*
X80810Y121988D01*
X80892Y122130D01*
X80980Y122269D01*
X81004Y122326D01*
X81034Y122378D01*
X81089Y122533D01*
X81151Y122686D01*
X81164Y122745D01*
X81185Y122803D01*
X81211Y122965D01*
X81246Y123126D01*
X81251Y123203D01*
X81258Y123247D01*
X81257Y123308D01*
X81265Y123438D01*
X81265Y143338D01*
X82443Y144515D01*
X92837Y144515D01*
X94015Y143338D01*
X94015Y129924D01*
X94018Y129890D01*
X94016Y129855D01*
X94038Y129666D01*
X94055Y129476D01*
X94064Y129442D01*
X94068Y129408D01*
X94123Y129224D01*
X94173Y129041D01*
X94188Y129010D01*
X94198Y128977D01*
X94285Y128806D01*
X94367Y128635D01*
X94387Y128607D01*
X94402Y128576D01*
X94518Y128423D01*
X94629Y128269D01*
X94654Y128244D01*
X94674Y128217D01*
X94814Y128088D01*
X94951Y127954D01*
X94980Y127935D01*
X95006Y127912D01*
X95167Y127809D01*
X95324Y127702D01*
X95356Y127688D01*
X95385Y127670D01*
X95562Y127597D01*
X95736Y127520D01*
X95770Y127512D01*
X95802Y127499D01*
X95989Y127459D01*
X96174Y127414D01*
X96208Y127411D01*
X96242Y127404D01*
X96554Y127385D01*
X139534Y127385D01*
X141961Y126379D01*
X151599Y116741D01*
X152605Y114314D01*
X152605Y111686D01*
X151599Y109259D01*
X149741Y107401D01*
X147314Y106395D01*
X144686Y106395D01*
X142259Y107401D01*
X136228Y113432D01*
X136102Y113537D01*
X135981Y113649D01*
X135929Y113681D01*
X135882Y113721D01*
X135740Y113802D01*
X135601Y113890D01*
X135544Y113914D01*
X135491Y113944D01*
X135337Y113999D01*
X135184Y114061D01*
X135125Y114074D01*
X135067Y114095D01*
X134905Y114122D01*
X134744Y114156D01*
X134667Y114161D01*
X134623Y114168D01*
X134562Y114167D01*
X134432Y114175D01*
X134046Y114175D01*
X134012Y114172D01*
X133977Y114174D01*
X133788Y114152D01*
X133598Y114135D01*
X133564Y114126D01*
X133530Y114122D01*
X133347Y114067D01*
X133163Y114017D01*
X133132Y114002D01*
X133099Y113992D01*
X132928Y113905D01*
X132757Y113824D01*
X132729Y113803D01*
X132698Y113788D01*
X132546Y113672D01*
X132391Y113561D01*
X132366Y113537D01*
X132339Y113516D01*
X132210Y113376D01*
X132077Y113239D01*
X132057Y113210D01*
X132034Y113185D01*
X131931Y113023D01*
X131824Y112866D01*
X131810Y112834D01*
X131792Y112805D01*
X131719Y112628D01*
X131642Y112454D01*
X131634Y112420D01*
X131621Y112388D01*
X131581Y112202D01*
X131536Y112016D01*
X131533Y111982D01*
X131526Y111948D01*
X131507Y111636D01*
X131507Y110900D01*
X130434Y109827D01*
X130412Y109800D01*
X130386Y109778D01*
X130268Y109628D01*
X130145Y109482D01*
X130128Y109452D01*
X130106Y109424D01*
X130016Y109255D01*
X129922Y109091D01*
X129910Y109058D01*
X129894Y109028D01*
X129835Y108846D01*
X129771Y108667D01*
X129765Y108632D01*
X129755Y108599D01*
X129729Y108410D01*
X129697Y108222D01*
X129698Y108188D01*
X129693Y108153D01*
X129701Y107963D01*
X129704Y107772D01*
X129710Y107738D01*
X129712Y107703D01*
X129753Y107517D01*
X129789Y107330D01*
X129802Y107298D01*
X129809Y107264D01*
X129882Y107088D01*
X129951Y106910D01*
X129969Y106880D01*
X129983Y106848D01*
X130086Y106688D01*
X130185Y106525D01*
X130208Y106499D01*
X130227Y106470D01*
X130434Y106236D01*
X131507Y105163D01*
X131507Y93400D01*
X130614Y92507D01*
X118551Y92507D01*
X117657Y93400D01*
X117657Y105163D01*
X118730Y106236D01*
X118753Y106263D01*
X118779Y106286D01*
X118897Y106435D01*
X119019Y106581D01*
X119037Y106612D01*
X119058Y106639D01*
X119148Y106807D01*
X119243Y106972D01*
X119254Y107005D01*
X119271Y107036D01*
X119329Y107216D01*
X119393Y107397D01*
X119399Y107431D01*
X119410Y107464D01*
X119436Y107653D01*
X119467Y107841D01*
X119466Y107875D01*
X119471Y107910D01*
X119463Y108101D01*
X119461Y108291D01*
X119454Y108325D01*
X119453Y108360D01*
X119412Y108546D01*
X119375Y108733D01*
X119363Y108765D01*
X119355Y108799D01*
X119282Y108976D01*
X119213Y109153D01*
X119195Y109183D01*
X119182Y109215D01*
X119078Y109375D01*
X118979Y109538D01*
X118956Y109564D01*
X118937Y109593D01*
X118730Y109827D01*
X117657Y110900D01*
X117657Y111636D01*
X117654Y111671D01*
X117657Y111705D01*
X117634Y111895D01*
X117618Y112085D01*
X117608Y112118D01*
X117604Y112152D01*
X117549Y112335D01*
X117499Y112519D01*
X117484Y112550D01*
X117474Y112583D01*
X117387Y112754D01*
X117306Y112926D01*
X117286Y112954D01*
X117270Y112985D01*
X117155Y113137D01*
X117044Y113292D01*
X117019Y113316D01*
X116998Y113343D01*
X116858Y113473D01*
X116721Y113606D01*
X116692Y113625D01*
X116667Y113649D01*
X116506Y113751D01*
X116348Y113858D01*
X116316Y113872D01*
X116287Y113890D01*
X116110Y113963D01*
X115936Y114040D01*
X115902Y114048D01*
X115870Y114061D01*
X115684Y114102D01*
X115499Y114147D01*
X115464Y114149D01*
X115430Y114156D01*
X115118Y114175D01*
X94899Y114175D01*
X94736Y114161D01*
X94571Y114154D01*
X94512Y114141D01*
X94451Y114135D01*
X94292Y114092D01*
X94132Y114057D01*
X94075Y114033D01*
X94016Y114017D01*
X93868Y113947D01*
X93716Y113883D01*
X93665Y113850D01*
X93610Y113824D01*
X93476Y113728D01*
X93338Y113639D01*
X93280Y113588D01*
X93244Y113561D01*
X93201Y113518D01*
X93104Y113432D01*
X92837Y113165D01*
X92144Y113165D01*
X92109Y113162D01*
X92075Y113164D01*
X91886Y113142D01*
X91695Y113125D01*
X91662Y113116D01*
X91628Y113112D01*
X91445Y113057D01*
X91261Y113007D01*
X91230Y112992D01*
X91197Y112982D01*
X91026Y112895D01*
X90854Y112814D01*
X90826Y112793D01*
X90795Y112778D01*
X90643Y112662D01*
X90488Y112551D01*
X90464Y112527D01*
X90437Y112506D01*
X90308Y112366D01*
X90174Y112229D01*
X90155Y112200D01*
X90131Y112175D01*
X90029Y112014D01*
X89922Y111856D01*
X89908Y111824D01*
X89890Y111795D01*
X89817Y111618D01*
X89740Y111444D01*
X89732Y111410D01*
X89719Y111378D01*
X89679Y111192D01*
X89633Y111006D01*
X89631Y110972D01*
X89624Y110938D01*
X89605Y110626D01*
X89605Y97126D01*
X89619Y96962D01*
X89626Y96797D01*
X89639Y96738D01*
X89645Y96677D01*
X89688Y96518D01*
X89724Y96358D01*
X89747Y96302D01*
X89763Y96243D01*
X89834Y96095D01*
X89897Y95942D01*
X89930Y95891D01*
X89957Y95836D01*
X90052Y95703D01*
X90142Y95564D01*
X90193Y95506D01*
X90219Y95470D01*
X90262Y95427D01*
X90348Y95330D01*
X90440Y95238D01*
X90440Y81895D01*
X89547Y81002D01*
X85387Y81002D01*
X85210Y80986D01*
X85033Y80977D01*
X84987Y80966D01*
X84939Y80962D01*
X84767Y80915D01*
X84595Y80875D01*
X84551Y80856D01*
X84504Y80844D01*
X84344Y80768D01*
X84181Y80697D01*
X84141Y80671D01*
X84098Y80650D01*
X83954Y80547D01*
X83805Y80449D01*
X83771Y80416D01*
X83732Y80388D01*
X83608Y80261D01*
X83479Y80138D01*
X83451Y80100D01*
X83418Y80065D01*
X83318Y79918D01*
X83213Y79775D01*
X83192Y79732D01*
X83166Y79692D01*
X83094Y79530D01*
X83016Y79370D01*
X83003Y79324D01*
X82983Y79281D01*
X82941Y79108D01*
X82893Y78937D01*
X82888Y78890D01*
X82877Y78843D01*
X82873Y78785D01*
X82870Y78803D01*
G37*
%LPD*%
%LPC*%
G36*
X226507Y240696D02*
X226507Y240696D01*
X219156Y243741D01*
X213530Y249367D01*
X210485Y256718D01*
X210485Y264675D01*
X213530Y272026D01*
X219156Y277653D01*
X226507Y280698D01*
X234464Y280698D01*
X241815Y277653D01*
X247441Y272026D01*
X250486Y264675D01*
X250486Y256718D01*
X247441Y249367D01*
X241815Y243741D01*
X234464Y240696D01*
X226507Y240696D01*
G37*
%LPD*%
%LPC*%
G36*
X97194Y8208D02*
X97194Y8208D01*
X89843Y11253D01*
X84217Y16879D01*
X81172Y24230D01*
X81172Y32187D01*
X84217Y39538D01*
X89843Y45164D01*
X97194Y48209D01*
X105151Y48209D01*
X112502Y45164D01*
X118128Y39538D01*
X121173Y32187D01*
X121173Y24230D01*
X118128Y16879D01*
X112502Y11253D01*
X105151Y8208D01*
X97194Y8208D01*
G37*
%LPD*%
%LPC*%
G36*
X181167Y105257D02*
X181167Y105257D01*
X180274Y106150D01*
X180274Y114470D01*
X180272Y114486D01*
X180273Y114492D01*
X180268Y114530D01*
X180262Y114600D01*
X180260Y114730D01*
X180242Y114823D01*
X180234Y114919D01*
X180200Y115044D01*
X180175Y115172D01*
X180140Y115261D01*
X180115Y115353D01*
X180060Y115470D01*
X180013Y115592D01*
X179963Y115674D01*
X179922Y115760D01*
X179846Y115865D01*
X179779Y115977D01*
X179715Y116048D01*
X179660Y116126D01*
X179567Y116217D01*
X179480Y116314D01*
X179406Y116373D01*
X179337Y116440D01*
X179269Y116486D01*
X179315Y116520D01*
X179424Y116590D01*
X179521Y116676D01*
X179570Y116713D01*
X179600Y116746D01*
X179658Y116797D01*
X181167Y118306D01*
X196430Y118306D01*
X197340Y117396D01*
X197346Y117346D01*
X197363Y117155D01*
X197372Y117122D01*
X197376Y117088D01*
X197432Y116905D01*
X197482Y116721D01*
X197496Y116690D01*
X197507Y116657D01*
X197593Y116486D01*
X197675Y116314D01*
X197695Y116286D01*
X197711Y116255D01*
X197826Y116103D01*
X197937Y115948D01*
X197962Y115924D01*
X197983Y115897D01*
X198123Y115767D01*
X198260Y115634D01*
X198289Y115615D01*
X198314Y115591D01*
X198475Y115489D01*
X198633Y115382D01*
X198665Y115368D01*
X198694Y115350D01*
X198870Y115277D01*
X199045Y115200D01*
X199078Y115192D01*
X199110Y115179D01*
X199297Y115139D01*
X199482Y115093D01*
X199517Y115091D01*
X199551Y115084D01*
X199862Y115065D01*
X208265Y115065D01*
X208428Y115079D01*
X208593Y115086D01*
X208652Y115099D01*
X208713Y115105D01*
X208872Y115148D01*
X209032Y115184D01*
X209089Y115207D01*
X209147Y115223D01*
X209295Y115294D01*
X209448Y115357D01*
X209499Y115390D01*
X209554Y115417D01*
X209688Y115512D01*
X209826Y115602D01*
X209884Y115653D01*
X209920Y115679D01*
X209963Y115722D01*
X210060Y115808D01*
X212133Y117882D01*
X212239Y118008D01*
X212350Y118129D01*
X212383Y118180D01*
X212422Y118227D01*
X212504Y118370D01*
X212592Y118509D01*
X212615Y118565D01*
X212646Y118618D01*
X212701Y118773D01*
X212763Y118925D01*
X212776Y118985D01*
X212796Y119042D01*
X212823Y119205D01*
X212858Y119365D01*
X212863Y119442D01*
X212870Y119487D01*
X212869Y119548D01*
X212877Y119677D01*
X212877Y125522D01*
X213950Y126595D01*
X213972Y126622D01*
X213998Y126645D01*
X214117Y126794D01*
X214239Y126941D01*
X214256Y126971D01*
X214278Y126998D01*
X214368Y127166D01*
X214462Y127332D01*
X214474Y127364D01*
X214490Y127395D01*
X214549Y127576D01*
X214613Y127756D01*
X214619Y127790D01*
X214630Y127823D01*
X214656Y128012D01*
X214687Y128200D01*
X214686Y128235D01*
X214691Y128269D01*
X214683Y128459D01*
X214681Y128650D01*
X214674Y128684D01*
X214673Y128719D01*
X214631Y128905D01*
X214595Y129092D01*
X214582Y129125D01*
X214575Y129158D01*
X214502Y129334D01*
X214433Y129512D01*
X214415Y129542D01*
X214401Y129574D01*
X214298Y129734D01*
X214199Y129897D01*
X214176Y129923D01*
X214157Y129952D01*
X213950Y130186D01*
X212877Y131259D01*
X212877Y143022D01*
X213770Y143915D01*
X225833Y143915D01*
X226727Y143022D01*
X226727Y131259D01*
X225654Y130186D01*
X225632Y130160D01*
X225606Y130137D01*
X225487Y129987D01*
X225365Y129841D01*
X225348Y129811D01*
X225326Y129784D01*
X225236Y129615D01*
X225141Y129450D01*
X225130Y129417D01*
X225113Y129387D01*
X225055Y129206D01*
X224991Y129026D01*
X224985Y128991D01*
X224974Y128959D01*
X224948Y128770D01*
X224917Y128581D01*
X224918Y128547D01*
X224913Y128513D01*
X224921Y128321D01*
X224923Y128131D01*
X224930Y128097D01*
X224931Y128063D01*
X224973Y127876D01*
X225009Y127689D01*
X225021Y127657D01*
X225029Y127623D01*
X225103Y127447D01*
X225171Y127269D01*
X225189Y127240D01*
X225202Y127208D01*
X225306Y127047D01*
X225405Y126884D01*
X225428Y126858D01*
X225447Y126829D01*
X225654Y126595D01*
X227440Y124808D01*
X227566Y124703D01*
X227687Y124591D01*
X227739Y124559D01*
X227786Y124520D01*
X227928Y124438D01*
X228067Y124350D01*
X228124Y124326D01*
X228177Y124296D01*
X228332Y124241D01*
X228484Y124179D01*
X228543Y124166D01*
X228601Y124145D01*
X228763Y124119D01*
X228924Y124084D01*
X229001Y124079D01*
X229045Y124072D01*
X229106Y124073D01*
X229236Y124065D01*
X232094Y124065D01*
X232258Y124079D01*
X232422Y124086D01*
X232482Y124099D01*
X232542Y124105D01*
X232701Y124148D01*
X232862Y124184D01*
X232918Y124207D01*
X232977Y124223D01*
X233125Y124294D01*
X233277Y124357D01*
X233328Y124390D01*
X233383Y124417D01*
X233517Y124512D01*
X233655Y124602D01*
X233713Y124653D01*
X233749Y124679D01*
X233792Y124722D01*
X233889Y124808D01*
X234428Y125347D01*
X236746Y126307D01*
X239254Y126307D01*
X241572Y125347D01*
X243347Y123572D01*
X244307Y121254D01*
X244307Y118746D01*
X243347Y116428D01*
X241572Y114653D01*
X239254Y113693D01*
X236746Y113693D01*
X234428Y114653D01*
X233889Y115192D01*
X233763Y115297D01*
X233642Y115409D01*
X233591Y115441D01*
X233544Y115480D01*
X233401Y115562D01*
X233263Y115650D01*
X233206Y115674D01*
X233153Y115704D01*
X232998Y115759D01*
X232846Y115821D01*
X232786Y115834D01*
X232729Y115855D01*
X232566Y115881D01*
X232406Y115916D01*
X232329Y115921D01*
X232285Y115928D01*
X232223Y115927D01*
X232094Y115935D01*
X229266Y115935D01*
X229231Y115932D01*
X229197Y115934D01*
X229007Y115912D01*
X228817Y115895D01*
X228784Y115886D01*
X228750Y115882D01*
X228567Y115827D01*
X228383Y115777D01*
X228352Y115762D01*
X228319Y115752D01*
X228148Y115665D01*
X227976Y115583D01*
X227948Y115563D01*
X227917Y115548D01*
X227765Y115432D01*
X227610Y115321D01*
X227586Y115296D01*
X227559Y115276D01*
X227429Y115136D01*
X227296Y114999D01*
X227277Y114970D01*
X227253Y114944D01*
X227151Y114783D01*
X227044Y114626D01*
X227030Y114594D01*
X227012Y114565D01*
X226939Y114388D01*
X226862Y114214D01*
X226854Y114180D01*
X226841Y114148D01*
X226800Y113961D01*
X226759Y113792D01*
X225833Y112866D01*
X219666Y112866D01*
X219502Y112851D01*
X219338Y112845D01*
X219279Y112831D01*
X219218Y112826D01*
X219059Y112783D01*
X218898Y112747D01*
X218842Y112724D01*
X218783Y112708D01*
X218635Y112637D01*
X218483Y112574D01*
X218432Y112540D01*
X218377Y112514D01*
X218243Y112419D01*
X218105Y112329D01*
X218047Y112278D01*
X218011Y112252D01*
X217968Y112208D01*
X217871Y112122D01*
X213302Y107554D01*
X211809Y106935D01*
X199160Y106935D01*
X198997Y106921D01*
X198832Y106914D01*
X198773Y106901D01*
X198712Y106895D01*
X198553Y106852D01*
X198392Y106816D01*
X198336Y106793D01*
X198277Y106777D01*
X198129Y106706D01*
X197977Y106643D01*
X197926Y106610D01*
X197871Y106583D01*
X197737Y106488D01*
X197599Y106398D01*
X197541Y106347D01*
X197505Y106321D01*
X197462Y106278D01*
X197365Y106192D01*
X196430Y105257D01*
X181167Y105257D01*
G37*
%LPD*%
%LPC*%
G36*
X748133Y81494D02*
X748133Y81494D01*
X747240Y82387D01*
X747240Y95544D01*
X747232Y95626D01*
X747234Y95708D01*
X747212Y95849D01*
X747200Y95992D01*
X747178Y96072D01*
X747165Y96153D01*
X747119Y96288D01*
X747081Y96427D01*
X747046Y96501D01*
X747019Y96579D01*
X746949Y96704D01*
X746888Y96833D01*
X746840Y96900D01*
X746800Y96972D01*
X746709Y97083D01*
X746626Y97199D01*
X746567Y97257D01*
X746514Y97320D01*
X746406Y97413D01*
X746303Y97513D01*
X746235Y97560D01*
X746172Y97613D01*
X746049Y97685D01*
X745930Y97765D01*
X745854Y97799D01*
X745783Y97840D01*
X745649Y97890D01*
X745518Y97948D01*
X745438Y97967D01*
X745361Y97996D01*
X745220Y98020D01*
X745081Y98054D01*
X744999Y98059D01*
X744917Y98074D01*
X744774Y98073D01*
X744631Y98082D01*
X744549Y98072D01*
X744467Y98072D01*
X744326Y98047D01*
X744184Y98030D01*
X744105Y98006D01*
X744024Y97991D01*
X743791Y97911D01*
X743753Y97900D01*
X743744Y97895D01*
X743729Y97890D01*
X743254Y97693D01*
X740746Y97693D01*
X738428Y98653D01*
X736653Y100428D01*
X735693Y102746D01*
X735693Y105254D01*
X736653Y107572D01*
X738428Y109347D01*
X740746Y110307D01*
X743254Y110307D01*
X745572Y109347D01*
X746111Y108808D01*
X746237Y108703D01*
X746358Y108591D01*
X746409Y108559D01*
X746456Y108520D01*
X746599Y108438D01*
X746737Y108350D01*
X746794Y108326D01*
X746847Y108296D01*
X747002Y108241D01*
X747154Y108179D01*
X747214Y108166D01*
X747271Y108145D01*
X747434Y108119D01*
X747594Y108084D01*
X747671Y108079D01*
X747715Y108072D01*
X747777Y108073D01*
X747791Y108072D01*
X749302Y107446D01*
X756264Y100484D01*
X756883Y98990D01*
X756883Y98108D01*
X756898Y97944D01*
X756905Y97780D01*
X756918Y97720D01*
X756923Y97660D01*
X756967Y97501D01*
X757002Y97340D01*
X757026Y97284D01*
X757042Y97225D01*
X757112Y97077D01*
X757176Y96925D01*
X757209Y96873D01*
X757235Y96819D01*
X757331Y96685D01*
X757420Y96547D01*
X757471Y96489D01*
X757497Y96453D01*
X757541Y96410D01*
X757627Y96313D01*
X758289Y95651D01*
X758289Y82387D01*
X757396Y81494D01*
X748133Y81494D01*
G37*
%LPD*%
%LPC*%
G36*
X748133Y144494D02*
X748133Y144494D01*
X746692Y145935D01*
X746626Y146028D01*
X746567Y146085D01*
X746514Y146149D01*
X746406Y146242D01*
X746303Y146342D01*
X746235Y146388D01*
X746172Y146441D01*
X746049Y146514D01*
X745930Y146594D01*
X745855Y146627D01*
X745783Y146669D01*
X745649Y146718D01*
X745518Y146776D01*
X745438Y146796D01*
X745361Y146824D01*
X745220Y146849D01*
X745081Y146883D01*
X744999Y146888D01*
X744917Y146902D01*
X744774Y146902D01*
X744631Y146910D01*
X744549Y146901D01*
X744467Y146901D01*
X744326Y146875D01*
X744184Y146858D01*
X744105Y146834D01*
X744024Y146820D01*
X743791Y146740D01*
X743753Y146728D01*
X743744Y146723D01*
X743729Y146718D01*
X741254Y145693D01*
X738746Y145693D01*
X736428Y146653D01*
X734653Y148428D01*
X733693Y150746D01*
X733693Y153254D01*
X734653Y155572D01*
X736428Y157347D01*
X738746Y158307D01*
X741254Y158307D01*
X743729Y157282D01*
X743807Y157257D01*
X743883Y157224D01*
X744022Y157190D01*
X744158Y157147D01*
X744240Y157137D01*
X744320Y157117D01*
X744463Y157108D01*
X744605Y157090D01*
X744687Y157095D01*
X744769Y157090D01*
X744912Y157106D01*
X745055Y157113D01*
X745135Y157132D01*
X745217Y157142D01*
X745354Y157183D01*
X745493Y157216D01*
X745569Y157248D01*
X745648Y157272D01*
X745775Y157337D01*
X745907Y157393D01*
X745976Y157439D01*
X746049Y157476D01*
X746163Y157563D01*
X746282Y157642D01*
X746342Y157698D01*
X746408Y157748D01*
X746505Y157854D01*
X746608Y157952D01*
X746657Y158019D01*
X746713Y158079D01*
X746790Y158200D01*
X746791Y158202D01*
X748133Y159544D01*
X757396Y159544D01*
X758289Y158651D01*
X758289Y145387D01*
X757396Y144494D01*
X748133Y144494D01*
G37*
%LPD*%
%LPC*%
G36*
X81371Y61002D02*
X81371Y61002D01*
X78590Y62154D01*
X76462Y64282D01*
X75311Y67062D01*
X75311Y70071D01*
X76462Y72852D01*
X78590Y74980D01*
X81335Y76117D01*
X81493Y76199D01*
X81653Y76275D01*
X81692Y76303D01*
X81734Y76325D01*
X81875Y76434D01*
X82019Y76537D01*
X82053Y76572D01*
X82090Y76601D01*
X82209Y76733D01*
X82333Y76860D01*
X82360Y76900D01*
X82392Y76935D01*
X82486Y77086D01*
X82585Y77233D01*
X82605Y77277D01*
X82630Y77318D01*
X82695Y77482D01*
X82768Y77645D01*
X82779Y77691D01*
X82797Y77736D01*
X82832Y77910D01*
X82874Y78082D01*
X82877Y78125D01*
X82883Y78040D01*
X82896Y77994D01*
X82901Y77946D01*
X82953Y77776D01*
X82997Y77605D01*
X83017Y77561D01*
X83031Y77515D01*
X83112Y77357D01*
X83187Y77196D01*
X83214Y77157D01*
X83236Y77114D01*
X83343Y76973D01*
X83445Y76827D01*
X83479Y76794D01*
X83508Y76755D01*
X83638Y76635D01*
X83764Y76510D01*
X83804Y76483D01*
X83839Y76450D01*
X83989Y76355D01*
X84135Y76254D01*
X84188Y76228D01*
X84219Y76208D01*
X84277Y76184D01*
X84416Y76117D01*
X87160Y74980D01*
X89288Y72852D01*
X90440Y70071D01*
X90440Y67062D01*
X89288Y64282D01*
X87161Y62154D01*
X84380Y61002D01*
X81371Y61002D01*
G37*
%LPD*%
D10*
X64940Y211663D03*
D11*
X177430Y55440D03*
X202830Y55440D03*
X277390Y55450D03*
X302790Y55450D03*
X295660Y239540D03*
X321060Y239540D03*
X27360Y35220D03*
X52760Y35220D03*
X579920Y181480D03*
X579920Y206880D03*
X417680Y18000D03*
X443080Y18000D03*
X468480Y18000D03*
X493880Y18000D03*
X519280Y18000D03*
D12*
X17250Y69950D03*
X34750Y69950D03*
D13*
X124582Y99282D03*
X124582Y116782D03*
D14*
X393480Y204000D03*
X393480Y184000D03*
X393480Y164000D03*
X393480Y144000D03*
X393480Y124000D03*
X393480Y104000D03*
X393480Y84000D03*
X393480Y64000D03*
X543480Y64000D03*
X543480Y84000D03*
X543480Y104000D03*
X543480Y124000D03*
X543480Y144000D03*
X543480Y164000D03*
X543480Y184000D03*
X543480Y204000D03*
D13*
X219802Y137141D03*
X219802Y119641D03*
X319968Y137134D03*
X319968Y119634D03*
X361586Y86538D03*
X361586Y104038D03*
X574546Y123938D03*
X574546Y106438D03*
D12*
X700852Y151637D03*
X718352Y151637D03*
D15*
X166798Y121282D03*
X188798Y130782D03*
X188798Y111782D03*
X266876Y121281D03*
X288876Y130781D03*
X288876Y111781D03*
D11*
X177890Y181170D03*
X203290Y181170D03*
X277850Y181180D03*
X303250Y181180D03*
X657430Y55440D03*
X682830Y55440D03*
X757390Y55450D03*
X782790Y55450D03*
X657890Y181170D03*
X683290Y181170D03*
X757850Y181180D03*
X783250Y181180D03*
D16*
X64740Y211850D03*
D17*
X46205Y142505D02*
X46205Y115175D01*
X37475Y115175D01*
X37475Y142505D01*
X46205Y142505D01*
X46205Y116096D02*
X37475Y116096D01*
X37475Y117017D02*
X46205Y117017D01*
X46205Y117938D02*
X37475Y117938D01*
X37475Y118859D02*
X46205Y118859D01*
X46205Y119780D02*
X37475Y119780D01*
X37475Y120701D02*
X46205Y120701D01*
X46205Y121622D02*
X37475Y121622D01*
X37475Y122543D02*
X46205Y122543D01*
X46205Y123464D02*
X37475Y123464D01*
X37475Y124385D02*
X46205Y124385D01*
X46205Y125306D02*
X37475Y125306D01*
X37475Y126227D02*
X46205Y126227D01*
X46205Y127148D02*
X37475Y127148D01*
X37475Y128069D02*
X46205Y128069D01*
X46205Y128990D02*
X37475Y128990D01*
X37475Y129911D02*
X46205Y129911D01*
X46205Y130832D02*
X37475Y130832D01*
X37475Y131753D02*
X46205Y131753D01*
X46205Y132674D02*
X37475Y132674D01*
X37475Y133595D02*
X46205Y133595D01*
X46205Y134516D02*
X37475Y134516D01*
X37475Y135437D02*
X46205Y135437D01*
X46205Y136358D02*
X37475Y136358D01*
X37475Y137279D02*
X46205Y137279D01*
X46205Y138200D02*
X37475Y138200D01*
X37475Y139121D02*
X46205Y139121D01*
X46205Y140042D02*
X37475Y140042D01*
X37475Y140963D02*
X46205Y140963D01*
X46205Y141884D02*
X37475Y141884D01*
X92005Y142505D02*
X92005Y115175D01*
X83275Y115175D01*
X83275Y142505D01*
X92005Y142505D01*
X92005Y116096D02*
X83275Y116096D01*
X83275Y117017D02*
X92005Y117017D01*
X92005Y117938D02*
X83275Y117938D01*
X83275Y118859D02*
X92005Y118859D01*
X92005Y119780D02*
X83275Y119780D01*
X83275Y120701D02*
X92005Y120701D01*
X92005Y121622D02*
X83275Y121622D01*
X83275Y122543D02*
X92005Y122543D01*
X92005Y123464D02*
X83275Y123464D01*
X83275Y124385D02*
X92005Y124385D01*
X92005Y125306D02*
X83275Y125306D01*
X83275Y126227D02*
X92005Y126227D01*
X92005Y127148D02*
X83275Y127148D01*
X83275Y128069D02*
X92005Y128069D01*
X92005Y128990D02*
X83275Y128990D01*
X83275Y129911D02*
X92005Y129911D01*
X92005Y130832D02*
X83275Y130832D01*
X83275Y131753D02*
X92005Y131753D01*
X92005Y132674D02*
X83275Y132674D01*
X83275Y133595D02*
X92005Y133595D01*
X92005Y134516D02*
X83275Y134516D01*
X83275Y135437D02*
X92005Y135437D01*
X92005Y136358D02*
X83275Y136358D01*
X83275Y137279D02*
X92005Y137279D01*
X92005Y138200D02*
X83275Y138200D01*
X83275Y139121D02*
X92005Y139121D01*
X92005Y140042D02*
X83275Y140042D01*
X83275Y140963D02*
X92005Y140963D01*
X92005Y141884D02*
X83275Y141884D01*
D18*
X19020Y179130D03*
X19020Y192130D03*
X19020Y205130D03*
X19020Y218130D03*
X19020Y231130D03*
X19020Y244130D03*
X19020Y257130D03*
X32020Y257130D03*
X45020Y257130D03*
X58020Y257130D03*
X71020Y257130D03*
X84020Y257130D03*
X97020Y257130D03*
X110020Y257130D03*
X110020Y244130D03*
X110020Y231130D03*
X110020Y218130D03*
X110020Y205130D03*
X110020Y192130D03*
X110020Y179130D03*
D19*
X82875Y88567D03*
D18*
X82875Y68567D03*
D13*
X361586Y124538D03*
X361586Y142038D03*
X361586Y162538D03*
X361586Y180038D03*
X361586Y200538D03*
X361586Y218038D03*
D20*
X645264Y89019D03*
X670664Y89019D03*
X670664Y152019D03*
X645264Y152019D03*
X752764Y89019D03*
X778164Y89019D03*
X778164Y152019D03*
X752764Y152019D03*
D12*
X710252Y69061D03*
X727752Y69061D03*
D21*
X178000Y160000D02*
X178000Y182000D01*
X178000Y160000D02*
X163000Y145000D01*
X163000Y69000D01*
X177000Y55000D01*
X189000Y131000D02*
X189000Y153000D01*
X203000Y167000D01*
X203000Y181000D01*
X211000Y111000D02*
X188000Y111000D01*
X211000Y111000D02*
X220000Y120000D01*
D22*
X238000Y120000D03*
D21*
X220000Y120000D01*
D22*
X336000Y86000D03*
D21*
X263000Y165000D02*
X279000Y181000D01*
X263000Y165000D02*
X263000Y70000D01*
X277000Y56000D01*
X289000Y166000D02*
X304000Y181000D01*
X289000Y166000D02*
X289000Y129000D01*
X289000Y111000D02*
X312000Y111000D01*
X319000Y118000D01*
X326000Y118000D01*
X334000Y126000D01*
X334000Y138000D01*
X339000Y143000D01*
X362000Y143000D01*
X363000Y124000D02*
X393000Y124000D01*
X363000Y86000D02*
X335000Y86000D01*
X363000Y103000D02*
X394000Y103000D01*
D23*
X393238Y64092D02*
X333113Y64092D01*
X321749Y75456D01*
D21*
X321000Y239000D02*
X340000Y239000D01*
X361000Y218000D01*
X409000Y218000D01*
X503000Y124000D01*
X545000Y124000D01*
X363000Y201000D02*
X353000Y201000D01*
X346000Y194000D01*
X346000Y168000D01*
X353000Y161000D01*
X359000Y161000D01*
X380000Y205000D02*
X394000Y205000D01*
X380000Y205000D02*
X375000Y200000D01*
X375000Y185000D01*
X371000Y181000D01*
X363000Y181000D01*
X390000Y161000D02*
X392000Y163000D01*
X390000Y161000D02*
X360000Y161000D01*
D22*
X306000Y279000D03*
D21*
X35000Y77000D02*
X35000Y64000D01*
X35000Y70000D02*
X44000Y70000D01*
X220000Y139000D02*
X220000Y146000D01*
X212000Y138000D02*
X228000Y138000D01*
X320000Y138000D02*
X320000Y145000D01*
X321000Y138000D02*
X312000Y138000D01*
X574579Y131758D02*
X574579Y124758D01*
X566579Y123758D02*
X582579Y123758D01*
X53000Y49000D02*
X53000Y36000D01*
X53000Y22000D01*
X53000Y36000D02*
X66000Y36000D01*
X83000Y59780D02*
X83000Y68780D01*
X91000Y68780D02*
X74000Y68780D01*
X116182Y100022D02*
X124511Y100022D01*
X132182Y100022D01*
X124511Y100022D02*
X124511Y92022D01*
D24*
X530000Y64000D02*
X544000Y64000D01*
X556000Y64000D01*
X544000Y64000D02*
X544000Y56000D01*
D22*
X585000Y16000D03*
X441000Y112000D03*
X461000Y112000D03*
X481000Y112000D03*
X461000Y92000D03*
X481000Y172000D03*
X501000Y172000D03*
X441000Y153000D03*
X441000Y133000D03*
X461000Y133000D03*
X236720Y8829D03*
X236720Y88829D03*
X229259Y174551D03*
X596209Y236357D03*
X373733Y21734D03*
X637088Y105520D03*
X706091Y228886D03*
D21*
X718547Y158124D02*
X718547Y145124D01*
X719000Y152000D02*
X725000Y152000D01*
X710400Y76362D02*
X710400Y62362D01*
X710400Y69362D02*
X703400Y69362D01*
X295452Y227115D02*
X295452Y252034D01*
X295767Y239259D02*
X282684Y239259D01*
X520000Y18000D02*
X520000Y5000D01*
X520000Y18000D02*
X520000Y31000D01*
X520000Y18000D02*
X532000Y18000D01*
X120407Y193827D02*
X120407Y241827D01*
X87454Y156435D02*
X39454Y156435D01*
X40454Y266435D02*
X88454Y266435D01*
X10565Y241454D02*
X10565Y193454D01*
D23*
X16000Y44000D02*
X26000Y34000D01*
X16000Y44000D02*
X16000Y93780D01*
X42000Y119780D01*
D22*
X42000Y98780D03*
D23*
X33000Y107780D01*
X31000Y107780D01*
D22*
X146000Y113000D03*
D23*
X138220Y120780D01*
X89000Y120780D01*
X83000Y114780D02*
X83000Y88780D01*
X83000Y114780D02*
X89000Y120780D01*
D22*
X321000Y76000D03*
D24*
X539000Y204000D02*
X577000Y204000D01*
X580000Y207000D01*
D22*
X539000Y204000D03*
D24*
X549000Y184000D02*
X577000Y184000D01*
X580000Y181000D01*
D21*
X563000Y84000D02*
X544000Y84000D01*
X563000Y84000D02*
X575000Y96000D01*
X575000Y106000D01*
X602000Y144000D02*
X543000Y144000D01*
X602000Y144000D02*
X612000Y134000D01*
X612000Y55000D01*
X631000Y36000D01*
X727400Y36000D01*
X794000Y36000D01*
X809000Y51000D01*
X809000Y137000D01*
X795000Y151000D01*
X780000Y151000D01*
X727400Y69362D02*
X727400Y36000D01*
D23*
X417795Y41205D02*
X394000Y65000D01*
X417795Y41205D02*
X417795Y17980D01*
D21*
X443380Y35620D02*
X395000Y84000D01*
X443380Y35620D02*
X443380Y16909D01*
X405948Y161000D02*
X394000Y161000D01*
X405948Y161000D02*
X415417Y151532D01*
X415417Y81949D01*
X440183Y57183D01*
D22*
X440465Y56909D03*
D21*
X407879Y184271D02*
X394543Y184271D01*
X407879Y184271D02*
X423594Y168556D01*
X423594Y90131D01*
X494651Y19073D01*
X472998Y57090D02*
X519983Y104075D01*
X545572Y104075D01*
X641000Y182000D02*
X658000Y182000D01*
X641000Y182000D02*
X622000Y163000D01*
X622000Y97000D01*
X631000Y88000D01*
X645000Y88000D01*
X668000Y166000D02*
X683000Y181000D01*
X668000Y166000D02*
X664000Y166000D01*
X658000Y160000D01*
X658000Y119319D01*
X679730Y97589D01*
X679730Y57455D01*
X658000Y55000D02*
X658000Y62000D01*
X671000Y75000D01*
X671000Y88000D01*
X758000Y66000D02*
X758000Y55000D01*
X758000Y66000D02*
X778000Y86000D01*
X793000Y65000D02*
X783000Y55000D01*
X793000Y65000D02*
X793000Y98000D01*
X769000Y122000D01*
X769000Y162000D01*
X784000Y177000D01*
X784000Y182000D01*
D22*
X473000Y57000D03*
X539000Y84000D03*
X539000Y104000D03*
X740000Y152000D03*
D21*
X753000Y152000D01*
D22*
X632000Y152000D03*
D21*
X645000Y152000D01*
D22*
X742000Y104000D03*
D21*
X747000Y104000D01*
X752819Y98181D01*
X752819Y89457D01*
D22*
X539000Y184000D03*
X539000Y164000D03*
X684000Y152000D03*
D21*
X671000Y152000D01*
X684000Y152000D02*
X700000Y152000D01*
X203000Y91000D02*
X203000Y55000D01*
D22*
X202864Y91047D03*
X303283Y99243D03*
D21*
X303335Y55335D02*
X303000Y55000D01*
X303335Y55335D02*
X303335Y99403D01*
M02*
