M48
;GenerationSoftware,Autodesk,EAGLE,9.6.2*%
;CreationDate,2024-05-26T20:01:19Z*%
FMAT,2
ICI,OFF
METRIC,TZ,000.000
T4C0.550
T3C0.700
T2C1.016
T1C4.000
%
G90
M71
T1
X23049Y26070
X10117Y2821
X70992Y10095
X57989Y5720
T2
X57992Y18148
X5276Y3522
X29566Y23954
X2736Y3522
X32106Y23954
X17743Y5544
X20283Y5544
X17789Y18117
X27739Y5545
X30279Y5545
X78325Y18118
X75785Y18118
X68329Y18117
X65789Y18117
X78279Y5545
X75739Y5545
X68283Y5544
X65743Y5544
X30325Y18118
X27785Y18118
X20329Y18117
X51928Y1800
X49388Y1800
X46848Y1800
X44308Y1800
X41768Y1800
X57992Y20688
T3
X4502Y25713
X5802Y25713
X8402Y25713
X9702Y25713
X11002Y25713
X11002Y24413
X11002Y23113
X11002Y21813
X11002Y20513
X11002Y19213
X11002Y17913
X8288Y8857
X8288Y6857
X7102Y25713
X1902Y17913
X1902Y19213
X1902Y20513
X1902Y21813
X1902Y23113
X1902Y24413
X1902Y25713
X3202Y25713
T4
X23800Y12000
X33600Y8600
X30600Y27900
X58500Y1600
X44100Y11200
X46100Y11200
X48100Y11200
X46100Y9200
X48100Y17200
X50100Y17200
X44100Y15300
X46100Y13300
X23672Y883
X23672Y8883
X30328Y9924
X20286Y9105
X53900Y16400
X53900Y18400
X74200Y10400
X63200Y15200
X74000Y15200
X53900Y10400
X53900Y8400
X47300Y5700
X44100Y13300
X68400Y15200
X44047Y5691
X53900Y20400
X32100Y7600
X14600Y11300
X4200Y9878
X70609Y22889
X63709Y10552
X37373Y2173
X59621Y23636
X22926Y17455
M30